SplineFontDB: 3.2
FontName: SeriousShannsBold
FullName: Serious Shanns Bold
FamilyName: Serious Shanns Bold
Weight: Bold
Copyright: https://github.com/kaBeech/serious-shanns/blob/main/LICENSE
Version: 6.0.0
ItalicAngle: 0
UnderlinePosition: 0
UnderlineWidth: 0
Ascent: 800
Descent: 200
InvalidEm: 0
sfntRevision: 0x00003333
LayerCount: 2
Layer: 0 0 "Back" 1
Layer: 1 0 "Fore" 0
XUID: [1021 45 630387186 1689187]
StyleMap: 0x0040
FSType: 4
OS2Version: 3
OS2_WeightWidthSlopeOnly: 0
OS2_UseTypoMetrics: 0
CreationTime: 1532631502
ModificationTime: 315532800
PfmFamily: 81
TTFWeight: 700
TTFWidth: 5
LineGap: 0
VLineGap: 0
Panose: 0 0 0 0 0 0 0 0 0 0
OS2TypoAscent: 613
OS2TypoAOffset: 0
OS2TypoDescent: -188
OS2TypoDOffset: 0
OS2TypoLinegap: 98
OS2WinAscent: 778
OS2WinAOffset: 0
OS2WinDescent: 308
OS2WinDOffset: 0
HheadAscent: 796
HheadAOffset: 0
HheadDescent: -317
HheadDOffset: 0
OS2SubXSize: 317
OS2SubYSize: 293
OS2SubXOff: 0
OS2SubYOff: 37
OS2SupXSize: 317
OS2SupYSize: 293
OS2SupXOff: 0
OS2SupYOff: 171
OS2StrikeYSize: 0
OS2StrikeYPos: 132
OS2CapHeight: 576
OS2XHeight: 485
OS2Vendor: 'NONE'
OS2CodePages: 00000001.00000000
OS2UnicodeRanges: 00000001.00000000.00000000.00000000
MarkAttachClasses: 1
DEI: 91125
LangName: 1033 "" "" "Normal" "" "" "Version 0.2.0"
Encoding: UnicodeBmp
Compacted: 1
UnicodeInterp: none
NameList: AGL For New Fonts
DisplaySize: -48
AntiAlias: 1
FitToEm: 0
WinInfo: 0 16 14
BeginPrivate: 9
BlueValues 32 [-39 -6 502 523 708 718 765 769]
OtherBlues 11 [-297 -287]
BlueScale 9 0.0291667
BlueShift 1 2
StdHW 5 [110]
StdVW 5 [128]
StemSnapH 5 [110]
StemSnapV 9 [128 134]
ForceBold 4 true
EndPrivate
BeginChars: 65537 105

StartChar: .notdef
Encoding: 65536 -1 0
Width: 700
GlyphClass: 1
Flags: W
HStem: -280 78<202 498> 683 78<202 498>
VStem: 124 78<-202 683> 498 78<-202 683>
LayerCount: 2
Fore
SplineSet
124 -280 m 1
 124 761 l 1
 576 761 l 1
 576 -280 l 1
 124 -280 l 1
202 683 m 1
 202 -202 l 1
 498 -202 l 1
 498 683 l 1
 202 683 l 1
EndSplineSet
Validated: 1
EndChar

StartChar: exclam
Encoding: 33 33 1
Width: 700
GlyphClass: 2
Flags: W
HStem: -37.002 179.001<292.867 409.872>
VStem: 256.002 187.036<-3.98231 106.918> 290 122.001<248.311 379.795> 298 115.001<294.405 784.434>
LayerCount: 2
Fore
SplineSet
420 738 m 0x90
 420 732 418.66796875 694.665039062 416.000976562 625.998046875 c 0
 414.000976562 557.331054688 413.000976562 502.331054688 413.000976562 460.998046875 c 0
 413.000976562 441.665039062 413.333984375 421.33203125 414.000976562 399.999023438 c 0
 414.66796875 379.33203125 415.000976562 361.33203125 415.000976562 345.999023438 c 0
 415.000976562 330.666015625 414.333984375 320.333007812 413.000976562 315 c 0x90
 412.333984375 309.666992188 412.000976562 302.666992188 412.000976562 294 c 0xa0
 412.000976562 285.333007812 412.333984375 277.333007812 413.000976562 270 c 0x90
 411.000976562 251.333007812 403.66796875 237 391.000976562 227 c 0
 379.66796875 217.666992188 366.000976562 212.666992188 350.000976562 212 c 2
 346.000976562 212 l 2
 329.333984375 212 315.666992188 218 305 230 c 0
 295 240 290 253.333007812 290 270 c 0xa0
 290 278 291.333007812 288.333007812 294 301 c 0
 296 314.333007812 297.333007812 324 298 330 c 0
 298.666992188 336 299 346.333007812 299 361 c 2
 299 402 l 2
 299 415.333007812 298.666992188 435.666015625 298 462.999023438 c 0
 296.666992188 494.999023438 296 525.666015625 296 554.999023438 c 2
 296 623.999023438 l 2
 296.666992188 640.666015625 297.333984375 661.333007812 298.000976562 686 c 0
 298.66796875 710.666992188 299.000976562 727 299.000976562 735 c 1
 299.66796875 756.333007812 306.000976562 773 318.000976562 785 c 0
 329.333984375 796.333007812 343.666992188 802 361 802 c 2
 364 802 l 2
 380 802 393.333007812 796.666992188 404 786 c 0
 414.666992188 775.333007812 420 759.333007812 420 738 c 0x90
342.000976562 -37.001953125 m 2
 318.66796875 -37.001953125 299.001953125 -29.0009765625 283.001953125 -13.0009765625 c 0
 265.001953125 5.666015625 256.001953125 27.9990234375 256.001953125 53.9990234375 c 0
 256.001953125 77.9990234375 266.001953125 98.33203125 286.001953125 114.999023438 c 0
 306.668945312 132.999023438 329.668945312 141.999023438 355.001953125 141.999023438 c 0
 380.334960938 141.999023438 401.334960938 133.999023438 418.001953125 117.999023438 c 0
 434.692382812 101.30859375 443.038085938 81.2177734375 443.038085938 57.7255859375 c 0xc0
 443.038085938 44.673828125 442.46875 17.443359375 419.000976562 -7.001953125 c 0
 402.333984375 -23.6689453125 380.333984375 -33.6689453125 353.000976562 -37.001953125 c 2
 342.000976562 -37.001953125 l 2
EndSplineSet
Validated: 524289
EndChar

StartChar: quotedbl
Encoding: 34 34 2
Width: 700
GlyphClass: 2
Flags: W
VStem: 205 122.001<438.439 586.418> 208 127<442.249 783.227> 365.001 130<442.134 783.794>
LayerCount: 2
Fore
SplineSet
495.000976562 738 m 2x20
 495.000976562 719 l 2
 495.000976562 685 494.669921875 641.666992188 494.002929688 589 c 0
 492.669921875 533.666992188 490.669921875 495 488.002929688 473 c 0
 485.3359375 456.333007812 477.668945312 443.666015625 465.001953125 434.999023438 c 0
 454.334960938 426.999023438 442.66796875 422.999023438 430.000976562 422.999023438 c 0
 413.333984375 422.999023438 398.333984375 427.999023438 385.000976562 437.999023438 c 0
 372.333984375 447.33203125 366.000976562 459.999023438 366.000976562 475.999023438 c 2
 366.000976562 481.999023438 l 2
 367.333984375 504.666015625 368.000976562 531.999023438 368.000976562 563.999023438 c 0
 368.000976562 631.33203125 367.000976562 690.999023438 365.000976562 742.999023438 c 2
 365.000976562 745.999023438 l 2
 365.000976562 755.33203125 367.333984375 763.83203125 372.000976562 771.499023438 c 0
 376.66796875 779.166015625 383.334960938 784.666015625 392.001953125 787.999023438 c 0
 404.001953125 792.666015625 416.001953125 795.333007812 428.001953125 796 c 0
 438.001953125 796 446.168945312 795 452.501953125 793 c 0
 458.834960938 791 465.001953125 788.333007812 471.001953125 785 c 0
 478.334960938 781 484.16796875 774.833007812 488.500976562 766.5 c 0
 492.833984375 758.166992188 495.000976562 748.666992188 495.000976562 738 c 2x20
335 739 m 2x60
 335 697 l 2x60
 335 677.666992188 334.333984375 641.666992188 333.000976562 589 c 0
 331.66796875 533.666992188 329.66796875 495 327.000976562 473 c 0
 324.333984375 456.333007812 317.000976562 443.666015625 305.000976562 434.999023438 c 0
 294.333984375 426.999023438 282.666992188 422.999023438 270 422.999023438 c 0
 253.333007812 422.999023438 238 427.999023438 224 437.999023438 c 0
 211.333007812 447.33203125 205 459.999023438 205 475.999023438 c 0xa0
 205 477.999023438 205.333007812 480.33203125 206 482.999023438 c 0
 207.5 502.498046875 208.25 525.185546875 208.25 551.059570312 c 0
 208.25 559.684570312 208.166992188 568.665039062 208 577.999023438 c 2
 208 611.999023438 l 2
 207.333007812 679.33203125 206 724.33203125 204 746.999023438 c 0
 204 755.666015625 206.333007812 763.666015625 211 770.999023438 c 0
 216.333007812 778.999023438 223 784.666015625 231 787.999023438 c 0
 243 792.666015625 255.333007812 795.333007812 268 796 c 0
 278 796 286.166992188 795 292.5 793 c 0
 298.833007812 791 305.333007812 788 312 784 c 0
 318.666992188 780 324 774 328 766 c 0
 332 758 334.333007812 749 335 739 c 2x60
EndSplineSet
Validated: 524289
EndChar

StartChar: numbersign
Encoding: 35 35 3
Width: 700
GlyphClass: 2
Flags: W
HStem: -13.999 20.9004G<176.333 184.333 402.998 410.998> 179.001 107.003<90.5032 150 298.003 370.999 516 583.621> 433.004 109<129.475 201 347.999 417.003 561 606.404>
LayerCount: 2
Fore
SplineSet
417.002929688 433.00390625 m 1
 327.002929688 433.00390625 l 1
 298.002929688 286.00390625 l 1
 322.002929688 286.670898438 352.669921875 287.001953125 390.002929688 287.001953125 c 1
 399.3359375 334.334960938 408.3359375 383.00390625 417.002929688 433.00390625 c 1
201 431 m 1
 183 430.333007812 173.002929688 430.333007812 171.002929688 431 c 0
 153.002929688 431 139.002929688 435.334960938 129.002929688 444.001953125 c 0
 117.669921875 454.001953125 111.669921875 466.668945312 111.002929688 482.001953125 c 2
 111.002929688 485.001953125 l 2
 111.002929688 499.001953125 116.333007812 511.334960938 127 522.001953125 c 0
 137.666992188 532.668945312 153.002929688 538.3359375 173.002929688 539.002929688 c 0
 184.3359375 539.669921875 200.668945312 540.002929688 222.001953125 540.002929688 c 1
 249.001953125 686.002929688 l 2
 255.001953125 706.669921875 265.334960938 720.669921875 280.001953125 728.002929688 c 0
 289.334960938 733.3359375 299.334960938 736.3359375 310.001953125 737.002929688 c 0
 314.668945312 737.002929688 319.33203125 736.3359375 323.999023438 735.002929688 c 0
 341.33203125 731.669921875 354.668945312 723.336914062 364.001953125 710.00390625 c 0
 370.668945312 700.670898438 374.001953125 689.670898438 374.001953125 677.00390625 c 0
 374.001953125 671.00390625 373.334960938 665.00390625 372.001953125 659.00390625 c 2
 347.999023438 542.00390625 l 1
 436.001953125 542.00390625 l 1
 461.001953125 678.00390625 l 2
 467.001953125 699.336914062 477.334960938 714.00390625 492.001953125 722.00390625 c 0
 501.334960938 727.336914062 511.334960938 730.00390625 522.001953125 730.00390625 c 0
 527.334960938 730.00390625 532.334960938 729.3359375 537.001953125 728.002929688 c 0
 554.334960938 724.669921875 567.66796875 716.337890625 577.000976562 703.004882812 c 0
 583.000976562 694.337890625 586.333007812 684.004882812 587 672.004882812 c 0
 587 665.337890625 586 658.337890625 584 651.004882812 c 0
 577.333007812 626.337890625 569.666992188 590.337890625 561 543.004882812 c 1
 579 542.337890625 594.333007812 537.004882812 607 527.004882812 c 0
 620.333007812 515.671875 627.333007812 503.004882812 628 489.004882812 c 0
 628 473.671875 623 460.671875 613 450.004882812 c 0
 603 439.337890625 588 433.670898438 568 433.00390625 c 2
 567 433.00390625 l 1
 541 433.00390625 l 1
 516 286.00390625 l 1
 543 286.00390625 l 2
 562.333007812 286.00390625 576 281.336914062 584 272.00390625 c 0
 592 262.670898438 596.666992188 251.00390625 598 237.00390625 c 2
 598 236.00390625 l 2
 598 220.00390625 594.333007812 207.336914062 587 198.00390625 c 0
 577.666992188 186.00390625 563 180.00390625 543 180.00390625 c 2
 498 180.00390625 l 1
 485.333007812 109.336914062 476 60.669921875 470 34.0029296875 c 0
 463.333007812 16.0029296875 451.666015625 2.669921875 434.999023438 -5.9970703125 c 0
 425.3984375 -11.3974609375 415.797851562 -14.0986328125 406.197265625 -14.0986328125 c 0
 402.998046875 -13.9990234375 l 0
 397.665039062 -13.9990234375 392.33203125 -13.33203125 386.999023438 -11.9990234375 c 0
 370.999023438 -8.666015625 358.999023438 1.6689453125 350.999023438 19.001953125 c 0
 346.999023438 28.3349609375 344.666015625 37.66796875 343.999023438 47.0009765625 c 0
 343.999023438 55.0009765625 345.33203125 63.333984375 347.999023438 72.0009765625 c 0
 353.999023438 96.0009765625 361.666015625 131.66796875 370.999023438 179.000976562 c 1
 323.999023438 179.000976562 l 2
 304.666015625 179.000976562 288.999023438 178.66796875 276.999023438 178.000976562 c 1
 258.999023438 88.0009765625 248.999023438 41.0009765625 246.999023438 37.0009765625 c 0
 240.999023438 20.333984375 229.666015625 7.0009765625 212.999023438 -2.9990234375 c 0
 200.999023438 -10.33203125 189.666015625 -13.9990234375 178.999023438 -13.9990234375 c 0
 173.666015625 -13.9990234375 168.333007812 -13.33203125 163 -11.9990234375 c 0
 147 -8.666015625 135 2.333984375 127 21.0009765625 c 0
 123 30.333984375 121 39.333984375 121 48.0009765625 c 0
 121 57.333984375 122.666992188 66.6669921875 126 76 c 0
 130.666992188 92 138.666992188 125.666992188 150 177 c 1
 135 177 l 2
 115.666992188 177 100.666992188 181 90 189 c 0
 78 197.666992188 72 209.666992188 72 225 c 2
 72 228 l 2
 72 242 77 254.333007812 87 265 c 0
 97 275 112 280.666992188 132 282 c 0
 137.333007812 282 144.333007812 282.333007812 153 283 c 2
 172 283 l 1
 201 431 l 1
EndSplineSet
Validated: 524289
EndChar

StartChar: dollar
Encoding: 36 36 4
Width: 700
GlyphClass: 2
Flags: W
HStem: -32.0029 106.998<229.387 288.001>
VStem: 99.001 118<485.148 581.759> 293.001 117.001<-87.3984 -32.0029 92.9971 317.997 456.997 612.974> 501.033 117.967<146.588 273.466>
LayerCount: 2
Fore
SplineSet
385.5 -130 m 0
 372.5 -140 357.333984375 -145.002929688 340.000976562 -145.002929688 c 2
 338.000976562 -145.002929688 l 2
 320.000976562 -145.002929688 306.333984375 -139.002929688 297.000976562 -127.002929688 c 0
 289.66796875 -118.3359375 286.000976562 -106.668945312 286.000976562 -92.001953125 c 0
 286.000976562 -88.6689453125 286.333984375 -82.8359375 287.000976562 -74.5029296875 c 0
 287.66796875 -66.169921875 288.000976562 -52.0029296875 288.000976562 -32.0029296875 c 1
 264.000976562 -31.3359375 241.000976562 -28.0029296875 219.000976562 -22.0029296875 c 0
 197.000976562 -16.0029296875 178.000976562 -8.0029296875 162.000976562 1.9970703125 c 0
 130.000976562 21.9970703125 106.333984375 45.9970703125 91.0009765625 73.9970703125 c 0
 84.333984375 88.6640625 81.0009765625 101.997070312 81.0009765625 113.997070312 c 0
 81.0009765625 117.997070312 81.333984375 121.6640625 82.0009765625 124.997070312 c 0
 85.333984375 140.330078125 94.6669921875 151.330078125 110 157.997070312 c 0
 118.666992188 161.997070312 125.333984375 164.497070312 130.000976562 165.497070312 c 0
 134.66796875 166.497070312 138.66796875 166.997070312 142.000976562 166.997070312 c 0
 145.333984375 166.997070312 148.333984375 166.6640625 151.000976562 165.997070312 c 0
 159.000976562 165.330078125 166.333984375 162.163085938 173.000976562 156.49609375 c 0
 179.66796875 150.829101562 186.66796875 143.329101562 194.000976562 133.99609375 c 0
 207.333984375 115.329101562 222.333984375 100.662109375 239.000976562 89.9951171875 c 0
 253.000976562 81.328125 270.333984375 76.328125 291.000976562 74.9951171875 c 1
 292.333984375 174.328125 293.000976562 263.661132812 293.000976562 342.994140625 c 1
 291.000976562 342.994140625 287.333984375 343.661132812 282.000976562 344.994140625 c 0
 278.000976562 345.661132812 272.66796875 345.994140625 266.000976562 345.994140625 c 0
 238.66796875 348.661132812 213.66796875 355.328125 191.000976562 365.995117188 c 0
 170.333984375 376.662109375 153.333984375 389.329101562 140.000976562 403.99609375 c 0
 126.66796875 418.663085938 116.500976562 434.330078125 109.500976562 450.997070312 c 0
 102.500976562 467.6640625 99.0009765625 484.6640625 99.0009765625 501.997070312 c 0
 99.0009765625 526.6640625 102.833984375 550.331054688 110.500976562 572.998046875 c 0
 118.16796875 595.665039062 130.000976562 616.83203125 146.000976562 636.499023438 c 0
 162.000976562 656.166015625 183.333984375 672.999023438 210.000976562 686.999023438 c 0
 235.333984375 699.666015625 263.666992188 708.999023438 295 714.999023438 c 1
 295.666992188 728.33203125 296 743.999023438 296 761.999023438 c 1
 296.666992188 793.999023438 307.666992188 814.33203125 329 822.999023438 c 0
 336.333007812 825.666015625 345.333007812 826.999023438 356 826.999023438 c 0
 378 826.999023438 394 819.999023438 404 805.999023438 c 0
 411.333007812 795.999023438 415.333007812 782.33203125 416 764.999023438 c 2
 416 723.999023438 l 1
 431.333007812 722.666015625 451.666015625 718.999023438 476.999023438 712.999023438 c 0
 502.33203125 707.666015625 521.665039062 702.666015625 534.998046875 697.999023438 c 0
 550.331054688 692.666015625 561.6640625 683.666015625 568.997070312 670.999023438 c 0
 574.330078125 661.666015625 576.997070312 651.999023438 576.997070312 641.999023438 c 0
 576.997070312 638.666015625 576.6640625 635.333007812 575.997070312 632 c 0
 574.6640625 622 570.831054688 613.833007812 564.498046875 607.5 c 0
 558.165039062 601.166992188 550.33203125 597.333984375 540.999023438 596.000976562 c 0
 536.33203125 595.333984375 532.33203125 595.000976562 528.999023438 595.000976562 c 0
 525.666015625 595.000976562 521.833007812 595.16796875 517.5 595.500976562 c 0
 513.166992188 595.833984375 507.666992188 597.000976562 501 599.000976562 c 0
 493.666992188 600.333984375 485 603.333984375 475 608.000976562 c 0
 455 616.66796875 434.666992188 621.66796875 414 623.000976562 c 1
 412.666992188 558.333984375 411.666992188 497.000976562 411 439.000976562 c 1
 441 434.333984375 468.666992188 427.333984375 494 418.000976562 c 0
 518 408.000976562 537.833007812 396.000976562 553.5 382.000976562 c 0
 569.166992188 368.000976562 582.166992188 352.000976562 592.5 334.000976562 c 0
 602.833007812 316.000976562 609.833007812 298.333984375 613.5 281.000976562 c 0
 617.166992188 263.66796875 619 245.66796875 619 227.000976562 c 0
 619 195.66796875 613.5 166.16796875 602.5 138.500976562 c 0
 591.5 110.833984375 576.166992188 86.6669921875 556.5 66 c 0
 536.833007812 45.3330078125 514 27.666015625 488 12.9990234375 c 0
 463.333007812 -0.333984375 436.333007812 -10.6669921875 407 -18 c 1
 407 -52 407.666992188 -75.3330078125 409 -88 c 0
 406.333007812 -106 398.5 -120 385.5 -130 c 0
242.000976562 584.997070312 m 0
 225.333984375 569.6640625 217.000976562 551.6640625 217.000976562 530.997070312 c 0
 217.000976562 512.997070312 224.66796875 497.330078125 240.000976562 483.997070312 c 0
 253.333984375 471.997070312 271.000976562 462.997070312 293.000976562 456.997070312 c 1
 293.66796875 498.330078125 294.000976562 551.330078125 294.000976562 615.997070312 c 1
 273.333984375 607.997070312 256.000976562 597.6640625 242.000976562 584.997070312 c 0
471.000976562 136.997070312 m 0
 491.021484375 157.017578125 501.033203125 179.85546875 501.033203125 205.506835938 c 0
 501.033203125 214.470703125 500.657226562 226.20703125 497.001953125 238.998046875 c 0
 494.334960938 248.331054688 489.334960938 258.6640625 482.001953125 269.997070312 c 0
 469.334960938 288.6640625 445.334960938 304.6640625 410.001953125 317.997070312 c 1
 409.334960938 241.330078125 408.834960938 191.330078125 408.501953125 167.997070312 c 0
 408.168945312 144.6640625 407.668945312 119.6640625 407.001953125 92.9970703125 c 1
 432.334960938 104.997070312 453.66796875 119.6640625 471.000976562 136.997070312 c 0
EndSplineSet
Validated: 524289
EndChar

StartChar: percent
Encoding: 37 37 5
Width: 700
GlyphClass: 2
Flags: W
HStem: -40.0039 101.001<459.767 524.748> 158.997 98<462.893 530.969> 420 98.9961<171.254 237.684> 607.996 97.0039<173.146 242.393>
VStem: 66.998 96.001<530.28 596.587> 250.998 103.001<529.373 597.165> 345.998 104.999<72.8275 145.526> 537.999 94.999<71.4058 144.619>
LayerCount: 2
Fore
SplineSet
81.5 491.5 m 0xfd
 71.8330078125 511.833007812 66.998046875 533.333007812 66.998046875 556 c 2
 66.998046875 558 l 2
 66.998046875 600 79.498046875 635 104.498046875 663 c 0
 129.498046875 691 165.665039062 705 212.998046875 705 c 0
 253.665039062 705 287.33203125 693 313.999023438 669 c 0
 327.999023438 656.333007812 338.666015625 640 345.999023438 620 c 0
 351.33203125 604 353.999023438 586 353.999023438 566 c 0
 353.999023438 516 339.666015625 478.333007812 310.999023438 453 c 0
 285.666015625 431 247.999023438 420 197.999023438 420 c 0
 170.666015625 420 146.833007812 426.833007812 126.5 440.5 c 0
 106.166992188 454.166992188 91.1669921875 471.166992188 81.5 491.5 c 0xfd
114.998046875 -45 m 0
 106.331054688 -41 99.3310546875 -36.00390625 93.998046875 -30.00390625 c 0
 86.6650390625 -22.00390625 82.998046875 -12.50390625 82.998046875 -1.50390625 c 0
 82.998046875 9.49609375 86.3310546875 21.3291015625 92.998046875 33.99609375 c 0
 106.998046875 61.99609375 140.331054688 120.329101562 192.998046875 208.99609375 c 0
 306.331054688 387.663085938 362.998046875 477.330078125 362.998046875 477.997070312 c 0
 419.665039062 567.997070312 457.665039062 632.6640625 476.998046875 671.997070312 c 1
 476.998046875 664.6640625 477.331054688 664.997070312 477.998046875 672.997070312 c 1
 488.665039062 687.6640625 502.33203125 696.331054688 518.999023438 698.998046875 c 0
 523.666015625 700.331054688 528.333007812 700.998046875 533 700.998046875 c 0
 543.666992188 700.998046875 554 698.331054688 564 692.998046875 c 0
 579.333007812 685.665039062 588 675.33203125 590 661.999023438 c 0
 590.666992188 659.33203125 591 656.665039062 591 653.998046875 c 0
 591 642.665039062 586.666992188 630.33203125 578 616.999023438 c 0
 553.333007812 577.666015625 491.666015625 477.333007812 392.999023438 316 c 0
 292.33203125 154.666992188 225.665039062 45.6669921875 192.998046875 -11 c 0
 177.665039062 -37.6669921875 159.665039062 -51 138.998046875 -51 c 0
 131.665039062 -51 123.665039062 -49 114.998046875 -45 c 0
239.498046875 597.49609375 m 0
 231.831054688 604.49609375 219.998046875 607.99609375 203.998046875 607.99609375 c 0
 191.331054688 607.99609375 181.998046875 604.329101562 175.998046875 596.99609375 c 0
 168.665039062 588.329101562 164.33203125 575.99609375 162.999023438 559.99609375 c 2
 162.999023438 556.99609375 l 2
 162.999023438 544.99609375 165.666015625 535.99609375 170.999023438 529.99609375 c 0
 176.33203125 523.99609375 188.665039062 520.329101562 207.998046875 518.99609375 c 2
 208.998046875 518.99609375 l 2
 221.665039062 518.99609375 231.33203125 522.329101562 237.999023438 528.99609375 c 0
 245.33203125 536.99609375 249.665039062 547.663085938 250.998046875 560.99609375 c 2
 250.998046875 563.99609375 l 2
 250.998046875 579.329101562 247.165039062 590.49609375 239.498046875 597.49609375 c 0
361.498046875 34.49609375 m 0
 351.165039062 55.49609375 345.998046875 77.9970703125 345.998046875 101.997070312 c 2
 345.998046875 103.997070312 l 2xfb
 345.998046875 147.997070312 359.665039062 184.497070312 386.998046875 213.497070312 c 0
 414.331054688 242.497070312 452.331054688 256.997070312 500.998046875 256.997070312 c 0
 538.998046875 256.997070312 570.998046875 244.6640625 596.998046875 219.997070312 c 0
 610.331054688 207.330078125 619.998046875 189.997070312 625.998046875 167.997070312 c 0
 630.665039062 151.997070312 632.998046875 134.330078125 632.998046875 114.997070312 c 0
 632.998046875 108.330078125 632.665039062 101.663085938 631.998046875 94.99609375 c 0
 629.998046875 50.99609375 617.331054688 17.49609375 593.998046875 -5.50390625 c 0
 570.665039062 -28.50390625 535.665039062 -40.00390625 488.998046875 -40.00390625 c 2
 483.998046875 -40.00390625 l 2
 455.998046875 -39.3369140625 431.165039062 -32.00390625 409.498046875 -18.00390625 c 0
 387.831054688 -4.00390625 371.831054688 13.49609375 361.498046875 34.49609375 c 0
495.998046875 60.9970703125 m 0
 496.665039062 60.9970703125 497.666992188 60.6640625 499 59.9970703125 c 0
 511 59.9970703125 519.666992188 63.6640625 525 70.9970703125 c 0
 532.333007812 79.6640625 536.666015625 91.6640625 537.999023438 106.997070312 c 2
 537.999023438 108.997070312 l 2
 537.999023438 124.997070312 534.999023438 136.997070312 528.999023438 144.997070312 c 0
 522.33203125 154.330078125 510.665039062 158.997070312 493.998046875 158.997070312 c 0
 481.331054688 158.997070312 471.6640625 154.6640625 464.997070312 145.997070312 c 0
 456.997070312 135.997070312 452.330078125 122.6640625 450.997070312 105.997070312 c 2
 450.997070312 102.997070312 l 2
 450.997070312 89.6640625 453.830078125 79.4970703125 459.497070312 72.4970703125 c 0
 465.1640625 65.4970703125 477.331054688 61.6640625 495.998046875 60.9970703125 c 0
EndSplineSet
Validated: 524289
EndChar

StartChar: ampersand
Encoding: 38 38 6
Width: 700
GlyphClass: 2
Flags: W
HStem: -53.9932 118<237.517 363.75> 633.005 103<293.922 383.087>
VStem: 78.998 124.001<100.286 273.189> 165.998 119.001<504.635 620.91> 399.999 108<508.115 617.229>
LayerCount: 2
Fore
SplineSet
607 11 m 0xd8
 607 7.6669921875 606.666015625 4.0048828125 605.999023438 0.0048828125 c 0
 603.33203125 -23.328125 595.33203125 -38.6611328125 581.999023438 -45.994140625 c 0
 569.33203125 -50.6611328125 561.33203125 -52.994140625 557.999023438 -52.994140625 c 2
 556.999023438 -52.994140625 l 2
 548.33203125 -52.994140625 538.999023438 -50.6611328125 528.999023438 -45.994140625 c 0
 511.666015625 -37.3271484375 496.999023438 -22.3271484375 484.999023438 -0.994140625 c 0
 482.999023438 2.3388671875 479.83203125 9.8388671875 475.499023438 21.505859375 c 0
 471.166015625 33.1728515625 467.999023438 41.6728515625 465.999023438 47.005859375 c 1
 450.999023438 27.505859375 l 2
 447.666015625 23.1728515625 441.999023438 16.83984375 433.999023438 8.5068359375 c 0
 425.999023438 0.173828125 419.166015625 -6.326171875 413.499023438 -10.9931640625 c 0
 407.83203125 -15.66015625 400.165039062 -21.16015625 390.498046875 -27.4931640625 c 0
 380.831054688 -33.826171875 371.331054688 -38.4931640625 361.998046875 -41.4931640625 c 0
 352.665039062 -44.4931640625 341.998046875 -47.326171875 329.998046875 -49.9931640625 c 0
 317.998046875 -52.66015625 305.665039062 -53.9931640625 292.998046875 -53.9931640625 c 0
 252.998046875 -53.9931640625 216.498046875 -43.826171875 183.498046875 -23.4931640625 c 0
 150.498046875 -3.16015625 124.831054688 23.6728515625 106.498046875 57.005859375 c 0
 88.1650390625 90.3388671875 78.998046875 126.338867188 78.998046875 165.005859375 c 0xe8
 78.998046875 223.005859375 89.6650390625 272.672851562 110.998046875 314.005859375 c 0
 136.331054688 362.672851562 175.998046875 400.672851562 229.998046875 428.005859375 c 1
 212.498046875 455.505859375 l 2
 205.498046875 466.505859375 200.165039062 475.005859375 196.498046875 481.005859375 c 0
 192.831054688 487.005859375 188.498046875 494.838867188 183.498046875 504.505859375 c 0
 178.498046875 514.172851562 174.998046875 522.672851562 172.998046875 530.005859375 c 0
 168.331054688 550.005859375 165.998046875 569.672851562 165.998046875 589.005859375 c 0
 165.998046875 601.672851562 167.665039062 614.505859375 170.998046875 627.505859375 c 0
 174.331054688 640.505859375 180.331054688 653.672851562 188.998046875 667.005859375 c 0
 197.665039062 680.338867188 208.33203125 692.171875 220.999023438 702.504882812 c 0
 233.666015625 712.837890625 249.999023438 721.004882812 269.999023438 727.004882812 c 0
 289.999023438 733.004882812 312.33203125 736.004882812 336.999023438 736.004882812 c 0
 357.666015625 736.004882812 377.999023438 732.837890625 397.999023438 726.504882812 c 0
 417.999023438 720.171875 436.33203125 710.671875 452.999023438 698.004882812 c 0
 469.666015625 685.337890625 482.999023438 668.670898438 492.999023438 648.00390625 c 0
 502.999023438 627.336914062 507.999023438 604.336914062 507.999023438 579.00390625 c 0
 507.999023438 556.336914062 504.999023438 535.169921875 498.999023438 515.502929688 c 0
 492.999023438 495.8359375 485.499023438 479.3359375 476.499023438 466.002929688 c 0
 467.499023438 452.669921875 456.33203125 440.169921875 442.999023438 428.502929688 c 0
 429.666015625 416.8359375 418.333007812 408.002929688 409 402.002929688 c 0
 399.666992188 396.002929688 390 390.669921875 380 386.002929688 c 1
 392 366.002929688 408.833007812 340.8359375 430.5 310.502929688 c 0
 452.166992188 280.169921875 468 257.669921875 478 243.002929688 c 1
 480 247.002929688 482.833007812 253.169921875 486.5 261.502929688 c 0
 490.166992188 269.8359375 493.833984375 278.002929688 497.500976562 286.002929688 c 0
 501.16796875 294.002929688 504.334960938 300.002929688 507.001953125 304.002929688 c 0
 520.334960938 324.002929688 533.66796875 336.3359375 547.000976562 341.002929688 c 0
 552.333984375 343.002929688 558.000976562 344.002929688 564.000976562 344.002929688 c 0
 573.333984375 344.002929688 582.666992188 341.669921875 592 337.002929688 c 0
 607.333007812 329.669921875 616.333007812 317.002929688 619 299.002929688 c 0
 619.666992188 295.002929688 620.333984375 290.669921875 621.000976562 286.002929688 c 0
 621.000976562 272.002929688 617.000976562 257.3359375 609.000976562 242.002929688 c 0
 605.66796875 235.3359375 596.000976562 222.168945312 580.000976562 202.501953125 c 0
 564.000976562 182.834960938 551.000976562 165.66796875 541.000976562 151.000976562 c 1
 548.333984375 139.000976562 558.166992188 122.16796875 570.5 100.500976562 c 0
 582.833007812 78.833984375 590.333007812 65.6669921875 593 61 c 0
 602.333007812 45 607 28.3330078125 607 11 c 0xd8
284.999023438 572.004882812 m 0xd8
 284.999023438 557.337890625 288.999023438 541.338867188 296.999023438 524.005859375 c 0
 304.999023438 506.672851562 313.999023438 491.672851562 323.999023438 479.005859375 c 1
 334.666015625 482.338867188 344.166015625 486.171875 352.499023438 490.504882812 c 0
 360.83203125 494.837890625 368.999023438 500.337890625 376.999023438 507.004882812 c 0
 384.999023438 513.671875 390.83203125 522.004882812 394.499023438 532.004882812 c 0
 398.166015625 542.004882812 399.999023438 554.337890625 399.999023438 569.004882812 c 0
 399.999023438 589.671875 393.666015625 605.504882812 380.999023438 616.504882812 c 0
 368.33203125 627.504882812 352.83203125 633.004882812 334.499023438 633.004882812 c 0
 316.166015625 633.004882812 302.999023438 627.337890625 294.999023438 616.004882812 c 0
 288.33203125 606.004882812 284.999023438 591.337890625 284.999023438 572.004882812 c 0xd8
202.999023438 174.005859375 m 0xe8
 202.999023438 142.005859375 211.50390625 115.673828125 228.50390625 95.0068359375 c 0
 245.50390625 74.33984375 267.336914062 64.0068359375 294.00390625 64.0068359375 c 0
 308.670898438 64.0068359375 324.00390625 66.673828125 340.00390625 72.0068359375 c 0
 345.336914062 74.0068359375 351.169921875 77.173828125 357.502929688 81.5068359375 c 0
 363.8359375 85.83984375 368.668945312 89.33984375 372.001953125 92.0068359375 c 0
 375.334960938 94.673828125 379.66796875 99.0068359375 385.000976562 105.006835938 c 0
 390.333984375 111.006835938 394.000976562 115.173828125 396.000976562 117.506835938 c 0
 398.000976562 119.83984375 400.66796875 123.506835938 404.000976562 128.506835938 c 0
 407.333984375 133.506835938 409.666992188 136.673828125 411 138.006835938 c 0
 401.666992188 158.006835938 392.666992188 176.006835938 384 192.006835938 c 0
 376 207.33984375 361 230.672851562 339 262.005859375 c 0
 317 293.338867188 300.666992188 317.338867188 290 334.005859375 c 1
 275.333007812 326.672851562 262.666015625 318.005859375 251.999023438 308.005859375 c 0
 239.33203125 296.005859375 229.499023438 283.005859375 222.499023438 269.005859375 c 0
 215.499023438 255.005859375 210.499023438 240.338867188 207.499023438 225.005859375 c 0
 204.499023438 209.672851562 202.999023438 192.672851562 202.999023438 174.005859375 c 0xe8
EndSplineSet
Validated: 524289
EndChar

StartChar: quotesingle
Encoding: 39 39 7
Width: 700
GlyphClass: 2
Flags: W
VStem: 284.999 130.001<452.314 772.656> 284.999 122<449.441 601.295>
LayerCount: 2
Fore
SplineSet
415 728 m 2x80
 415 687.000976562 l 2x80
 415 669.000976562 414.665039062 641.333984375 413.998046875 604.000976562 c 0
 412.665039062 546.000976562 410.33203125 506.000976562 406.999023438 484.000976562 c 0x40
 404.33203125 466.66796875 396.999023438 453.66796875 384.999023438 445.000976562 c 0
 374.33203125 437.66796875 362.665039062 434.000976562 349.998046875 434.000976562 c 0
 332.665039062 434.000976562 317.33203125 439.000976562 303.999023438 449.000976562 c 0
 291.33203125 458.333984375 284.999023438 471.333984375 284.999023438 488.000976562 c 0
 284.999023438 490.000976562 285.33203125 491.66796875 285.999023438 493.000976562 c 0
 287.33203125 519.66796875 287.999023438 549.66796875 287.999023438 583.000976562 c 0
 287.999023438 630.333984375 286.999023438 680.000976562 284.999023438 732.000976562 c 2
 284.999023438 735.000976562 l 2
 284.999023438 744.333984375 286.999023438 752.666992188 290.999023438 760 c 0
 295.666015625 768 302.333007812 774 311 778 c 0
 323 782.666992188 335.333007812 785 348 785 c 0
 358 785 366 784 372 782 c 0
 378.666992188 780 385 777.333007812 391 774 c 0
 398.333007812 770 404 763.666992188 408 755 c 0
 412 747 414.333007812 738 415 728 c 2x80
EndSplineSet
Validated: 524289
EndChar

StartChar: parenleft
Encoding: 40 40 8
Width: 700
GlyphClass: 2
Flags: W
HStem: -144 109<418.684 496.529> 721 105.053<404.655 494.498>
VStem: 187.998 122.75<154.284 548.553>
LayerCount: 2
Fore
SplineSet
511 -93 m 0
 511 -107.666992188 505.330078125 -119.666992188 493.997070312 -129 c 0
 482.6640625 -138.333007812 470.6640625 -143.333007812 457.997070312 -144 c 0
 409.997070312 -144 366.997070312 -127 328.997070312 -93 c 0
 290.997070312 -59 260.330078125 -13 236.997070312 45 c 0
 213.6640625 103 198.331054688 169.666992188 190.998046875 245 c 0
 188.998046875 265.666992188 187.998046875 291.333984375 187.998046875 322.000976562 c 0
 187.998046875 352.66796875 189.998046875 391.000976562 193.998046875 437.000976562 c 0
 200.665039062 516.333984375 213.998046875 581.666992188 233.998046875 633 c 0
 242.665039062 656.333007812 254.33203125 679 268.999023438 701 c 0
 283.666015625 723 300.999023438 743.666992188 320.999023438 763 c 0
 340.33203125 781.666992188 361.999023438 797 385.999023438 809 c 0
 409.3671875 820.368164062 432.435546875 826.052734375 455.205078125 826.052734375 c 0
 456.470703125 826.052734375 457.735351562 826.03515625 458.999023438 826 c 0
 477.666015625 826 491.666015625 820.333007812 500.999023438 809 c 0
 508.33203125 800.333007812 511.999023438 788.333007812 511.999023438 773 c 0
 511.999023438 755 506.33203125 741.666992188 494.999023438 733 c 0
 484.33203125 725 471.665039062 721 456.998046875 721 c 0
 442.331054688 721 428.331054688 716.333007812 414.998046875 707 c 0
 401.665039062 698.333007812 389.665039062 686 378.998046875 670 c 0
 357.665039062 638 341.665039062 598 330.998046875 550 c 0
 322.331054688 514.666992188 316.331054688 467.666992188 312.998046875 409 c 0
 311.498046875 386 310.748046875 364.875976562 310.748046875 345.626953125 c 0
 310.748046875 339.208984375 310.831054688 333.000976562 310.998046875 327 c 0
 310.998046875 303 311.665039062 281.666992188 312.998046875 263 c 0
 316.331054688 223.666992188 323.331054688 185 333.998046875 147 c 0
 344.665039062 109 357.33203125 77 371.999023438 51 c 0
 385.999023438 24.3330078125 400.999023438 3 416.999023438 -13 c 0
 431.666015625 -27.6669921875 445.333007812 -35 458 -35 c 0
 474 -35 487 -39.3330078125 497 -48 c 0
 506.333007812 -56.6669921875 511 -71.6669921875 511 -93 c 0
EndSplineSet
Validated: 524289
EndChar

StartChar: parenright
Encoding: 41 41 9
Width: 700
GlyphClass: 2
Flags: W
HStem: -144 109<203.412 281.234> 721.001 105.1<205.501 295.734>
VStem: 389.251 122.748<154.284 545.5>
LayerCount: 2
Fore
SplineSet
242 -144 m 0
 229.333007812 -144 217.333984375 -138.999023438 206.000976562 -128.999023438 c 0
 194.66796875 -119.666015625 189.000976562 -107.666015625 189.000976562 -92.9990234375 c 0
 189.000976562 -71.666015625 193.66796875 -56.666015625 203.000976562 -47.9990234375 c 0
 211.711914062 -39.2880859375 223.616210938 -34.93359375 238.71484375 -34.93359375 c 0
 239.793945312 -34.93359375 240.889648438 -34.955078125 242.000976562 -35 c 0
 254.000976562 -35 267.333984375 -27.6669921875 282.000976562 -13 c 0
 298.66796875 3 314.000976562 24.3330078125 328.000976562 51 c 0
 342.000976562 77.6669921875 354.66796875 109.666992188 366.000976562 147 c 0
 376.66796875 185 383.66796875 223.666992188 387.000976562 263 c 0
 388.500976562 278 389.250976562 294.124023438 389.250976562 311.373046875 c 0
 389.250976562 317.124023438 389.16796875 322.999023438 389.000976562 329 c 0
 389.000976562 352.333007812 388.333984375 379 387.000976562 409 c 0
 383.66796875 467.666992188 377.66796875 514.666992188 369.000976562 550 c 0
 358.333984375 597.333007812 342.333984375 637.333007812 321.000976562 670 c 0
 311.000976562 686 299.000976562 698.333007812 285.000976562 707 c 0
 271.66796875 715.666992188 257.66796875 720.333984375 243.000976562 721.000976562 c 0
 228.333984375 721.000976562 215.666992188 725.000976562 205 733.000976562 c 0
 193.666992188 741.66796875 188 755.000976562 188 773.000976562 c 0
 188 783.000976562 189.666992188 792.000976562 193 800.000976562 c 0
 196.333007812 807.333984375 201.333007812 813.333984375 208 818.000976562 c 0
 216.399414062 823.400390625 226.149414062 826.100585938 237.249023438 826.100585938 c 0
 238.482421875 826.100585938 239.733398438 826.067382812 241 826.000976562 c 0
 265.666992188 826.000976562 290 820.333984375 314 809.000976562 c 0
 338 797.000976562 359.666992188 781.66796875 379 763.000976562 c 0
 398.333007812 744.333984375 415.333007812 723.666992188 430 701 c 0
 444.666992188 679 456.666992188 656.333007812 466 633 c 0
 485.333007812 581.666992188 498.666015625 516.333984375 505.999023438 437.000976562 c 0
 509.999023438 391.000976562 511.999023438 352.66796875 511.999023438 322.000976562 c 0
 511.999023438 291.333984375 510.999023438 265.666992188 508.999023438 245 c 0
 501.666015625 169.666992188 486.333007812 103 463 45 c 0
 439.666992188 -13 408.666992188 -59 370 -93 c 0
 332.666992188 -127 290 -144 242 -144 c 0
EndSplineSet
Validated: 524289
EndChar

StartChar: asterisk
Encoding: 42 42 10
Width: 700
GlyphClass: 2
Flags: W
HStem: 281.004 127.999<103.531 246.973> 289.002 119.001<444.145 599.84> 294.001 101.002<443 558.872>
LayerCount: 2
Fore
SplineSet
263 102 m 2x20
 252.997070312 102 l 2
 248.330078125 102 242.497070312 102.670898438 235.497070312 104.00390625 c 0
 228.497070312 105.336914062 221.6640625 108 214.997070312 112 c 0
 208.330078125 116 202.330078125 122.00390625 196.997070312 130.00390625 c 0
 191.6640625 138.00390625 187.997070312 147.336914062 185.997070312 158.00390625 c 2
 185.997070312 165.00390625 l 2
 185.997070312 175.00390625 188.6640625 185.333984375 193.997070312 196.000976562 c 2
 248.997070312 285.00390625 l 1
 205.6640625 282.336914062 172.6640625 281.00390625 149.997070312 281.00390625 c 0
 129.997070312 281.00390625 114.330078125 287.670898438 102.997070312 301.00390625 c 0
 92.9970703125 313.00390625 87.6640625 327.00390625 86.9970703125 343.00390625 c 2
 86.9970703125 346.00390625 l 2
 86.9970703125 359.336914062 90.6640625 372.669921875 97.9970703125 386.002929688 c 0
 102.6640625 394.002929688 109.6640625 400.002929688 118.997070312 404.002929688 c 0
 126.330078125 407.3359375 134.330078125 409.002929688 142.997070312 409.002929688 c 2
 147.997070312 409.002929688 l 2x80
 174.6640625 407.002929688 212.331054688 404.3359375 260.998046875 401.002929688 c 1
 237.665039062 439.669921875 217.998046875 470.002929688 201.998046875 492.002929688 c 0
 192.665039062 507.3359375 187.998046875 522.3359375 187.998046875 537.002929688 c 0
 187.998046875 539.669921875 188.331054688 542.336914062 188.998046875 545.00390625 c 0
 190.998046875 563.670898438 198.998046875 576.670898438 212.998046875 584.00390625 c 0
 221.665039062 589.336914062 231.498046875 592.00390625 242.498046875 592.00390625 c 0
 253.498046875 592.00390625 264.665039062 588.669921875 275.998046875 582.002929688 c 0
 287.331054688 575.3359375 296.331054688 565.669921875 302.998046875 553.002929688 c 0
 309.665039062 539.002929688 325.665039062 507.669921875 350.998046875 459.002929688 c 1
 370.331054688 493.669921875 386.331054688 524.669921875 398.998046875 552.002929688 c 0
 404.998046875 564.669921875 413.331054688 574.169921875 423.998046875 580.502929688 c 0
 434.665039062 586.8359375 444.998046875 590.002929688 454.998046875 590.002929688 c 0
 465.665039062 590.002929688 475.665039062 587.3359375 484.998046875 582.002929688 c 0
 493.665039062 577.3359375 500.665039062 570.502929688 505.998046875 561.502929688 c 0
 511.331054688 552.502929688 513.998046875 542.002929688 513.998046875 530.002929688 c 0
 513.998046875 516.669921875 509.998046875 504.336914062 501.998046875 493.00390625 c 0
 483.998046875 466.336914062 463.998046875 433.669921875 441.998046875 395.002929688 c 1x20
 487.998046875 395.669921875 521.331054688 399.002929688 541.998046875 405.002929688 c 0
 550.665039062 407.002929688 556.33203125 408.002929688 558.999023438 408.002929688 c 0x40
 571.666015625 408.002929688 582.666015625 403.669921875 591.999023438 395.002929688 c 0x20
 605.33203125 382.3359375 612.33203125 368.668945312 612.999023438 354.001953125 c 0
 612.999023438 339.334960938 609.33203125 325.334960938 601.999023438 312.001953125 c 0
 597.33203125 304.001953125 590.999023438 297.668945312 582.999023438 293.001953125 c 0
 576.999023438 290.334960938 570.666015625 289.001953125 563.999023438 289.001953125 c 0x40
 560.666015625 289.001953125 557.333007812 289.334960938 554 290.001953125 c 0
 540.112304688 292.779296875 517.430664062 294.16796875 485.954101562 294.16796875 c 0
 479.654296875 294.16796875 473.00390625 294.112304688 466 294.000976562 c 2
 443 294.000976562 l 1
 500 196.000976562 l 2
 507.333007812 181.333984375 511 168.000976562 511 156.000976562 c 0
 511 153.333984375 510.666992188 150.666992188 510 148 c 0
 508 132 501 120.666992188 489 114 c 0
 479.666992188 108 468 105 454 105 c 0
 443.333007812 105 432.666015625 107.333007812 421.999023438 112 c 0
 408.666015625 118 399.666015625 128 394.999023438 142 c 0
 387.666015625 164 374.333007812 194.666992188 355 234 c 1
 330.333007812 184.666992188 314.666015625 151.666992188 307.999023438 135 c 0
 304.666015625 124.333007812 298.833007812 116.333007812 290.5 111 c 0
 282.166992188 105.666992188 273 102.666992188 263 102 c 2x20
EndSplineSet
Validated: 524289
EndChar

StartChar: plus
Encoding: 43 43 11
Width: 700
GlyphClass: 2
Flags: W
HStem: 346 105.998<162.471 295.999 400.999 539.62>
VStem: 295.999 105<209.378 344.998 452.998 593.588>
LayerCount: 2
Fore
SplineSet
400 347 m 1
 400.999023438 249.999023438 l 2
 400.999023438 230.666015625 396.33203125 216.999023438 386.999023438 208.999023438 c 0
 377.666015625 200.33203125 365.999023438 195.665039062 351.999023438 194.998046875 c 2
 350.999023438 194.998046875 l 2
 334.999023438 194.998046875 322.666015625 198.665039062 313.999023438 205.998046875 c 0
 301.999023438 215.331054688 295.999023438 229.998046875 295.999023438 249.998046875 c 2
 295.999023438 344.998046875 l 1
 206.999023438 343.998046875 l 2
 186.999023438 343.998046875 171.999023438 349.331054688 161.999023438 359.998046875 c 0
 151.33203125 370.665039062 145.999023438 383.665039062 145.999023438 398.998046875 c 2
 145.999023438 401.998046875 l 2
 145.999023438 415.998046875 150.666015625 428.331054688 159.999023438 438.998046875 c 0
 169.999023438 449.665039062 184.33203125 454.998046875 202.999023438 454.998046875 c 0
 204.33203125 454.998046875 214.999023438 454.665039062 234.999023438 453.998046875 c 0
 254.999023438 453.331054688 275.33203125 452.998046875 295.999023438 452.998046875 c 1
 295.999023438 492.331054688 294.999023438 525.6640625 292.999023438 552.997070312 c 0
 292.999023438 571.6640625 299.33203125 585.331054688 311.999023438 593.998046875 c 0
 321.33203125 600.665039062 333.33203125 603.998046875 347.999023438 603.998046875 c 2
 351.999023438 603.998046875 l 2
 365.999023438 603.998046875 377.999023438 600.665039062 387.999023438 593.998046875 c 0
 399.33203125 585.998046875 404.999023438 572.998046875 404.999023438 554.998046875 c 2
 404.999023438 548.998046875 l 2
 402.999023438 514.998046875 401.666015625 482.665039062 400.999023438 451.998046875 c 1
 498.999023438 451.998046875 l 2
 518.33203125 451.998046875 531.999023438 447.331054688 539.999023438 437.998046875 c 0
 547.999023438 428.665039062 552.666015625 416.998046875 553.999023438 402.998046875 c 2
 553.999023438 401.998046875 l 2
 553.999023438 394.665039062 553.33203125 388.33203125 551.999023438 382.999023438 c 0
 550.666015625 376.999023438 547.999023438 370.999023438 543.999023438 364.999023438 c 0
 539.33203125 357.666015625 532.999023438 352.333007812 524.999023438 349 c 0
 518.999023438 347 512.33203125 346 504.999023438 346 c 2
 497.999023438 346 l 2
 487.999023438 347.333007812 473.666015625 348 454.999023438 348 c 0
 435.666015625 348 417.333007812 347.666992188 400 347 c 1
EndSplineSet
Validated: 524289
EndChar

StartChar: comma
Encoding: 44 44 12
Width: 700
GlyphClass: 2
Flags: W
VStem: 235.003 229.999
LayerCount: 2
Fore
SplineSet
321 -223 m 0
 310.333007812 -227 301.001953125 -228.999023438 293.001953125 -228.999023438 c 0
 285.001953125 -228.999023438 278.001953125 -227.666015625 272.001953125 -224.999023438 c 0
 263.334960938 -222.33203125 255.334960938 -217.33203125 248.001953125 -209.999023438 c 0
 240.668945312 -202.666015625 236.3359375 -193.333007812 235.002929688 -182 c 2
 235.002929688 -176 l 2
 235.002929688 -166 238.3359375 -156 245.002929688 -146 c 0
 258.3359375 -127.333007812 277.002929688 -84.3330078125 301.002929688 -17 c 0
 325.002929688 49 340.002929688 96 346.002929688 124 c 0
 348.669921875 136 354.669921875 145.333007812 364.002929688 152 c 0
 373.3359375 159.333007812 383.668945312 163 395.001953125 163 c 2
 397.001953125 163 l 2
 405.001953125 163 413.334960938 162.333007812 422.001953125 161 c 0
 435.334960938 157 446.334960938 149 455.001953125 137 c 0
 461.668945312 127.666992188 465.001953125 117.333984375 465.001953125 106.000976562 c 0
 465.001953125 101.333984375 464.668945312 97.333984375 464.001953125 94.0009765625 c 0
 457.334960938 61.333984375 442.66796875 10.6669921875 420.000976562 -58 c 0
 397.333984375 -127.333007812 380.000976562 -170.333007812 368.000976562 -187 c 0
 355.333984375 -204.333007812 339.666992188 -216.333007812 321 -223 c 0
EndSplineSet
Validated: 524289
EndChar

StartChar: hyphen
Encoding: 45 45 13
Width: 700
GlyphClass: 2
Flags: W
HStem: 230.001 111.999<201.44 500.172> 239.002 106<363.731 502.621>
LayerCount: 2
Fore
SplineSet
237 342 m 0x80
 275 342 320 342.333984375 372 343.000976562 c 0
 424.666992188 343.66796875 454.666992188 344.334960938 462 345.001953125 c 0
 481.333007812 345.001953125 495 340.334960938 503 331.001953125 c 0
 511 321.668945312 515.666992188 310.001953125 517 296.001953125 c 2
 517 295.001953125 l 2
 517 279.001953125 513.333007812 266.668945312 506 258.001953125 c 0
 496.666992188 246.001953125 482 239.668945312 462 239.001953125 c 0x40
 453.333007812 239.001953125 419.666015625 237.668945312 360.999023438 235.001953125 c 0
 302.33203125 232.334960938 261.33203125 230.66796875 237.999023438 230.000976562 c 0
 222.666015625 230.000976562 210.333007812 234.000976562 201 242.000976562 c 0
 189 251.333984375 183 265.666992188 183 285 c 2
 183 290 l 2
 183 308.666992188 189 322.666992188 201 332 c 0
 209.666992188 338.666992188 221.666992188 342 237 342 c 0x80
EndSplineSet
Validated: 524289
EndChar

StartChar: period
Encoding: 46 46 14
Width: 700
GlyphClass: 2
Flags: W
HStem: -26 178.037<291.663 409.871>
VStem: 256.001 187.036<6.96988 117.608>
LayerCount: 2
Fore
SplineSet
342 -26 m 2
 318.666992188 -26 299.000976562 -18 283.000976562 -2 c 0
 265.000976562 16.6669921875 256.000976562 38.333984375 256.000976562 63.0009765625 c 0
 256.000976562 87.66796875 266.000976562 108.66796875 286.000976562 126.000976562 c 0
 305.9296875 143.357421875 328.02734375 152.037109375 352.294921875 152.037109375 c 0
 353.193359375 152.037109375 354.095703125 152.024414062 355.000976562 152.000976562 c 0
 380.333984375 152.000976562 401.333984375 144.000976562 418.000976562 128.000976562 c 0
 434.69140625 111.310546875 443.037109375 91.5283203125 443.037109375 68.6552734375 c 0
 443.037109375 55.5234375 442.401367188 28.376953125 419 4 c 0
 402.333007812 -12.6669921875 380.333007812 -22.6669921875 353 -26 c 2
 342 -26 l 2
EndSplineSet
Validated: 524289
EndChar

StartChar: slash
Encoding: 47 47 15
Width: 700
GlyphClass: 2
Flags: W
HStem: 746.004 20G<542.667 553.333>
LayerCount: 2
Fore
SplineSet
166 -67 m 0
 156.666992188 -71.6669921875 147.33203125 -73.9970703125 137.999023438 -73.9970703125 c 0
 128.666015625 -73.9970703125 119.999023438 -71.330078125 111.999023438 -65.9970703125 c 0
 98.666015625 -57.9970703125 90.666015625 -42.6640625 87.9990234375 -19.9970703125 c 0
 87.33203125 -16.6640625 87.33203125 -12.9970703125 87.9990234375 -8.9970703125 c 0
 87.9990234375 9.0029296875 92.666015625 25.669921875 101.999023438 41.0029296875 c 0
 199.33203125 201.002929688 282.665039062 343.002929688 351.998046875 467.002929688 c 1
 395.331054688 543.002929688 441.331054688 629.669921875 489.998046875 727.002929688 c 0
 496.665039062 739.669921875 505.33203125 749.002929688 515.999023438 755.002929688 c 0
 526.666015625 761.669921875 537.333007812 765.336914062 548 766.00390625 c 0
 558.666992188 766.00390625 569.333984375 763.670898438 580.000976562 759.00390625 c 0
 595.333984375 751.00390625 605.333984375 739.00390625 610.000976562 723.00390625 c 0
 611.333984375 718.336914062 612.000976562 713.669921875 612.000976562 709.002929688 c 0
 612.000976562 697.669921875 608.66796875 685.002929688 602.000976562 671.002929688 c 0
 584.66796875 636.3359375 536.000976562 552.668945312 456.000976562 420.001953125 c 0
 376.000976562 287.334960938 327.333984375 204.66796875 310.000976562 172.000976562 c 0
 299.333984375 151.333984375 282.000976562 116.333984375 258.000976562 67.0009765625 c 0
 234.000976562 17.66796875 219.000976562 -12.33203125 213.000976562 -22.9990234375 c 0
 200.333984375 -43.666015625 184.666992188 -58.3330078125 166 -67 c 0
EndSplineSet
Validated: 524289
EndChar

StartChar: zero
Encoding: 48 48 16
Width: 700
GlyphClass: 2
Flags: W
HStem: -24.001 107.996<260.582 420.455> 611.995 106.005<276.514 427.24>
VStem: 91.001 121<228.996 530.163> 489.001 115.999<165.933 399.325 400.71 457.995>
LayerCount: 2
Fore
SplineSet
489.000976562 457.995117188 m 1
 416.333984375 330.662109375 332.668945312 221.995117188 238.001953125 131.995117188 c 1
 256.001953125 100.662109375 285.333984375 84.662109375 326.000976562 83.9951171875 c 0
 345.333984375 83.9951171875 362.001953125 85.4951171875 376.001953125 88.4951171875 c 0
 390.001953125 91.4951171875 403.334960938 96.328125 416.001953125 102.995117188 c 0
 441.334960938 116.328125 460.66796875 143.328125 474.000976562 183.995117188 c 0
 476.66796875 191.995117188 479.66796875 213.495117188 483.000976562 248.495117188 c 0
 486.333984375 283.495117188 488.666992188 323.995117188 490 369.995117188 c 0
 490.22265625 380 490.333984375 389.930664062 490.333984375 399.787109375 c 0
 490.333984375 419.486328125 489.889648438 438.888671875 489.000976562 457.995117188 c 1
411.001953125 599.997070312 m 0
 393.668945312 607.997070312 374.66796875 611.995117188 354.000976562 611.995117188 c 0
 317.333984375 611.995117188 288.833984375 602.828125 268.500976562 584.495117188 c 0
 248.16796875 566.162109375 232.334960938 534.995117188 221.001953125 490.995117188 c 0
 216.334960938 473.662109375 213.001953125 455.329101562 211.001953125 435.99609375 c 0
 209.668945312 415.99609375 209.001953125 393.329101562 209.001953125 367.99609375 c 0
 209.001953125 327.99609375 210.000976562 281.663085938 212.000976562 228.99609375 c 1
 298.66796875 339.663085938 378.001953125 453.330078125 450.001953125 569.997070312 c 1
 438.668945312 582.6640625 425.668945312 592.6640625 411.001953125 599.997070312 c 0
605 490.995117188 m 2
 605 489.998046875 l 2
 608.333007812 450.665039062 610.001953125 410.662109375 610.001953125 369.995117188 c 0
 610.001953125 329.328125 608.668945312 289.331054688 606.001953125 249.998046875 c 0
 603.334960938 210.665039062 599.001953125 179.665039062 593.001953125 156.998046875 c 0
 581.001953125 114.331054688 566.001953125 79.6640625 548.001953125 52.9970703125 c 0
 538.668945312 39.6640625 528.168945312 28.3310546875 516.501953125 18.998046875 c 0
 504.834960938 9.6650390625 492.66796875 2.33203125 480.000976562 -3.0009765625 c 0
 466.66796875 -8.333984375 451.66796875 -13.0009765625 435.000976562 -17.0009765625 c 0
 417.66796875 -20.333984375 400.66796875 -22.333984375 384.000976562 -23.0009765625 c 0
 367.333984375 -23.66796875 348.000976562 -24.0009765625 326.000976562 -24.0009765625 c 0
 290.000976562 -24.0009765625 256.66796875 -18.333984375 226.000976562 -7.0009765625 c 0
 197.333984375 4.33203125 173.000976562 20.4990234375 153.000976562 41.4990234375 c 0
 133.000976562 62.4990234375 117.66796875 87.666015625 107.000976562 116.999023438 c 0
 96.333984375 146.33203125 91.0009765625 177.999023438 91.0009765625 211.999023438 c 2
 91.0009765625 217.999023438 l 2
 91.0009765625 250.666015625 90.66796875 281.333007812 90.0009765625 310 c 0
 90.0009765625 330.666992188 90.5009765625 356 91.5009765625 386 c 0
 92.5009765625 416 94.16796875 440.833007812 96.5009765625 460.5 c 0
 98.833984375 480.166992188 102.333984375 501.333984375 107.000976562 524.000976562 c 0
 111.66796875 547.333984375 117.66796875 567.666992188 125.000976562 585 c 0
 142.333984375 628.333007812 171.333984375 661.333007812 212.000976562 684 c 0
 256.000976562 706.666992188 309.333984375 718 372.000976562 718 c 0
 403.333984375 718 432.666992188 713.333007812 460 704 c 0
 486.666992188 694.666992188 510.166992188 680.666992188 530.5 662 c 0
 550.833007812 643.333007812 567.5 619.5 580.5 590.5 c 0
 593.5 561.5 601.666992188 528.328125 605 490.995117188 c 2
EndSplineSet
Validated: 524289
EndChar

StartChar: one
Encoding: 49 49 17
Width: 700
GlyphClass: 2
Flags: W
HStem: -9.00098 110.501<139.324 286.996 418 601.559> -5.00098 114.001<95.437 286.996 418 486.522>
VStem: 286.996 131.004<107 552.809> 297.997 123.003<266.377 552.809>
LayerCount: 2
Fore
SplineSet
618 49.9990234375 m 1xa0
 618 46.9990234375 l 2
 618 31.666015625 613.330078125 18.666015625 603.997070312 7.9990234375 c 0
 593.997070312 -3.333984375 576.997070312 -9.0009765625 552.997070312 -9.0009765625 c 0xa0
 300.330078125 -7.0009765625 161.663085938 -5.66796875 136.99609375 -5.0009765625 c 0
 118.329101562 -5.0009765625 104.329101562 0.33203125 94.99609375 10.9990234375 c 0
 86.3291015625 21.666015625 81.99609375 34.666015625 81.99609375 49.9990234375 c 2
 81.99609375 52.9990234375 l 2
 81.99609375 67.666015625 85.99609375 80.3330078125 93.99609375 91 c 0
 103.329101562 103 117.99609375 109 137.99609375 109 c 0
 165.99609375 109 215.663085938 108.333007812 286.99609375 107 c 1x60
 286.99609375 127 286.663085938 143.666992188 285.99609375 157 c 0
 285.329101562 163 284.99609375 180.333007812 284.99609375 209 c 0
 284.99609375 234.333007812 285.329101562 255 285.99609375 271 c 0
 285.99609375 289 287.329101562 325 289.99609375 379 c 0
 294.663085938 480.333007812 297.330078125 539.333007812 297.997070312 556 c 1
 254.6640625 526 221.6640625 507 198.997070312 499 c 0
 190.997070312 497 185.6640625 496 182.997070312 496 c 0
 170.997070312 496 158.997070312 501 146.997070312 511 c 0
 130.997070312 524.333007812 122.997070312 538 122.997070312 552 c 0
 122.997070312 565.333007812 125.997070312 576.833007812 131.997070312 586.5 c 0
 137.997070312 596.166992188 147.6640625 606 160.997070312 616 c 0
 179.6640625 630 204.331054688 648.666992188 234.998046875 672 c 1
 247.665039062 674 260.33203125 683 272.999023438 699 c 0
 284.33203125 707 295.999023438 714.333007812 307.999023438 721 c 0
 318.907226562 727.060546875 329.265625 730.090820312 339.072265625 730.090820312 c 0
 340.053710938 730.090820312 341.029296875 730.060546875 341.999023438 730 c 0
 360.666015625 730 379.333007812 723.333007812 398 710 c 0
 408 702.666992188 415.5 696 420.5 690 c 0
 425.5 684 428 678 428 672 c 2
 428 671 l 2
 427.333007812 655.666992188 425 603.166992188 421 513.5 c 0x50
 417 423.833007812 415 371.333007812 415 356 c 0
 415 292 415.333007812 238.666992188 416 196 c 0
 416 174 416.666992188 143 418 103 c 1
 454 102.333007812 477 102 487 102 c 0
 496.333007812 102 508.833007812 101.833007812 524.5 101.5 c 0
 540.166992188 101.166992188 550.333984375 101 555.000976562 101 c 0
 577.000976562 101 592.66796875 96.1669921875 602.000976562 86.5 c 0
 611.333984375 76.8330078125 616.666992188 65 618 51 c 2
 618 49.9990234375 l 1xa0
EndSplineSet
Validated: 524289
EndChar

StartChar: two
Encoding: 50 50 18
Width: 700
GlyphClass: 2
Flags: W
HStem: -18.0029 108.432<218.593 532.109> -12.0029 113.999<535.313 592.625> 506.999 21G<166.668 171.668> 612.998 109.001<278.89 442.111>
VStem: 467.002 126<456.851 587.935>
LayerCount: 2
Fore
SplineSet
535 101 m 1xb8
 541.666992188 109.666992188 548.669921875 109.99609375 556.002929688 101.99609375 c 0
 558.002929688 101.99609375 561.8359375 101.829101562 567.502929688 101.49609375 c 0
 573.169921875 101.163085938 577.669921875 100.163085938 581.002929688 98.49609375 c 0
 584.3359375 96.8291015625 587.668945312 94.99609375 591.001953125 92.99609375 c 0
 596.334960938 89.6630859375 600.001953125 85.6630859375 602.001953125 80.99609375 c 0
 606.001953125 72.99609375 608.001953125 63.6630859375 608.001953125 52.99609375 c 0
 608.001953125 33.6630859375 603.001953125 17.330078125 593.001953125 3.9970703125 c 0
 585.001953125 -6.669921875 574.668945312 -12.0029296875 562.001953125 -12.0029296875 c 0x78
 514.668945312 -12.0029296875 438.668945312 -14.0029296875 334.001953125 -18.0029296875 c 0
 298.668945312 -19.3359375 262.3359375 -20.0029296875 225.002929688 -20.0029296875 c 0
 190.3359375 -20.0029296875 163.3359375 -18.669921875 144.002929688 -16.0029296875 c 0
 133.3359375 -14.669921875 124.002929688 -10.3369140625 116.002929688 -3.00390625 c 0
 110.002929688 2.3291015625 105.3359375 9.3291015625 102.002929688 17.99609375 c 0
 95.3359375 35.3291015625 92.0029296875 59.3291015625 92.0029296875 89.99609375 c 0
 92.0029296875 120.663085938 98.3359375 151.663085938 111.002929688 182.99609375 c 0
 123.669921875 214.329101562 142.669921875 244.49609375 168.002929688 273.49609375 c 0
 193.3359375 302.49609375 223.668945312 325.99609375 259.001953125 343.99609375 c 0
 337.001953125 381.99609375 387.001953125 408.663085938 409.001953125 423.99609375 c 0
 435.668945312 442.663085938 453.001953125 462.330078125 461.001953125 482.997070312 c 0
 465.001953125 495.6640625 467.001953125 511.331054688 467.001953125 529.998046875 c 0
 467.001953125 559.331054688 458.001953125 580.331054688 440.001953125 592.998046875 c 0
 420.668945312 606.331054688 391.668945312 612.998046875 353.001953125 612.998046875 c 0
 327.001953125 612.998046875 302.168945312 605.665039062 278.501953125 590.998046875 c 0
 254.834960938 576.331054688 236.334960938 559.998046875 223.001953125 541.998046875 c 0
 216.334960938 532.665039062 209.334960938 524.83203125 202.001953125 518.499023438 c 0
 194.668945312 512.166015625 187.001953125 508.666015625 179.001953125 507.999023438 c 0
 176.334960938 507.999023438 173.334960938 507.666015625 170.001953125 506.999023438 c 0
 163.334960938 506.999023438 152.334960938 510.33203125 137.001953125 516.999023438 c 0
 122.334960938 524.999023438 113.001953125 536.33203125 109.001953125 550.999023438 c 0
 108.334960938 554.999023438 108.001953125 558.666015625 108.001953125 561.999023438 c 0
 108.001953125 573.33203125 111.668945312 586.999023438 119.001953125 602.999023438 c 0
 126.334960938 616.999023438 137.001953125 630.83203125 151.001953125 644.499023438 c 0
 165.001953125 658.166015625 181.001953125 670.999023438 199.001953125 682.999023438 c 0
 218.334960938 694.999023438 241.334960938 704.499023438 268.001953125 711.499023438 c 0
 294.668945312 718.499023438 321.668945312 721.999023438 349.001953125 721.999023438 c 0
 431.001953125 721.999023438 492.334960938 704.999023438 533.001953125 670.999023438 c 0
 573.001953125 636.999023438 593.001953125 585.999023438 593.001953125 517.999023438 c 0
 593.001953125 461.999023438 578.001953125 416.666015625 548.001953125 381.999023438 c 0
 526.001953125 357.33203125 486.001953125 330.33203125 428.001953125 300.999023438 c 0
 413.334960938 293.666015625 388.001953125 281.666015625 352.001953125 264.999023438 c 0
 322.001953125 250.999023438 297.001953125 233.83203125 277.001953125 213.499023438 c 0
 257.001953125 193.166015625 242.334960938 172.333007812 233.001953125 151 c 0
 225.668945312 133 220.668945312 113.666992188 218.001953125 93 c 1
 251.71875 91.28515625 283.965820312 90.4287109375 314.743164062 90.4287109375 c 0
 319.870117188 90.4287109375 324.956054688 90.4521484375 330.000976562 90.5 c 0
 365.333984375 90.8330078125 392.666992188 91.3330078125 412 92 c 0
 432 93.3330078125 473 96.3330078125 535 101 c 1xb8
EndSplineSet
Validated: 524289
EndChar

StartChar: three
Encoding: 51 51 19
Width: 700
GlyphClass: 2
Flags: W
HStem: -24.0166 108.017<267.007 427.042> 306 125<229.22 393.449> 520.002 21G<169.001 176.334> 613.001 109.001<262.346 426.71>
VStem: 453.002 126.997<479.219 589.309> 478 124<130.061 255.137>
LayerCount: 2
Fore
SplineSet
591 279.5 m 0xf8
 598.333007812 257.833007812 602 232.330078125 602 202.997070312 c 0
 602 133.6640625 579.666992188 78.3310546875 535 36.998046875 c 0
 489.73046875 -3.6787109375 424.768554688 -24.0166015625 340.11328125 -24.0166015625 c 0
 338.747070312 -24.0166015625 337.375976562 -24.01171875 336 -24.0009765625 c 0
 308.666992188 -24.0009765625 281.666992188 -20.333984375 255 -13.0009765625 c 0
 228.333007812 -5.66796875 205.833007812 3.6650390625 187.5 14.998046875 c 0
 169.166992188 26.3310546875 153 38.998046875 139 52.998046875 c 0
 125 66.998046875 114.5 80.8310546875 107.5 94.498046875 c 0
 100.5 108.165039062 97 120.998046875 97 132.998046875 c 0
 97 136.998046875 97.6669921875 140.998046875 99 144.998046875 c 0
 102.333007812 161.665039062 111.333007812 173.33203125 126 179.999023438 c 0
 136.666992188 185.33203125 146.666992188 187.999023438 156 187.999023438 c 0
 176 187.999023438 194 177.33203125 210 155.999023438 c 0
 224.666992188 136.666015625 243.666992188 119.833007812 267 105.5 c 0
 290.333007812 91.1669921875 315 84 341 84 c 0
 381.666992188 84 414.666992188 93.8330078125 440 113.5 c 0
 465.333007812 133.166992188 478 158 478 188 c 0xf4
 478 207.333007812 474.666992188 223.833007812 468 237.5 c 0
 461.333007812 251.166992188 450.833007812 263.166992188 436.5 273.5 c 0
 422.166992188 283.833007812 401.833984375 291.833007812 375.500976562 297.5 c 0
 349.16796875 303.166992188 317.000976562 306 279.000976562 306 c 0
 259.66796875 306 243.66796875 312.666992188 231.000976562 326 c 0
 217.66796875 339.333007812 211.000976562 354.333007812 211.000976562 371 c 0
 211.000976562 387.666992188 215.66796875 401.666992188 225.000976562 413 c 0
 235.66796875 425 251.000976562 431 271.000976562 431 c 0
 329.66796875 431 375.334960938 440.666992188 408.001953125 460 c 0
 438.001953125 478 453.001953125 504 453.001953125 538 c 2
 453.001953125 541 l 1
 453.001953125 545 l 2
 453.001953125 567.666992188 443.668945312 584.333984375 425.001953125 595.000976562 c 0
 403.001953125 607.000976562 371.001953125 613.000976562 329.001953125 613.000976562 c 0
 316.334960938 613.000976562 302.66796875 611.000976562 288.000976562 607.000976562 c 0
 284.000976562 605.66796875 279.333984375 603.16796875 274.000976562 599.500976562 c 0
 268.66796875 595.833984375 264.500976562 592.833984375 261.500976562 590.500976562 c 0
 258.500976562 588.16796875 254.500976562 584.334960938 249.500976562 579.001953125 c 0
 244.500976562 573.668945312 241.000976562 569.668945312 239.000976562 567.001953125 c 0
 235.000976562 554.334960938 231.333984375 549.66796875 228.000976562 553.000976562 c 1
 214.66796875 535.66796875 201.000976562 525.334960938 187.000976562 522.001953125 c 0
 183.000976562 520.668945312 178.66796875 520.001953125 174.000976562 520.001953125 c 0
 164.000976562 520.001953125 153.66796875 523.001953125 143.000976562 529.001953125 c 0
 128.333984375 536.334960938 119.333984375 548.001953125 116.000976562 564.001953125 c 0
 115.333984375 568.001953125 115.000976562 572.001953125 115.000976562 576.001953125 c 0
 115.000976562 588.001953125 118.333984375 601.001953125 125.000976562 615.001953125 c 0
 139.000976562 643.668945312 160.66796875 668.001953125 190.000976562 688.001953125 c 0
 205.333984375 698.668945312 224.666992188 707.001953125 248 713.001953125 c 0
 271.333007812 719.001953125 296.666015625 722.001953125 323.999023438 722.001953125 c 0
 411.999023438 722.001953125 476.999023438 705.668945312 518.999023438 673.001953125 c 0
 559.666015625 640.334960938 579.999023438 592.66796875 579.999023438 530.000976562 c 2
 579.999023438 526.000976562 l 1
 579.999023438 523.000976562 l 2
 579.999023438 504.333984375 577.166015625 486.833984375 571.499023438 470.500976562 c 0
 565.83203125 454.16796875 558.165039062 440.334960938 548.498046875 429.001953125 c 0
 538.831054688 417.668945312 527.331054688 407.668945312 513.998046875 399.001953125 c 0
 500.665039062 390.334960938 486.998046875 383.66796875 472.998046875 379.000976562 c 1
 483.665039062 375.66796875 493.33203125 372.334960938 501.999023438 369.001953125 c 0
 522.666015625 360.334960938 540.833007812 348.66796875 556.5 334.000976562 c 0
 572.166992188 319.333984375 583.666992188 301.166992188 591 279.5 c 0xf8
EndSplineSet
Validated: 524289
EndChar

StartChar: four
Encoding: 52 52 20
Width: 700
GlyphClass: 2
Flags: W
HStem: -23 21G<477.999 493.333> 218.999 90.001<220.215 421.998 523 591.168>
VStem: 415 98.999<456.567 587.448> 420.998 102.002<37.313 218 309 587.448> 421.998 109.002<-7.4969 213.685>
LayerCount: 2
Fore
SplineSet
529 59 m 0xd0
 530.333007812 51 531 43.6669921875 531 37 c 0xc8
 531 23.6669921875 528.333007812 12 523 2 c 0xd0
 514.333007812 -14.6669921875 501.666015625 -23 484.999023438 -23 c 0
 470.999023438 -23 457.166015625 -17.8330078125 443.499023438 -7.5 c 0
 429.83203125 2.8330078125 422.665039062 13.666015625 421.998046875 24.9990234375 c 0xc8
 421.331054688 32.9990234375 420.998046875 45.666015625 420.998046875 62.9990234375 c 2
 420.998046875 138.999023438 l 2xd0
 420.998046875 166.33203125 421.331054688 192.999023438 421.998046875 218.999023438 c 1xc8
 376.998046875 218.999023438 l 2
 278.331054688 218.999023438 208.6640625 214.666015625 167.997070312 205.999023438 c 0
 163.330078125 204.666015625 158.330078125 204.166015625 152.997070312 204.499023438 c 0
 147.6640625 204.83203125 142.331054688 205.665039062 136.998046875 206.998046875 c 0
 127.665039062 210.331054688 120.165039062 215.498046875 114.498046875 222.498046875 c 0
 108.831054688 229.498046875 104.498046875 237.498046875 101.498046875 246.498046875 c 0
 98.498046875 255.498046875 96.998046875 264.665039062 96.998046875 273.998046875 c 0
 96.998046875 284.665039062 98.6650390625 294.665039062 101.998046875 303.998046875 c 0
 108.665039062 323.331054688 126.665039062 353.831054688 155.998046875 395.498046875 c 0
 185.331054688 437.165039062 223.998046875 488.998046875 271.998046875 550.998046875 c 0
 314.665039062 605.665039062 348.665039062 650.33203125 373.998046875 684.999023438 c 0
 383.331054688 697.666015625 393.998046875 707.499023438 405.998046875 714.499023438 c 0
 417.998046875 721.499023438 429.665039062 724.999023438 440.998046875 724.999023438 c 2
 447.998046875 724.999023438 l 2
 459.998046875 724.999023438 470.998046875 722.666015625 480.998046875 717.999023438 c 0
 493.665039062 711.33203125 501.33203125 699.999023438 503.999023438 683.999023438 c 2
 503.999023438 682.999023438 l 1
 507.999023438 659.666015625 511.33203125 624.166015625 513.999023438 576.499023438 c 0xe0
 516.666015625 528.83203125 518.333007812 488.33203125 519 454.999023438 c 0
 519.666992188 405.666015625 520.666992188 356.666015625 522 307.999023438 c 1
 532 307.33203125 543 306.999023438 555 306.999023438 c 0
 572.333007812 306.999023438 584.5 303.166015625 591.5 295.499023438 c 0
 598.5 287.83203125 602.333007812 277.999023438 603 265.999023438 c 2
 603 265 l 2
 603 251 599.666992188 240 593 232 c 0
 585 222 572.333007812 217 555 217 c 0
 543.666992188 217 533 217.333007812 523 218 c 1
 524.333007812 125.333007812 526.333007812 72.3330078125 529 59 c 0xd0
354 309 m 2
 421.998046875 309 l 1xc8
 421.998046875 424.333007812 419.666992188 517.666015625 415 588.999023438 c 1xe0
 320.333007812 469.666015625 255 375.333007812 219 306 c 1
 256.333007812 308 301.333007812 309 354 309 c 2
EndSplineSet
Validated: 524289
EndChar

StartChar: five
Encoding: 53 53 21
Width: 700
GlyphClass: 2
Flags: W
HStem: -18.002 109.001<244.264 406.338> 407.998 113.043<280.815 450.174> 594.995 112.998<326.102 586.618> 605.995 103.998<219.999 549.386>
VStem: 98 118.999<466.431 602.995> 487.997 124.002<181.147 368.764>
LayerCount: 2
Fore
SplineSet
103 561 m 0xdc
 104.333007812 581.666992188 104.994140625 596.993164062 104.994140625 606.993164062 c 1
 98.2724609375 617.9921875 94.912109375 630.672851562 94.912109375 645.033203125 c 0
 94.912109375 658.096679688 95.4404296875 681.393554688 114.995117188 698.993164062 c 0
 124.328125 707.66015625 134.995117188 711.993164062 146.995117188 711.993164062 c 0
 171.662109375 711.993164062 233.662109375 711.326171875 332.995117188 709.993164062 c 0xdc
 433.662109375 708.66015625 507.995117188 707.993164062 555.995117188 707.993164062 c 0
 568.662109375 707.993164062 578.995117188 702.66015625 586.995117188 691.993164062 c 0
 596.995117188 678.66015625 601.995117188 662.327148438 601.995117188 642.994140625 c 0
 601.995117188 622.994140625 596.328125 609.661132812 584.995117188 602.994140625 c 0
 581.662109375 600.994140625 578.329101562 599.327148438 574.99609375 597.994140625 c 0
 571.663085938 596.661132812 567.163085938 595.828125 561.49609375 595.495117188 c 0
 555.829101562 595.162109375 551.829101562 594.995117188 549.49609375 594.995117188 c 0xec
 547.163085938 594.995117188 543.49609375 595.162109375 538.49609375 595.495117188 c 0
 533.49609375 595.828125 530.329101562 595.995117188 528.99609375 595.995117188 c 1
 519.663085938 595.995117188 502.330078125 597.328125 476.997070312 599.995117188 c 0
 450.330078125 601.995117188 426.830078125 603.495117188 406.497070312 604.495117188 c 0
 386.1640625 605.495117188 358.831054688 605.995117188 324.498046875 605.995117188 c 0
 290.165039062 605.995117188 255.33203125 604.995117188 219.999023438 602.995117188 c 1
 217.865234375 562.998046875 216.798828125 535.798828125 216.798828125 521.3984375 c 0
 216.798828125 517.796875 216.865234375 514.99609375 216.999023438 512.995117188 c 0
 216.999023438 500.995117188 216.83203125 492.495117188 216.499023438 487.495117188 c 0
 216.166015625 482.495117188 216.333007812 475.328125 217 465.995117188 c 1
 235 479.328125 256.666992188 490.995117188 282 500.995117188 c 0
 317 514.358398438 356.250976562 521.041015625 399.75390625 521.041015625 c 0
 401.826171875 521.041015625 403.908203125 521.025390625 406 520.995117188 c 0
 440.666992188 520.995117188 471.666992188 515.328125 499 503.995117188 c 0
 524.333007812 492.662109375 545.166015625 476.829101562 561.499023438 456.49609375 c 0
 577.83203125 436.163085938 590.33203125 412.830078125 598.999023438 386.497070312 c 0
 607.666015625 360.1640625 611.999023438 331.6640625 611.999023438 300.997070312 c 0
 611.999023438 251.6640625 605.666015625 206.831054688 592.999023438 166.498046875 c 0
 580.33203125 126.165039062 562.165039062 92.498046875 538.498046875 65.498046875 c 0
 514.831054688 38.498046875 485.331054688 17.998046875 449.998046875 3.998046875 c 0
 413.998046875 -10.6689453125 374.998046875 -18.001953125 332.998046875 -18.001953125 c 0
 299.665039062 -18.001953125 268.665039062 -14.6689453125 239.998046875 -8.001953125 c 0
 211.998046875 -1.3349609375 189.331054688 7.33203125 171.998046875 17.9990234375 c 0
 154.665039062 28.666015625 139.998046875 40.3330078125 127.998046875 53 c 0
 115.998046875 65.6669921875 105.998046875 79 97.998046875 93 c 0
 90.6650390625 109 86.998046875 122.666992188 86.998046875 134 c 0
 86.998046875 138 87.6650390625 142 88.998046875 146 c 0
 92.3310546875 160.666992188 101.6640625 172 116.997070312 180 c 0
 124.997070312 183.333007812 131.497070312 185.666015625 136.497070312 186.999023438 c 0
 141.497070312 188.33203125 145.830078125 188.999023438 149.497070312 188.999023438 c 0
 153.1640625 188.999023438 155.997070312 188.666015625 157.997070312 187.999023438 c 0
 166.6640625 187.33203125 174.6640625 183.665039062 181.997070312 176.998046875 c 0
 187.997070312 171.665039062 194.330078125 164.33203125 200.997070312 154.999023438 c 0
 230.997070312 112.33203125 271.330078125 90.9990234375 321.997070312 90.9990234375 c 0
 372.6640625 90.9990234375 412.6640625 108.33203125 441.997070312 142.999023438 c 0
 472.6640625 178.999023438 487.997070312 227.666015625 487.997070312 288.999023438 c 0
 487.997070312 326.33203125 478.6640625 355.665039062 459.997070312 376.998046875 c 0
 442.6640625 397.665039062 415.331054688 407.998046875 377.998046875 407.998046875 c 0
 360.665039062 407.998046875 342.33203125 405.998046875 322.999023438 401.998046875 c 0
 313.666015625 399.998046875 300.666015625 395.331054688 283.999023438 387.998046875 c 0
 279.999023438 385.998046875 274.83203125 382.665039062 268.499023438 377.998046875 c 0
 262.166015625 373.331054688 257.999023438 369.998046875 255.999023438 367.998046875 c 0
 244.666015625 358.665039062 235.333007812 350.665039062 228 343.998046875 c 0
 212.666992188 331.331054688 195 323.998046875 175 321.998046875 c 2
 168 321.998046875 l 2
 158.666992188 321.998046875 149.666992188 323.998046875 141 327.998046875 c 0
 127 333.998046875 116.333007812 346.665039062 109 365.998046875 c 0
 103 382.665039062 99.3330078125 403.33203125 98 427.999023438 c 0
 97.666015625 433.33203125 97.5 438.666015625 97.5 444 c 0
 97.5 449.333007812 97.666015625 454.666015625 98 460 c 0
 98 483.333007812 99.6669921875 517 103 561 c 0xdc
EndSplineSet
Validated: 524289
EndChar

StartChar: six
Encoding: 54 54 22
Width: 700
GlyphClass: 2
Flags: W
HStem: -22.002 107.997<276.313 417.936> 379.996 114.002<272.446 453.643>
VStem: 85.001 116<167.545 324.488> 492 123.001<163.55 341.372>
LayerCount: 2
Fore
SplineSet
600 361 m 0
 610 329.666992188 615.000976562 293.331054688 615.000976562 251.998046875 c 0
 615.000976562 213.998046875 608.333984375 178.331054688 595.000976562 144.998046875 c 0
 569.000976562 76.998046875 523.66796875 28.3310546875 459.000976562 -1.001953125 c 0
 426.479492188 -15.03125 391.82421875 -22.0458984375 355.033203125 -22.0458984375 c 0
 353.360351562 -22.0458984375 351.682617188 -22.03125 350.000976562 -22.001953125 c 0
 303.333984375 -22.001953125 262.000976562 -14.001953125 226.000976562 1.998046875 c 0
 192.000976562 18.6650390625 164.833984375 41.998046875 144.500976562 71.998046875 c 0
 124.16796875 101.998046875 109.16796875 136.831054688 99.5009765625 176.498046875 c 0
 89.833984375 216.165039062 85.0009765625 259.665039062 85.0009765625 306.998046875 c 0
 85.0009765625 366.998046875 90.833984375 420.498046875 102.500976562 467.498046875 c 0
 114.16796875 514.498046875 129.834960938 553.831054688 149.501953125 585.498046875 c 0
 169.168945312 617.165039062 194.001953125 643.665039062 224.001953125 664.998046875 c 0
 255.334960938 686.998046875 289.334960938 703.665039062 326.001953125 714.998046875 c 0
 362.668945312 726.331054688 403.001953125 733.6640625 447.001953125 736.997070312 c 2
 458.001953125 736.997070312 l 2
 473.334960938 736.997070312 486.66796875 734.330078125 498.000976562 728.997070312 c 0
 513.333984375 721.6640625 522.333984375 709.997070312 525.000976562 693.997070312 c 2
 525.000976562 689.997070312 l 2
 525.000976562 679.997070312 520.000976562 669.6640625 510.000976562 658.997070312 c 0
 499.333984375 648.330078125 487.000976562 640.997070312 473.000976562 636.997070312 c 0
 465.000976562 634.997070312 452.66796875 632.497070312 436.000976562 629.497070312 c 0
 419.333984375 626.497070312 405.333984375 623.6640625 394.000976562 620.997070312 c 0
 382.66796875 618.330078125 369.66796875 614.330078125 355.000976562 608.997070312 c 0
 325.66796875 598.330078125 296.000976562 577.997070312 266.000976562 547.997070312 c 0
 250.66796875 531.997070312 236.66796875 510.330078125 224.000976562 482.997070312 c 0
 218.000976562 468.997070312 212.66796875 455.997070312 208.000976562 443.997070312 c 1
 226.000976562 456.6640625 246.333984375 466.6640625 269.000976562 473.997070312 c 0
 306.333984375 486.6640625 348.333984375 493.331054688 395.000976562 493.998046875 c 0
 430.333984375 493.998046875 461.666992188 489.331054688 489 479.998046875 c 0
 515 470.665039062 537.5 456.33203125 556.5 436.999023438 c 0
 575.5 417.666015625 590 392.333007812 600 361 c 0
300.000976562 94.9970703125 m 0
 315.333984375 88.9970703125 331.666992188 85.9951171875 349 85.9951171875 c 2
 351 85.9951171875 l 1
 352 85.9951171875 l 2
 375.333007812 85.9951171875 398 93.662109375 420 108.995117188 c 0
 442 124.328125 459.5 143.828125 472.5 167.495117188 c 0
 485.5 191.162109375 492 215.329101562 492 239.99609375 c 0
 492 297.329101562 481 335.329101562 459 353.99609375 c 0
 447.666992188 363.329101562 434.833984375 369.99609375 420.500976562 373.99609375 c 0
 406.16796875 377.99609375 388.000976562 379.99609375 366.000976562 379.99609375 c 0
 332.000976562 379.99609375 300.333984375 372.49609375 271.000976562 357.49609375 c 0
 241.66796875 342.49609375 218.000976562 323.329101562 200.000976562 299.99609375 c 1
 200.000976562 274.663085938 200.333984375 253.663085938 201.000976562 236.99609375 c 0
 203.66796875 208.99609375 213.334960938 181.663085938 230.001953125 154.99609375 c 0
 238.668945312 141.663085938 248.668945312 129.830078125 260.001953125 119.497070312 c 0
 271.334960938 109.1640625 284.66796875 100.997070312 300.000976562 94.9970703125 c 0
EndSplineSet
Validated: 524289
EndChar

StartChar: seven
Encoding: 55 55 23
Width: 700
GlyphClass: 2
Flags: W
HStem: -23 21G<174.998 182.665> 601 113.001<136.733 464.999>
LayerCount: 2
Fore
SplineSet
278 601 m 0
 212 599.666992188 169.33203125 596.669921875 149.999023438 592.002929688 c 0
 145.999023438 590.669921875 141.499023438 590.002929688 136.499023438 590.002929688 c 0
 131.499023438 590.002929688 126.33203125 591.002929688 120.999023438 593.002929688 c 0
 112.33203125 596.3359375 105.665039062 601.3359375 100.998046875 608.002929688 c 0
 91.6650390625 620.002929688 86.6650390625 633.669921875 85.998046875 649.002929688 c 1
 85.998046875 642.3359375 85.998046875 642.668945312 85.998046875 650.001953125 c 0
 85.998046875 664.001953125 89.998046875 675.668945312 97.998046875 685.001953125 c 0
 105.998046875 694.334960938 119.665039062 700.66796875 138.998046875 704.000976562 c 0
 174.998046875 710.66796875 235.331054688 714.000976562 319.998046875 714.000976562 c 0
 354.665039062 714.000976562 402.33203125 712.66796875 462.999023438 710.000976562 c 0
 520.33203125 708.000976562 550.33203125 707.000976562 552.999023438 707.000976562 c 0
 561.666015625 707.000976562 570.166015625 705.16796875 578.499023438 701.500976562 c 0
 586.83203125 697.833984375 594.665039062 692.000976562 601.998046875 684.000976562 c 0
 609.331054688 675.333984375 613.331054688 664.000976562 613.998046875 650.000976562 c 0
 613.998046875 638.000976562 610.331054688 624.66796875 602.998046875 610.000976562 c 0
 593.665039062 590.000976562 576.665039062 560.500976562 551.998046875 521.500976562 c 0
 527.331054688 482.500976562 501.331054688 442.66796875 473.998046875 402.000976562 c 0
 445.331054688 361.333984375 410.331054688 307.166992188 368.998046875 239.5 c 0
 327.665039062 171.833007812 288.665039062 102.666015625 251.998046875 31.9990234375 c 0
 242.665039062 12.666015625 229.665039062 -1.6669921875 212.998046875 -11 c 0
 200.331054688 -19 188.331054688 -23 176.998046875 -23 c 0
 172.998046875 -23 168.998046875 -22.6669921875 164.998046875 -22 c 0
 146.998046875 -18 134.331054688 -8 126.998046875 8 c 0
 123.665039062 15.3330078125 121.998046875 23.166015625 121.998046875 31.4990234375 c 0
 121.998046875 39.83203125 124.331054688 48.9990234375 128.998046875 58.9990234375 c 0
 162.998046875 125.666015625 200.665039062 191.999023438 241.998046875 257.999023438 c 0
 284.665039062 323.999023438 319.83203125 376.33203125 347.499023438 414.999023438 c 0
 375.166015625 453.666015625 399.499023438 489.333007812 420.499023438 522 c 0
 441.499023438 554.666992188 456.33203125 581 464.999023438 601 c 1
 436.33203125 601.666015625 406.416015625 602 375.25 602 c 0
 344.083007812 602 311.666015625 601.666015625 278 601 c 0
EndSplineSet
Validated: 524289
EndChar

StartChar: eight
Encoding: 56 56 24
Width: 700
GlyphClass: 2
Flags: W
HStem: -28.001 110<253.683 435.136> 621.999 96.002<271.262 407.578>
VStem: 78.998 111.003<137.082 263.615> 105.998 121.003<482.059 579.145> 459 117.001<478.907 573.656> 503.001 116.998<140 269.94>
LayerCount: 2
Fore
SplineSet
268.000976562 96.9990234375 m 0xe4
 291.333984375 86.9990234375 316.333984375 81.9990234375 343.000976562 81.9990234375 c 0
 361.66796875 81.9990234375 380.500976562 84.666015625 399.500976562 89.9990234375 c 0
 418.500976562 95.33203125 435.833984375 102.999023438 451.500976562 112.999023438 c 0
 467.16796875 122.999023438 479.66796875 135.666015625 489.000976562 150.999023438 c 0
 498.333984375 166.33203125 503.000976562 182.999023438 503.000976562 200.999023438 c 0
 503.000976562 210.999023438 502.000976562 220.33203125 500.000976562 228.999023438 c 0
 498.000976562 237.666015625 494.000976562 247.666015625 488.000976562 258.999023438 c 0
 482.000976562 270.33203125 473.66796875 280.999023438 463.000976562 290.999023438 c 0
 452.333984375 300.999023438 437.500976562 311.33203125 418.500976562 321.999023438 c 0
 399.500976562 332.666015625 377.000976562 342.333007812 351.000976562 351 c 1
 303.000976562 339 264.000976562 318.666992188 234.000976562 290 c 0
 204.66796875 261.333007812 190.000976562 230.666015625 190.000976562 197.999023438 c 0
 190.000976562 175.999023438 197.000976562 155.999023438 211.000976562 137.999023438 c 0
 226.333984375 119.999023438 245.333984375 106.33203125 268.000976562 96.9990234375 c 0xe4
260.499023438 591.499023438 m 0
 238.166015625 571.166015625 227.000976562 549.333007812 227.000976562 526 c 0
 227.000976562 507.333007812 236.66796875 490.666015625 256.000976562 475.999023438 c 0
 276.000976562 460.666015625 309.66796875 444.999023438 357.000976562 428.999023438 c 1
 384.333984375 439.666015625 408.166992188 453.666015625 428.5 470.999023438 c 0
 448.833007812 488.33203125 459 503.33203125 459 515.999023438 c 0xd8
 459 532.666015625 453.833007812 548.999023438 443.5 564.999023438 c 0
 433.166992188 580.999023438 418.666992188 594.499023438 400 605.499023438 c 0
 381.333007812 616.499023438 361.666015625 621.999023438 340.999023438 621.999023438 c 2
 338.999023438 621.999023438 l 2
 308.999023438 621.999023438 282.83203125 611.83203125 260.499023438 591.499023438 c 0
616.5 246 m 0
 618.833007812 234 619.999023438 221.33203125 619.999023438 207.999023438 c 0
 619.999023438 185.999023438 616.999023438 164.33203125 610.999023438 142.999023438 c 0
 604.999023438 121.666015625 594.999023438 100.499023438 580.999023438 79.4990234375 c 0
 566.999023438 58.4990234375 549.666015625 40.33203125 528.999023438 24.9990234375 c 0
 508.33203125 9.666015625 481.165039062 -3.0009765625 447.498046875 -13.0009765625 c 0
 413.831054688 -23.0009765625 377.1640625 -28.0009765625 337.497070312 -28.0009765625 c 0
 297.830078125 -28.0009765625 262.330078125 -23.333984375 230.997070312 -14.0009765625 c 0
 200.997070312 -4.66796875 176.830078125 7.4990234375 158.497070312 22.4990234375 c 0
 140.1640625 37.4990234375 124.831054688 55.166015625 112.498046875 75.4990234375 c 0
 100.165039062 95.83203125 91.498046875 116.33203125 86.498046875 136.999023438 c 0
 81.498046875 157.666015625 78.998046875 179.333007812 78.998046875 202 c 0xe4
 78.998046875 224.666992188 84.998046875 249.166992188 96.998046875 275.5 c 0
 108.998046875 301.833007812 126.665039062 326.333007812 149.998046875 349 c 0
 165.998046875 365 183.331054688 377.666992188 201.998046875 387 c 1
 175.331054688 402.333007812 153.998046875 420.666015625 137.998046875 441.999023438 c 0
 116.665039062 469.999023438 105.998046875 498.666015625 105.998046875 527.999023438 c 0
 105.998046875 536.666015625 106.665039062 545.666015625 107.998046875 554.999023438 c 0
 109.331054688 564.33203125 112.1640625 575.33203125 116.497070312 587.999023438 c 0
 120.830078125 600.666015625 126.330078125 612.83203125 132.997070312 624.499023438 c 0
 139.6640625 636.166015625 148.831054688 647.833007812 160.498046875 659.5 c 0
 172.165039062 671.166992188 185.33203125 681.000976562 199.999023438 689.000976562 c 0
 216.666015625 697.66796875 236.999023438 704.66796875 260.999023438 710.000976562 c 0
 284.999023438 715.333984375 311.33203125 718.000976562 339.999023438 718.000976562 c 0
 368.666015625 718.000976562 394.999023438 715.333984375 418.999023438 710.000976562 c 0
 442.999023438 704.66796875 463.33203125 698.000976562 479.999023438 690.000976562 c 0
 496.666015625 681.333984375 510.833007812 671.166992188 522.5 659.5 c 0
 534.166992188 647.833007812 543.333984375 636.166015625 550.000976562 624.499023438 c 0
 556.66796875 612.83203125 562.000976562 600.499023438 566.000976562 587.499023438 c 0
 570.000976562 574.499023438 572.66796875 563.166015625 574.000976562 553.499023438 c 0
 575.333984375 543.83203125 576.000976562 534.33203125 576.000976562 524.999023438 c 0
 576.000976562 515.666015625 574.833984375 506.833007812 572.500976562 498.5 c 0
 570.16796875 490.166992188 567.334960938 482.666015625 564.001953125 475.999023438 c 0
 560.668945312 469.33203125 556.000976562 462.5 550.000976562 455.5 c 0
 544.000976562 448.5 538.501953125 442.666992188 533.501953125 438 c 0
 528.501953125 433.333007812 522.168945312 428 514.501953125 422 c 0
 506.834960938 416 500.66796875 411.666992188 496.000976562 409 c 0
 491.333984375 406.333007812 485.333984375 402.333007812 478.000976562 397 c 1
 496.66796875 389 513.000976562 380 527.000976562 370 c 0
 546.333984375 356.666992188 561.833984375 343.166992188 573.500976562 329.5 c 0
 585.16796875 315.833007812 594.66796875 301.5 602.000976562 286.5 c 0
 609.333984375 271.5 614.166992188 258 616.5 246 c 0
EndSplineSet
Validated: 524289
EndChar

StartChar: nine
Encoding: 57 57 25
Width: 700
GlyphClass: 2
Flags: W
HStem: -22.9951 21G<209.667 218.667> 223.002 113.005<261.64 443.074> 630.006 108.993<278.43 425.931>
VStem: 85 122.002<391.618 557.824> 501.002 113.997<379.658 542.364>
LayerCount: 2
Fore
SplineSet
227 555.004882812 m 0
 213.666992188 532.337890625 207.001953125 509.006835938 207.001953125 485.006835938 c 0
 207.001953125 385.673828125 254 336.006835938 348 336.006835938 c 0
 378 336.006835938 407.001953125 342.006835938 435.001953125 354.006835938 c 0
 463.001953125 366.006835938 485.001953125 381.33984375 501.001953125 400.006835938 c 1
 501.001953125 409.006835938 l 2
 501.001953125 427.006835938 500.001953125 450.673828125 498.001953125 480.006835938 c 0
 495.334960938 508.006835938 485.66796875 535.33984375 469.000976562 562.006835938 c 0
 460.333984375 575.33984375 450.500976562 587.172851562 439.500976562 597.505859375 c 0
 428.500976562 607.838867188 415.16796875 615.838867188 399.500976562 621.505859375 c 0
 383.833984375 627.172851562 367.666992188 630.005859375 351 630.005859375 c 2
 348 630.005859375 l 2
 324 630.005859375 301.166992188 623.172851562 279.5 609.505859375 c 0
 257.833007812 595.838867188 240.333007812 577.671875 227 555.004882812 c 0
227 -22 m 0
 223.666992188 -22 220.333984375 -22.328125 217.000976562 -22.9951171875 c 0
 202.333984375 -22.9951171875 189.333984375 -19.9951171875 178.000976562 -13.9951171875 c 0
 162.66796875 -6.662109375 154.000976562 5.0048828125 152.000976562 21.0048828125 c 0
 152.000976562 22.337890625 151.66796875 23.337890625 151.000976562 24.0048828125 c 0
 151.000976562 34.671875 156.16796875 45.171875 166.500976562 55.5048828125 c 0
 176.833984375 65.837890625 188.333984375 73.0048828125 201.000976562 77.0048828125 c 0
 209.000976562 79.0048828125 222.16796875 81.671875 240.500976562 85.0048828125 c 0
 258.833984375 88.337890625 275.000976562 91.6708984375 289.000976562 95.00390625 c 0
 303.000976562 98.3369140625 318.333984375 102.669921875 335.000976562 108.002929688 c 0
 370.333984375 120.002929688 401.333984375 139.002929688 428.000976562 165.002929688 c 0
 445.333984375 183.002929688 461.000976562 203.669921875 475.000976562 227.002929688 c 0
 480.333984375 236.3359375 485.000976562 245.668945312 489.000976562 255.001953125 c 1
 474.333984375 247.001953125 458.333984375 240.668945312 441.000976562 236.001953125 c 0
 408.333984375 228.001953125 368.000976562 223.668945312 320.000976562 223.001953125 c 0
 286.000976562 223.001953125 253.66796875 230.001953125 223.000976562 244.001953125 c 0
 193.66796875 258.001953125 169.16796875 276.668945312 149.500976562 300.001953125 c 0
 129.833984375 323.334960938 114.166992188 350.16796875 102.5 380.500976562 c 0
 90.8330078125 410.833984375 85 441.666992188 85 473 c 0
 85 511 91.5 546.5 104.5 579.5 c 0
 117.5 612.5 135.166992188 640.666992188 157.5 664 c 0
 179.833007812 687.333007812 207.666015625 705.666015625 240.999023438 718.999023438 c 0
 274.999023438 732.33203125 310.999023438 738.999023438 348.999023438 738.999023438 c 0
 442.999023438 738.999023438 511.33203125 706.999023438 553.999023438 642.999023438 c 0
 593.999023438 582.999023438 614.33203125 498.33203125 614.999023438 388.999023438 c 0
 614.999023438 331.666015625 608.33203125 280.999023438 594.999023438 236.999023438 c 0
 581.666015625 192.999023438 563.833007812 155.83203125 541.5 125.499023438 c 0
 519.166992188 95.166015625 491.666992188 69.3330078125 459 48 c 0
 425 26.6669921875 388.833007812 10.5 350.5 -0.5 c 0
 312.166992188 -11.5 271 -18.6669921875 227 -22 c 0
EndSplineSet
Validated: 524289
EndChar

StartChar: colon
Encoding: 58 58 26
Width: 700
GlyphClass: 2
Flags: W
HStem: 27.001 180<292.159 406.079> 295.001 179<302.565 402.156>
VStem: 273 155<49.1377 186.712 322.001 455.644>
LayerCount: 2
Fore
SplineSet
425 404 m 0
 425 384.666992188 422 364.668945312 416 344.001953125 c 0
 412 327.334960938 403 314.66796875 389 306.000976562 c 0
 377 298.66796875 365 295.000976562 353 295.000976562 c 2
 350 295.000976562 l 2
 330 296.333984375 314 300.333984375 302 307.000976562 c 0
 285.333007812 317.000976562 276 332.000976562 274 352.000976562 c 1
 272.666992188 364.000976562 272 376.000976562 272 388.000976562 c 0
 272 400.66796875 272.333007812 412.334960938 273 423.001953125 c 0
 273.666992188 433.668945312 277 443.001953125 283 451.001953125 c 0
 289 458.334960938 296.333007812 463.66796875 305 467.000976562 c 0
 313.666992188 470.333984375 321.333984375 472.333984375 328.000976562 473.000976562 c 0
 334.66796875 473.66796875 339.66796875 474.000976562 343.000976562 474.000976562 c 0
 354.333984375 474.000976562 364.000976562 473.333984375 372.000976562 472.000976562 c 0
 379.333984375 470.66796875 386.666992188 468.000976562 394 464.000976562 c 0
 402 460.000976562 409 454.000976562 415 446.000976562 c 0
 420.333007812 438.000976562 423.333007812 428.66796875 424 418.000976562 c 0
 424.666992188 413.333984375 425 408.666992188 425 404 c 0
428 124.001953125 m 0
 428 108.001953125 425.66796875 91.6689453125 421.000976562 75.001953125 c 0
 417.000976562 58.3349609375 406.66796875 46.001953125 390.000976562 38.001953125 c 0
 376.000976562 31.3349609375 362.66796875 27.66796875 350.000976562 27.0009765625 c 0
 333.333984375 27.0009765625 317.000976562 32.0009765625 301.000976562 42.0009765625 c 0
 285.000976562 52.0009765625 276.333984375 66.0009765625 275.000976562 84.0009765625 c 0
 274.333984375 102.66796875 273.666992188 113.334960938 273 116.001953125 c 0
 273 118.668945312 273.333007812 124.668945312 274 134.001953125 c 0
 274.666992188 143.334960938 275.333984375 150.66796875 276.000976562 156.000976562 c 0
 276.000976562 166.66796875 279.000976562 176.000976562 285.000976562 184.000976562 c 0
 291.000976562 192.000976562 299.000976562 197.333984375 309.000976562 200.000976562 c 0
 322.333984375 204.66796875 335.333984375 207.000976562 348.000976562 207.000976562 c 0
 360.000976562 207.000976562 370.66796875 205.66796875 380.000976562 203.000976562 c 0
 389.333984375 200.333984375 398.666992188 194.333984375 408 185.000976562 c 0
 417.333007812 176.333984375 423 165.333984375 425 152.000976562 c 0
 427 142.66796875 428 133.334960938 428 124.001953125 c 0
EndSplineSet
Validated: 524289
EndChar

StartChar: semicolon
Encoding: 59 59 27
Width: 700
GlyphClass: 2
Flags: W
HStem: 253 180.001<323.692 432.11>
VStem: 302.001 152.999<275.988 416.875>
LayerCount: 2
Fore
SplineSet
455 363 m 2
 455 343.666992188 451.999023438 323.333984375 445.999023438 302.000976562 c 0
 441.999023438 285.333984375 432.999023438 272.666992188 418.999023438 264 c 0
 406.999023438 256.666992188 394.999023438 253 382.999023438 253 c 0
 373.666015625 253 363.333007812 255 352 259 c 0
 340.666992188 263 330.333984375 269 321.000976562 277 c 0
 311.000976562 286.333007812 305.333984375 297.333007812 304.000976562 310 c 1
 302.66796875 322 302.000976562 334.333007812 302.000976562 347 c 0
 302.000976562 359.666992188 302.333984375 371 303.000976562 381 c 0
 303.66796875 391.666992188 307.000976562 401 313.000976562 409 c 0
 319.000976562 417 326.333984375 422.333007812 335.000976562 425 c 0
 349.66796875 429.666992188 363.66796875 432.333984375 377.000976562 433.000976562 c 0
 387.000976562 433.000976562 395.333984375 432.000976562 402.000976562 430.000976562 c 0
 409.333984375 428.66796875 417.000976562 426.000976562 425.000976562 422.000976562 c 0
 433.000976562 418.000976562 439.66796875 412.333984375 445.000976562 405.000976562 c 0
 450.333984375 396.333984375 453.666992188 386.666992188 455 376 c 2
 455 363 l 2
434.999023438 79 m 2
 435 73 l 2
 433 51 411.333007812 -36.6669921875 370 -190 c 0
 365.333007812 -206.666992188 356.666015625 -219 343.999023438 -227 c 0
 332.666015625 -234.333007812 321.333007812 -238 310 -238 c 0
 292.666992188 -238 277 -233 263 -223 c 0
 250.966796875 -214.133789062 244.950195312 -202.258789062 244.950195312 -187.375976562 c 0
 244.950195312 -168.400390625 255.454101562 -113.73046875 265 -65.9990234375 c 0
 278.333007812 0.0009765625 289 49.333984375 297 82.0009765625 c 0
 299.666992188 93.333984375 303.333984375 103.000976562 308.000976562 111.000976562 c 0
 313.333984375 119.000976562 319.333984375 124.000976562 326.000976562 126.000976562 c 0
 335.333984375 129.333984375 344.333984375 131.333984375 353.000976562 132.000976562 c 0
 356.333984375 132.000976562 359.666992188 131.66796875 363 131.000976562 c 0
 377 131.000976562 391.333007812 127.66796875 406 121.000976562 c 0
 415.333007812 117.000976562 422.666015625 110.66796875 427.999023438 102.000976562 c 0
 432.666015625 95.333984375 434.999023438 87.6669921875 434.999023438 79 c 2
EndSplineSet
Validated: 524289
EndChar

StartChar: less
Encoding: 60 60 28
Width: 700
GlyphClass: 2
Flags: W
HStem: -25 21G<540.667 547.667>
LayerCount: 2
Fore
SplineSet
546 -25 m 0
 535.333007812 -25 523.333007812 -22.662109375 510 -17.9951171875 c 0
 492 -12.662109375 470.333007812 -0.662109375 445 18.0048828125 c 0
 419.666992188 36.671875 392.666992188 58.671875 364 84.0048828125 c 0
 335.333007812 109.337890625 307 135.004882812 279 161.004882812 c 0
 251 187.004882812 221.666992188 213.671875 191 241.004882812 c 0
 160.333007812 268.337890625 134.333007812 290.004882812 113 306.004882812 c 0
 102.333007812 314.004882812 95 325.004882812 91 339.004882812 c 0
 89.6669921875 345.004882812 89 351.671875 89 359.004882812 c 0
 89 365.671875 90 372.671875 92 380.004882812 c 0
 96 394.004882812 103.333007812 404.004882812 114 410.004882812 c 0
 151.333007812 438.004882812 195.666015625 473.004882812 246.999023438 515.004882812 c 0
 297.666015625 557.671875 344.333007812 596.004882812 387 630.004882812 c 0
 429.666992188 664.671875 468 692.004882812 502 712.004882812 c 0
 515.333007812 720.671875 528.666015625 725.004882812 541.999023438 725.004882812 c 0
 551.999023438 725.004882812 560.666015625 722.671875 567.999023438 718.004882812 c 0
 582.666015625 709.337890625 593.333007812 697.670898438 600 683.00390625 c 0
 603.333007812 676.336914062 605 669.00390625 605 661.00390625 c 0
 605 653.00390625 602.666992188 644.670898438 598 636.00390625 c 0
 590 622.670898438 573.666992188 607.670898438 549 591.00390625 c 0
 512.333007812 565.00390625 459 524.670898438 389 470.00390625 c 0
 319 415.336914062 271.666992188 378.669921875 247 360.002929688 c 1
 269.666992188 342.002929688 295.666992188 319.669921875 325 293.002929688 c 0
 355 266.3359375 382 241.668945312 406 219.001953125 c 0
 430 196.334960938 456 173.001953125 484 149.001953125 c 0
 512 125.001953125 536.666992188 106.334960938 558 93.001953125 c 0
 580 79.001953125 595 65.6689453125 603 53.001953125 c 0
 608.333007812 45.001953125 611 36.6689453125 611 28.001953125 c 0
 611 21.3349609375 609.666992188 14.66796875 607 8.0009765625 c 0
 598.333007812 -10.666015625 581 -21.3330078125 555 -24 c 0
 552.333007812 -24.6669921875 549.333007812 -25 546 -25 c 0
EndSplineSet
Validated: 524289
EndChar

StartChar: equal
Encoding: 61 61 29
Width: 700
GlyphClass: 2
Flags: W
HStem: 235 107<162.503 539.62> 435 106<164.565 539.621>
LayerCount: 2
Fore
SplineSet
499 541 m 0
 518.333007812 541 532 536.333007812 540 527 c 0
 548 517.666992188 552.666992188 506 554 492 c 2
 554 491 l 2
 554 483.666992188 553.333007812 477 552 471 c 0
 550.666992188 465 548 459 544 453 c 0
 540 447 533.666992188 442 525 438 c 0
 519 435.333007812 512.666992188 434.333007812 506 435 c 2
 498 435 l 2
 474 435.666992188 449.333007812 436 424 436 c 2
 314 433 l 2
 267.333007812 431.666992188 233 431 211 431 c 0
 191.666992188 431 176 436 164 446 c 0
 152 456 146 468.666992188 146 484 c 2
 146 487 l 2
 146 501 150.666992188 513.666992188 160 525 c 0
 170 535.666992188 184.333007812 541 203 541 c 2
 207 541 l 2
 246.599609375 539.799804688 289.91796875 539.200195312 336.95703125 539.200195312 c 0
 368.318359375 539.200195312 401.33203125 539.466796875 436 540 c 0
 470.666992188 540.666992188 491.666992188 541 499 541 c 0
506 239 m 2
 498 239 l 2
 482.666992188 239.666992188 468.666992188 240 456 240 c 0
 428 240 385 239.333007812 327 238 c 0
 269 236 229.666992188 235 209 235 c 0
 188.333007812 235 172.666015625 240.333007812 161.999023438 251 c 0
 151.33203125 261.666992188 145.999023438 274.666992188 145.999023438 290 c 2
 145.999023438 292 l 2
 145.999023438 306 151.33203125 318 161.999023438 328 c 0
 172.666015625 337.333007812 187.666015625 342 206.999023438 342 c 2
 224.999023438 342 l 2
 239.228515625 341.77734375 254.940429688 341.666015625 272.135742188 341.666015625 c 0
 306.5 341.666015625 346.788085938 342.110351562 392.999023438 342.999023438 c 2
 498.999023438 344.999023438 l 2
 518.33203125 344.999023438 531.999023438 340.33203125 539.999023438 330.999023438 c 0
 547.999023438 321.666015625 552.666015625 309.999023438 553.999023438 295.999023438 c 2
 553.999023438 294.999023438 l 2
 553.999023438 287.666015625 553.33203125 281.333007812 551.999023438 276 c 0
 550.666015625 270 547.999023438 264 543.999023438 258 c 0
 539.999023438 251.333007812 533.666015625 246 524.999023438 242 c 0
 519.666015625 240 513.333007812 239 506 239 c 2
EndSplineSet
Validated: 524289
EndChar

StartChar: greater
Encoding: 62 62 30
Width: 700
GlyphClass: 2
Flags: W
HStem: -18 21G<153.333 164.667>
LayerCount: 2
Fore
SplineSet
158 -18 m 0
 148.666992188 -18 139.998046875 -15.6708984375 131.998046875 -11.00390625 c 0
 124.665039062 -6.3369140625 117.998046875 -1.00390625 111.998046875 4.99609375 c 0
 106.665039062 10.99609375 102.665039062 17.6630859375 99.998046875 24.99609375 c 0
 96.6650390625 31.6630859375 94.6650390625 38.6630859375 93.998046875 45.99609375 c 0
 93.998046875 53.99609375 96.6650390625 62.3291015625 101.998046875 70.99609375 c 0
 109.998046875 84.3291015625 125.998046875 99.3291015625 149.998046875 115.99609375 c 0
 186.665039062 141.99609375 240.33203125 182.329101562 310.999023438 236.99609375 c 0
 380.999023438 291.663085938 428.33203125 328.330078125 452.999023438 346.997070312 c 1
 430.33203125 364.997070312 403.999023438 387.330078125 373.999023438 413.997070312 c 0
 343.999023438 440.6640625 317.33203125 465.331054688 293.999023438 487.998046875 c 0
 269.999023438 510.665039062 243.999023438 533.998046875 215.999023438 557.998046875 c 0
 187.999023438 581.998046875 163.33203125 600.665039062 141.999023438 613.998046875 c 0
 119.999023438 627.998046875 104.999023438 641.331054688 96.9990234375 653.998046875 c 0
 91.666015625 661.998046875 88.9990234375 670.665039062 88.9990234375 679.998046875 c 0
 88.9990234375 686.665039062 90.33203125 692.998046875 92.9990234375 698.998046875 c 0
 101.666015625 717.665039062 118.999023438 728.33203125 144.999023438 730.999023438 c 0
 148.33203125 731.666015625 151.33203125 731.999023438 153.999023438 731.999023438 c 0
 164.666015625 731.999023438 176.666015625 729.666015625 189.999023438 724.999023438 c 0
 207.999023438 719.666015625 229.666015625 707.666015625 254.999023438 688.999023438 c 0
 280.33203125 670.33203125 307.33203125 648.33203125 335.999023438 622.999023438 c 0
 364.666015625 597.666015625 392.999023438 571.999023438 420.999023438 545.999023438 c 0
 448.999023438 519.999023438 478.33203125 493.33203125 508.999023438 465.999023438 c 0
 539.666015625 438.666015625 565.666015625 417.333007812 586.999023438 402 c 0
 597.666015625 394 604.999023438 382.666992188 608.999023438 368 c 0
 610.33203125 362 610.999023438 355.333007812 610.999023438 348 c 0
 610.999023438 341.333007812 609.999023438 334.333007812 607.999023438 327 c 0
 603.999023438 313 596.666015625 303 585.999023438 297 c 0
 548.666015625 269.666992188 504.333007812 234.666992188 453 192 c 0
 402.333007812 149.333007812 355.666015625 111 312.999023438 77 c 0
 270.33203125 43 231.999023438 15.6669921875 197.999023438 -5 c 0
 184.666015625 -13.6669921875 171.333007812 -18 158 -18 c 0
EndSplineSet
Validated: 524289
EndChar

StartChar: question
Encoding: 63 63 31
Width: 700
GlyphClass: 2
Flags: W
HStem: -26.002 178.001<269.892 386.37> 508.999 21G<190.334 205.001> 625 109.069<291.464 420.064>
VStem: 234.003 187.001<7.88811 117.73> 267.003 125.996<216.992 316.186> 445.038 124.961<484.855 602.144>
LayerCount: 2
Fore
SplineSet
337 201 m 0xec
 331 201 324.669921875 201.665039062 318.002929688 202.998046875 c 0
 284.669921875 211.665039062 267.669921875 232.33203125 267.002929688 264.999023438 c 0
 267.002929688 274.33203125 268.669921875 284.33203125 272.002929688 294.999023438 c 0
 276.669921875 314.33203125 283.669921875 332.33203125 293.002929688 348.999023438 c 0
 302.3359375 365.666015625 312.668945312 379.999023438 324.001953125 391.999023438 c 0
 334.668945312 403.999023438 346.001953125 414.999023438 358.001953125 424.999023438 c 0
 370.001953125 435.666015625 381.334960938 445.333007812 392.001953125 454 c 0
 402.668945312 462.666992188 412.001953125 471.666992188 420.001953125 481 c 0
 436.692382812 498.975585938 445.038085938 517.568359375 445.038085938 536.779296875 c 0
 445.038085938 554.662109375 443.403320312 586.278320312 420.000976562 605 c 0
 402.819335938 618.36328125 378.045898438 625.045898438 345.678710938 625.045898438 c 0
 344.13671875 625.045898438 342.577148438 625.030273438 341.000976562 625 c 0
 333.000976562 625 325.333984375 623.333007812 318.000976562 620 c 0
 310.000976562 616 302.66796875 611.666992188 296.000976562 607 c 0
 290.000976562 602.333007812 283.333984375 595.666015625 276.000976562 586.999023438 c 0
 268.66796875 578.33203125 263.000976562 570.999023438 259.000976562 564.999023438 c 0
 255.000976562 558.999023438 249.66796875 551.666015625 243.000976562 542.999023438 c 0
 237.000976562 533.666015625 230.333984375 525.999023438 223.000976562 519.999023438 c 0
 216.333984375 513.999023438 209.000976562 510.33203125 201.000976562 508.999023438 c 2
 192.000976562 508.999023438 l 2
 188.66796875 508.999023438 184.66796875 509.666015625 180.000976562 510.999023438 c 0
 175.333984375 512.33203125 168.666992188 514.665039062 160 517.998046875 c 0
 145.333007812 525.998046875 136 537.331054688 132 551.998046875 c 2
 130 563.998046875 l 2
 130 575.331054688 133.666992188 588.998046875 141 604.998046875 c 0
 148.333007812 619.665039062 157.666015625 633.665039062 168.999023438 646.998046875 c 0
 180.33203125 660.998046875 193.999023438 674.665039062 209.999023438 687.998046875 c 0
 225.999023438 701.998046875 244.999023438 713.331054688 266.999023438 721.998046875 c 0
 287.426757812 730.045898438 309.00390625 734.069335938 331.731445312 734.069335938 c 0
 333.48046875 734.069335938 335.236328125 734.045898438 336.999023438 733.998046875 c 0
 412.33203125 733.998046875 469.999023438 716.331054688 509.999023438 680.998046875 c 0
 549.999023438 645.665039062 569.999023438 592.665039062 569.999023438 521.998046875 c 0
 569.999023438 502.665039062 566.666015625 484.998046875 559.999023438 468.998046875 c 0
 553.999023438 452.998046875 545.999023438 438.998046875 535.999023438 426.998046875 c 0
 525.999023438 415.665039062 514.999023438 405.33203125 502.999023438 395.999023438 c 2
 466.999023438 367.999023438 l 2
 454.999023438 358.666015625 443.999023438 349.333007812 433.999023438 340 c 0
 423.999023438 330.666992188 415.33203125 319 407.999023438 305 c 0
 400.666015625 291.666992188 395.666015625 276.666992188 392.999023438 260 c 0
 389.666015625 240 382.333007812 224.666992188 371 214 c 0
 362.333007812 205.333007812 351 201 337 201 c 0xec
320.002929688 -26.001953125 m 2
 296.669921875 -26.001953125 277.002929688 -18.0029296875 261.002929688 -2.0029296875 c 0
 243.002929688 16.6640625 234.002929688 38.3310546875 234.002929688 62.998046875 c 0
 234.002929688 87.6650390625 243.669921875 108.33203125 263.002929688 124.999023438 c 0
 283.669921875 142.999023438 307.336914062 151.999023438 334.00390625 151.999023438 c 0
 358.670898438 151.999023438 379.00390625 143.999023438 395.00390625 127.999023438 c 0
 412.336914062 110.666015625 421.00390625 89.9990234375 421.00390625 65.9990234375 c 0xf4
 421.00390625 41.33203125 412.670898438 20.6650390625 396.00390625 3.998046875 c 0
 379.336914062 -12.6689453125 357.669921875 -22.6689453125 331.002929688 -26.001953125 c 2
 320.002929688 -26.001953125 l 2
EndSplineSet
Validated: 524289
EndChar

StartChar: at
Encoding: 64 64 32
Width: 700
GlyphClass: 2
Flags: W
HStem: -141.995 110<283.143 436.131> 105.006 104.999<312.361 372.779> 369.005 101.001<324.14 424.622> 601.005 113.998<305.093 443.154>
VStem: 80 110.996<95.6791 430.758> 203 100.998<212.861 350.422> 384.999 104.8<217.922 335.271> 522.997 97.002<192.56 481.464>
LayerCount: 2
Fore
SplineSet
423 148 m 1
 403.666992188 119.333007812 376 105.005859375 340 105.005859375 c 0
 296.666992188 105.005859375 263 118.672851562 239 146.005859375 c 0
 215 173.338867188 203 214.005859375 203 268.005859375 c 0
 203 294.672851562 206 319.005859375 212 341.005859375 c 0
 218 363.672851562 226 383.005859375 236 399.005859375 c 0
 246.666992188 415.005859375 259 428.672851562 273 440.005859375 c 0
 298.333007812 460.005859375 328 470.005859375 362 470.005859375 c 0
 382.666992188 470.005859375 403 466.338867188 423 459.005859375 c 0
 440.333007812 452.338867188 454 443.005859375 464 431.005859375 c 0
 472 421.672851562 476 412.672851562 476 404.005859375 c 0
 476 399.338867188 474.666992188 394.338867188 472 389.005859375 c 0
 469.333007812 383.672851562 465.666015625 378.672851562 460.999023438 374.005859375 c 0
 456.33203125 369.338867188 450.999023438 366.005859375 444.999023438 364.005859375 c 0
 436.33203125 361.338867188 429.665039062 360.005859375 424.998046875 360.005859375 c 0
 416.998046875 360.005859375 407.331054688 361.338867188 395.998046875 364.005859375 c 0
 392.665039062 364.672851562 387.665039062 366.005859375 380.998046875 368.005859375 c 0
 373.665039062 369.338867188 366.665039062 369.671875 359.998046875 369.004882812 c 0
 353.331054688 368.337890625 346.6640625 366.004882812 339.997070312 362.004882812 c 0
 333.330078125 358.004882812 327.330078125 352.671875 321.997070312 346.004882812 c 0
 316.6640625 339.337890625 312.331054688 330.337890625 308.998046875 319.004882812 c 0
 305.665039062 307.671875 303.998046875 294.671875 303.998046875 280.004882812 c 0
 303.998046875 272.004882812 304.665039062 264.337890625 305.998046875 257.004882812 c 0
 306.665039062 249.671875 308.33203125 242.004882812 310.999023438 234.004882812 c 0
 316.33203125 218.004882812 324.999023438 210.004882812 336.999023438 210.004882812 c 0
 344.33203125 210.004882812 350.999023438 211.337890625 356.999023438 214.004882812 c 0
 362.999023438 216.671875 367.666015625 221.338867188 370.999023438 228.005859375 c 0
 378.999023438 242.672851562 383.666015625 268.005859375 384.999023438 304.005859375 c 0
 385.666015625 320.005859375 396.666015625 332.338867188 417.999023438 341.005859375 c 0
 429.2578125 345.74609375 439.462890625 348.116210938 448.614257812 348.116210938 c 0
 449.758789062 348.116210938 450.887695312 348.079101562 451.999023438 348.004882812 c 0
 459.999023438 348.004882812 466.999023438 347.004882812 472.999023438 345.004882812 c 0
 486.33203125 339.671875 493.33203125 330.004882812 493.999023438 316.004882812 c 0
 493.999023438 314.671875 493.666015625 313.338867188 492.999023438 312.005859375 c 0
 490.865234375 293.340820312 489.798828125 277.021484375 489.798828125 263.048828125 c 0
 489.798828125 259.5546875 489.865234375 256.20703125 489.999023438 253.005859375 c 0
 489.999023438 234.338867188 491.666015625 219.005859375 494.999023438 207.005859375 c 0
 496.33203125 202.338867188 497.665039062 199.005859375 498.998046875 197.005859375 c 0
 500.998046875 193.672851562 503.665039062 192.005859375 506.998046875 192.005859375 c 0
 508.331054688 193.338867188 509.6640625 195.338867188 510.997070312 198.005859375 c 0
 514.330078125 206.005859375 516.997070312 216.338867188 518.997070312 229.005859375 c 0
 521.6640625 253.005859375 522.997070312 275.005859375 522.997070312 295.005859375 c 0
 522.997070312 328.338867188 521.330078125 359.338867188 517.997070312 388.005859375 c 0
 515.330078125 416.005859375 511.663085938 440.005859375 506.99609375 460.005859375 c 0
 502.329101562 480.005859375 496.662109375 497.672851562 489.995117188 513.005859375 c 0
 482.662109375 529.005859375 476.329101562 541.672851562 470.99609375 551.005859375 c 0
 464.99609375 560.338867188 457.663085938 568.338867188 448.99609375 575.005859375 c 0
 440.329101562 581.672851562 432.99609375 586.672851562 426.99609375 590.005859375 c 0
 420.99609375 593.338867188 413.99609375 595.671875 405.99609375 597.004882812 c 0
 397.99609375 599.004882812 391.663085938 600.004882812 386.99609375 600.004882812 c 0
 382.99609375 600.004882812 377.663085938 600.337890625 370.99609375 601.004882812 c 0
 346.99609375 601.004882812 324.329101562 593.337890625 302.99609375 578.004882812 c 0
 281.663085938 562.671875 262.663085938 540.671875 245.99609375 512.004882812 c 0
 229.329101562 483.337890625 215.99609375 447.670898438 205.99609375 405.00390625 c 0
 195.99609375 362.336914062 190.99609375 315.336914062 190.99609375 264.00390625 c 0
 190.99609375 219.336914062 194.329101562 179.336914062 200.99609375 144.00390625 c 0
 207.663085938 108.670898438 216.330078125 80.337890625 226.997070312 59.0048828125 c 0
 237.6640625 37.671875 249.997070312 20.0048828125 263.997070312 6.0048828125 c 0
 277.997070312 -7.9951171875 291.6640625 -17.9951171875 304.997070312 -23.9951171875 c 0
 318.330078125 -29.328125 332.997070312 -31.9951171875 348.997070312 -31.9951171875 c 0
 364.997070312 -31.9951171875 379.6640625 -30.328125 392.997070312 -26.9951171875 c 0
 406.330078125 -23.662109375 417.330078125 -19.9951171875 425.997070312 -15.9951171875 c 0
 434.6640625 -11.9951171875 442.6640625 -6.328125 449.997070312 1.0048828125 c 0
 457.997070312 8.337890625 464.330078125 15.337890625 468.997070312 22.0048828125 c 0
 473.6640625 28.671875 478.997070312 36.671875 484.997070312 46.0048828125 c 0
 487.6640625 51.337890625 489.997070312 55.337890625 491.997070312 58.0048828125 c 0
 493.997070312 60.671875 496.6640625 64.0048828125 499.997070312 68.0048828125 c 0
 502.6640625 72.0048828125 505.331054688 75.337890625 507.998046875 78.0048828125 c 0
 510.665039062 80.0048828125 513.998046875 82.0048828125 517.998046875 84.0048828125 c 0
 521.998046875 86.0048828125 526.665039062 87.0048828125 531.998046875 87.0048828125 c 0
 536.665039062 87.0048828125 541.665039062 86.0048828125 546.998046875 84.0048828125 c 0
 553.665039062 81.337890625 559.33203125 78.0048828125 563.999023438 74.0048828125 c 0
 568.666015625 70.0048828125 572.333007812 65.0048828125 575 59.0048828125 c 0
 577.666992188 53.671875 578.666992188 48.0048828125 578 42.0048828125 c 0
 578 30.671875 575 17.0048828125 569 1.0048828125 c 0
 565 -8.9951171875 561.333007812 -17.662109375 558 -24.9951171875 c 0
 554 -32.328125 548.666992188 -41.328125 542 -51.9951171875 c 0
 535.333007812 -62.662109375 528 -71.9951171875 520 -79.9951171875 c 0
 512 -87.9951171875 502.333007812 -95.9951171875 491 -103.995117188 c 0
 479 -111.995117188 466 -118.995117188 452 -124.995117188 c 0
 438 -130.328125 422 -134.328125 404 -136.995117188 c 0
 386 -140.328125 367.333007812 -141.995117188 348 -141.995117188 c 2
 342 -141.995117188 l 2
 304.666992188 -141.995117188 270 -132.662109375 238 -113.995117188 c 0
 205.333007812 -95.328125 177.333007812 -69.9951171875 154 -37.9951171875 c 0
 130.666992188 -5.9951171875 112.666992188 33.0048828125 100 79.0048828125 c 0
 86.6669921875 125.004882812 80 174.671875 80 228.004882812 c 0
 80 287.337890625 84.6669921875 342.670898438 94 394.00390625 c 0
 103.333007812 445.336914062 116.333007812 490.669921875 133 530.002929688 c 0
 150.333007812 568.669921875 170.666015625 602.002929688 193.999023438 630.002929688 c 0
 217.33203125 658.002929688 243.33203125 679.002929688 271.999023438 693.002929688 c 0
 300.666015625 707.002929688 331.333007812 714.3359375 364 715.002929688 c 0
 387.333007812 715.002929688 408.333007812 713.002929688 427 709.002929688 c 0
 446.333007812 705.669921875 465 699.669921875 483 691.002929688 c 0
 501 681.669921875 517 669.669921875 531 655.002929688 c 0
 545 640.3359375 557.666992188 622.002929688 569 600.002929688 c 0
 580.333007812 578.002929688 589.666015625 552.3359375 596.999023438 523.002929688 c 0
 612.33203125 461.669921875 619.999023438 385.002929688 619.999023438 293.002929688 c 0
 619.999023438 242.3359375 612.666015625 197.668945312 597.999023438 159.001953125 c 0
 589.999023438 138.334960938 578.33203125 121.66796875 562.999023438 109.000976562 c 0
 547.666015625 96.333984375 529.333007812 89.6669921875 508 89 c 0
 477.333007812 89 454 99.3330078125 438 120 c 0
 432 128 427 137.333007812 423 148 c 1
EndSplineSet
Validated: 524289
EndChar

StartChar: A
Encoding: 65 65 33
Width: 700
GlyphClass: 2
Flags: W
HStem: -5.99902 21G<109.996 117.996 577.666 583.666> 251.001 91.998<287.71 443.995>
LayerCount: 2
Fore
SplineSet
284.995117188 331.999023438 m 1
 342.995117188 337.999023438 395.995117188 341.666015625 443.995117188 342.999023438 c 1
 393.995117188 568.999023438 l 1
 365.328125 520.33203125 328.995117188 441.33203125 284.995117188 331.999023438 c 1
173 49 m 0
 165.666992188 25 154.329101562 8.9990234375 138.99609375 0.9990234375 c 0
 130.329101562 -3.66796875 121.99609375 -5.9990234375 113.99609375 -5.9990234375 c 0
 105.99609375 -5.9990234375 98.3291015625 -4.333984375 90.99609375 -1.0009765625 c 0
 78.99609375 4.33203125 70.3291015625 12.6650390625 64.99609375 23.998046875 c 0
 60.99609375 32.6650390625 58.99609375 42.1650390625 58.99609375 52.498046875 c 0
 58.99609375 62.8310546875 60.3291015625 73.998046875 62.99609375 85.998046875 c 0
 66.99609375 106.665039062 85.3291015625 154.665039062 117.99609375 229.998046875 c 1
 108.663085938 238.665039062 103.330078125 249.33203125 101.997070312 261.999023438 c 2
 101.997070312 263.999023438 l 2
 101.997070312 275.33203125 107.6640625 285.999023438 118.997070312 295.999023438 c 0
 128.330078125 304.666015625 139.997070312 311.333007812 153.997070312 316 c 1
 239.997070312 498.666992188 306.6640625 621 353.997070312 683 c 0
 365.330078125 697 375.997070312 707.333007812 385.997070312 714 c 0
 395.997070312 721.333007812 407.330078125 725 419.997070312 725 c 2
 427.997070312 725 l 2
 441.330078125 725 453.330078125 722 463.997070312 716 c 0
 478.6640625 708 487.6640625 695.333007812 490.997070312 678 c 0
 505.6640625 598 529.6640625 485 562.997070312 339 c 0
 581.6640625 257.666992188 596.331054688 197.833984375 606.998046875 159.500976562 c 0
 617.665039062 121.16796875 625.665039062 97.66796875 630.998046875 89.0009765625 c 0
 637.665039062 77.0009765625 640.998046875 65.66796875 640.998046875 55.0009765625 c 2
 640.998046875 49 l 2
 639.665039062 37 635.498046875 26.66796875 628.498046875 18.0009765625 c 0
 621.498046875 9.333984375 613.331054688 2.9990234375 603.998046875 -1.0009765625 c 0
 592.665039062 -4.333984375 585.33203125 -5.9990234375 581.999023438 -5.9990234375 c 0
 573.33203125 -5.9990234375 564.665039062 -3.66796875 555.998046875 0.9990234375 c 0
 540.665039062 8.9990234375 528.33203125 24.66796875 518.999023438 48.0009765625 c 0
 509.666015625 69.333984375 491.999023438 137.000976562 465.999023438 251.000976562 c 1
 382.666015625 247.66796875 307.333007812 241.000976562 240 231.000976562 c 1
 217.333007812 178.333984375 195 117.666992188 173 49 c 0
EndSplineSet
Validated: 524289
EndChar

StartChar: B
Encoding: 66 66 34
Width: 700
GlyphClass: 2
Flags: W
HStem: -23 21G<163.333 170.666> -9.65137 90.1543<255.37 295.727> 285.003 96.4492<207 398.74> 605.004 103.999<211.533 403.001>
VStem: 83 121<82.114 137.826 144.104 285.003 383.002 598.597> 458.001 119<431.807 557.715> 495 124.001<157.259 228.28>
LayerCount: 2
Fore
SplineSet
86 41 m 2xba
 87.3330078125 60.3330078125 88.3330078125 93.3369140625 89 140.00390625 c 0
 89 227.336914062 87 324.00390625 83 430.00390625 c 1
 81.6669921875 473.336914062 81 502.50390625 81 517.50390625 c 0
 81 532.50390625 81.5 552.50390625 82.5 577.50390625 c 0
 83.5 602.50390625 84 620.00390625 84 630.00390625 c 0
 84.6669921875 650.670898438 90.833984375 666.50390625 102.500976562 677.50390625 c 0
 114.16796875 688.50390625 128.66796875 694.00390625 146.000976562 694.00390625 c 2
 149.000976562 694.00390625 l 1
 167.000976562 699.336914062 189.333984375 703.336914062 216.000976562 706.00390625 c 0
 226.66796875 707.336914062 238.16796875 708.169921875 250.500976562 708.502929688 c 0
 262.833984375 708.8359375 272.333984375 709.002929688 279.000976562 709.002929688 c 2
 301.000976562 709.002929688 l 1
 313.000976562 709.002929688 l 2
 364.333984375 709.002929688 410.333984375 700.669921875 451.000976562 684.002929688 c 0
 491.000976562 666.669921875 521.66796875 642.002929688 543.000976562 610.002929688 c 0
 565.66796875 576.669921875 577.000976562 537.669921875 577.000976562 493.002929688 c 0xbc
 577.000976562 455.002929688 567.66796875 422.002929688 549.000976562 394.002929688 c 0
 534.333984375 372.669921875 516.000976562 355.669921875 494.000976562 343.002929688 c 1
 508.66796875 336.3359375 523.000976562 328.668945312 537.000976562 320.001953125 c 0
 559.66796875 305.334960938 579.000976562 288.66796875 595.000976562 270.000976562 c 0
 611.000976562 251.333984375 619.000976562 233.000976562 619.000976562 215.000976562 c 2
 619.000976562 214.000976562 l 2
 619.000976562 188.000976562 612.16796875 162.333984375 598.500976562 137.000976562 c 0
 584.833984375 111.66796875 565.166992188 88.5009765625 539.5 67.5009765625 c 0
 513.833007812 46.5009765625 479.666015625 28.66796875 436.999023438 14.0009765625 c 0
 394.33203125 -0.666015625 347.33203125 -9.9990234375 295.999023438 -13.9990234375 c 1
 290.202148438 -11.1005859375 284.341796875 -9.6513671875 278.418945312 -9.6513671875 c 0x7a
 270.71875 -9.6513671875 262.912109375 -12.1005859375 254.999023438 -16.9990234375 c 1
 220.33203125 -19.666015625 198.999023438 -21.3330078125 190.999023438 -22 c 0
 182.33203125 -22.6669921875 174.33203125 -23 166.999023438 -23 c 0
 159.666015625 -23 152.333007812 -22.3330078125 145 -21 c 2
 143 -21 l 2
 126.333007812 -21 112.333007812 -15.3330078125 101 -4 c 0
 91 6 86 19 86 35 c 2
 86 41 l 2xba
204 403.00390625 m 2
 204 383.001953125 l 1
 233.333007812 382.334960938 260 381.834960938 284 381.501953125 c 0
 286.3984375 381.46875 288.76171875 381.452148438 291.090820312 381.452148438 c 0
 312.0625 381.452148438 330.19921875 382.801757812 345.5 385.501953125 c 0
 362.5 388.501953125 376.666992188 392.334960938 388 397.001953125 c 0
 399.333007812 401.668945312 409.333007812 407.3359375 418 414.002929688 c 0
 426.666992188 420.669921875 433.333984375 427.336914062 438.000976562 434.00390625 c 0
 442.66796875 440.670898438 446.500976562 448.170898438 449.500976562 456.50390625 c 0
 452.500976562 464.836914062 454.66796875 472.336914062 456.000976562 479.00390625 c 0
 457.333984375 485.670898438 458.000976562 492.670898438 458.000976562 500.00390625 c 0
 458.000976562 514.670898438 454.66796875 528.170898438 448.000976562 540.50390625 c 0
 441.333984375 552.836914062 432.833984375 563.00390625 422.500976562 571.00390625 c 0
 412.16796875 579.00390625 400.334960938 585.670898438 387.001953125 591.00390625 c 0
 364.502929688 600.37890625 340.831054688 605.06640625 315.98828125 605.06640625 c 0
 314.331054688 605.06640625 312.668945312 605.045898438 311.001953125 605.00390625 c 0
 276.334960938 605.00390625 242.66796875 602.00390625 210.000976562 596.00390625 c 1
 209.333984375 584.00390625 208.666992188 566.00390625 208 542.00390625 c 0
 205.333007812 493.336914062 204 447.00390625 204 403.00390625 c 2
480.5 165.501953125 m 0
 490.166992188 177.834960938 495 189.004882812 495 199.004882812 c 0
 495 204.337890625 491.666992188 210.670898438 485 218.00390625 c 0
 478.333007812 225.336914062 467.666015625 233.169921875 452.999023438 241.502929688 c 0
 438.33203125 249.8359375 417.33203125 258.002929688 389.999023438 266.002929688 c 0
 362.666015625 274.002929688 331.333007812 280.3359375 296 285.002929688 c 1
 207 285.002929688 l 1
 209.666992188 193.002929688 212 124.669921875 214 80.0029296875 c 1
 221.333007812 80.0029296875 232 80.169921875 246 80.5029296875 c 0x7a
 260 80.8359375 272 81.3359375 282 82.0029296875 c 0
 314 83.3359375 344 88.3359375 372 97.0029296875 c 0
 400 105.669921875 422.666992188 116.169921875 440 128.502929688 c 0
 457.333007812 140.8359375 470.833007812 153.168945312 480.5 165.501953125 c 0
EndSplineSet
Validated: 524289
EndChar

StartChar: C
Encoding: 67 67 35
Width: 700
GlyphClass: 2
Flags: W
HStem: -30.998 114.001<262.46 442.023> 494.006 246.994<516.919 607.66> 608.006 104.995<378.246 504.261>
VStem: 68.001 124<159.984 372.712> 504.002 127<517.69 584.105>
LayerCount: 2
Fore
SplineSet
623 692 m 0xd8
 629 666 632.001953125 638.338867188 632.001953125 609.005859375 c 0
 632.001953125 589.005859375 631.668945312 577.005859375 631.001953125 573.005859375 c 0
 631.001953125 556.338867188 625.001953125 539.505859375 613.001953125 522.505859375 c 0
 601.001953125 505.505859375 588.001953125 496.338867188 574.001953125 495.005859375 c 0
 571.334960938 494.338867188 568.334960938 494.005859375 565.001953125 494.005859375 c 0xd8
 553.001953125 494.005859375 541.001953125 498.005859375 529.001953125 506.005859375 c 0
 512.334960938 516.672851562 504.001953125 531.005859375 504.001953125 549.005859375 c 0
 504.001953125 553.672851562 504.668945312 565.672851562 506.001953125 585.005859375 c 1
 496.668945312 591.005859375 490.668945312 594.672851562 488.001953125 596.005859375 c 0
 485.334960938 597.338867188 481.66796875 599.338867188 477.000976562 602.005859375 c 0
 468.333984375 606.005859375 459.666992188 608.005859375 451 608.005859375 c 0
 431 608.005859375 409 602.005859375 385 590.005859375 c 0
 361 578.005859375 337.666992188 560.505859375 315 537.505859375 c 0
 292.333007812 514.505859375 271.833007812 488.172851562 253.5 458.505859375 c 0
 235.166992188 428.838867188 220.333984375 395.171875 209.000976562 357.504882812 c 0
 197.66796875 319.837890625 192.000976562 282.004882812 192.000976562 244.004882812 c 0
 192.000976562 217.337890625 198.000976562 191.670898438 210.000976562 167.00390625 c 0
 222.000976562 142.336914062 238.500976562 122.169921875 259.500976562 106.502929688 c 0
 280.500976562 90.8359375 302.333984375 83.0029296875 325.000976562 83.0029296875 c 0
 347.66796875 83.0029296875 369.66796875 85.169921875 391.000976562 89.5029296875 c 0
 412.333984375 93.8359375 431.500976562 99.3359375 448.500976562 106.002929688 c 0
 465.500976562 112.669921875 480.16796875 119.502929688 492.500976562 126.502929688 c 0
 504.833984375 133.502929688 515.666992188 140.669921875 525 148.002929688 c 0
 534.333007812 154.669921875 542.666015625 159.669921875 549.999023438 163.002929688 c 0
 557.999023438 167.002929688 566.83203125 169.002929688 576.499023438 169.002929688 c 0
 586.166015625 169.002929688 595.333007812 166.002929688 604 160.002929688 c 0
 618.666992188 148.669921875 626 135.169921875 626 119.502929688 c 0
 626 103.8359375 617.666992188 86.6689453125 601 68.001953125 c 0
 543 2.001953125 450.333007812 -30.998046875 323 -30.998046875 c 2
 313 -30.998046875 l 2
 281.666992188 -30.998046875 252.333984375 -26.3310546875 225.000976562 -16.998046875 c 0
 197.66796875 -7.6650390625 174.66796875 5.16796875 156.000976562 21.5009765625 c 0
 137.333984375 37.833984375 121.333984375 56.333984375 108.000976562 77.0009765625 c 0
 94.66796875 97.66796875 84.66796875 119.500976562 78.0009765625 142.500976562 c 0
 71.333984375 165.500976562 68.0009765625 188.66796875 68.0009765625 212.000976562 c 0
 68.0009765625 260.000976562 73.16796875 306.500976562 83.5009765625 351.500976562 c 0
 93.833984375 396.500976562 107.666992188 437.000976562 125 473.000976562 c 0
 142.333007812 509.000976562 162.666015625 542.333984375 185.999023438 573.000976562 c 0
 211.33203125 603.66796875 237.999023438 629.000976562 265.999023438 649.000976562 c 0
 293.999023438 669.000976562 323.33203125 684.66796875 353.999023438 696.000976562 c 0
 384.666015625 707.333984375 414.333007812 713.000976562 443 713.000976562 c 0xb8
 466.333007812 713.000976562 488 711.000976562 508 707.000976562 c 1
 512 714.333984375 517 720.666992188 523 726 c 0
 532.333007812 734 542.666015625 738.666992188 553.999023438 740 c 0
 558.666015625 740.666992188 561.333007812 741 562 741 c 2
 563 741 l 2
 573.666992188 741 584.666992188 737.666992188 596 731 c 0
 610 721.666992188 619 708.666992188 623 692 c 0xd8
EndSplineSet
Validated: 524289
EndChar

StartChar: D
Encoding: 68 68 36
Width: 700
GlyphClass: 2
Flags: W
HStem: -31 109.998<218.457 443.05> 694 20G<121.336 141.336>
VStem: 65.4043 121.477<109.381 166.726 194.179 614.997> 73.0039 125<100.593 519.491> 514.006 119.992<169.195 388.265>
LayerCount: 2
Fore
SplineSet
71 62 m 2xe8
 72.3330078125 84.6669921875 73.00390625 120.331054688 73.00390625 168.998046875 c 0xd8
 73.00390625 256.998046875 71.00390625 361.331054688 67.00390625 481.998046875 c 1
 66.3369140625 517.998046875 65.8369140625 541.831054688 65.50390625 553.498046875 c 0
 65.4375 555.830078125 65.404296875 558.401367188 65.404296875 561.212890625 c 0
 65.404296875 572.467773438 65.9375 587.5625 67.00390625 606.499023438 c 0
 68.3369140625 630.166015625 69.00390625 644.666015625 69.00390625 649.999023438 c 1
 69.6708984375 670.666015625 75.6708984375 686.333007812 87.00390625 697 c 0
 98.3369140625 708.333007812 112.669921875 714 130.002929688 714 c 0
 152.669921875 714 182.669921875 710.666992188 220.002929688 704 c 0
 243.3359375 700 267.168945312 694.5 291.501953125 687.5 c 0
 315.834960938 680.5 342.16796875 670.666992188 370.500976562 658 c 0
 398.833984375 645.333007812 425.666992188 630.833007812 451 614.5 c 0
 476.333007812 598.166992188 500.666015625 577.333984375 523.999023438 552.000976562 c 0
 545.999023438 527.333984375 565.166015625 500.166992188 581.499023438 470.5 c 0
 597.83203125 440.833007812 610.665039062 405.833007812 619.998046875 365.5 c 0
 629.331054688 325.166992188 633.998046875 281.666992188 633.998046875 235 c 0
 633.998046875 211.666992188 630.665039062 187.666992188 623.998046875 163 c 0
 617.331054688 138.333007812 607.331054688 114.666015625 593.998046875 91.9990234375 c 0
 580.665039062 69.33203125 564.83203125 48.83203125 546.499023438 30.4990234375 c 0
 528.166015625 12.166015625 505.333007812 -2.6669921875 478 -14 c 0
 450 -25.3330078125 420.333007812 -31 389 -31 c 2
 379 -31 l 2
 346.333007812 -31 313.333007812 -29.5 280 -26.5 c 0
 246.666992188 -23.5 220 -20 200 -16 c 0
 180 -12 163.5 -8.3330078125 150.5 -5 c 0
 137.5 -1.6669921875 129.666992188 0 127 0 c 0
 110.333007812 0 96.3330078125 5.6669921875 85 17 c 0
 75.625 26.375 70.9375 38.09375 70.9375 52.1552734375 c 0
 70.9375 53.0927734375 70.9580078125 54.041015625 71 55 c 2
 71 62 l 2xe8
282.50390625 85.9970703125 m 0
 312.836914062 81.330078125 348.005859375 78.998046875 388.005859375 78.998046875 c 0
 405.338867188 78.998046875 421.838867188 84.6650390625 437.505859375 95.998046875 c 0
 453.172851562 107.331054688 466.505859375 122.1640625 477.505859375 140.497070312 c 0
 488.505859375 158.830078125 497.338867188 179.330078125 504.005859375 201.997070312 c 0
 510.672851562 224.6640625 514.005859375 246.6640625 514.005859375 267.997070312 c 0
 514.005859375 388.6640625 460.672851562 480.997070312 354.005859375 544.997070312 c 0
 316.005859375 567.6640625 260.672851562 590.997070312 188.005859375 614.997070312 c 1
 187.255859375 584.499023438 186.880859375 553.485351562 186.880859375 521.955078125 c 0xe8
 186.880859375 469.401367188 187.922851562 415.416015625 190.005859375 359.997070312 c 0
 191.338867188 331.330078125 192.671875 289.497070312 194.004882812 234.497070312 c 0
 195.337890625 179.497070312 196.670898438 137.330078125 198.00390625 107.997070312 c 1
 224.00390625 97.9970703125 252.170898438 90.6640625 282.50390625 85.9970703125 c 0
EndSplineSet
Validated: 524289
EndChar

StartChar: E
Encoding: 69 69 37
Width: 700
GlyphClass: 2
Flags: W
HStem: -20 112.001<205.752 549.955> -6 115<289.933 607.529> 301.002 108.999<201.002 474.637> 319.002 106<281.85 594.107> 590 107.999<206.198 609.709>
VStem: 78.001 124.001<95.1892 301.002 410.001 581.907>
LayerCount: 2
Fore
SplineSet
145 704 m 2x8c
 161.666992188 704 175.672851562 698.666015625 187.005859375 687.999023438 c 1
 244.338867188 694.666015625 318.002929688 697.999023438 408.002929688 697.999023438 c 0
 431.3359375 697.999023438 453.005859375 697.666015625 473.005859375 696.999023438 c 0
 514.338867188 695.666015625 546.671875 693.666015625 570.004882812 690.999023438 c 0
 588.671875 688.999023438 602.171875 683.83203125 610.504882812 675.499023438 c 0
 618.837890625 667.166015625 623.337890625 655.999023438 624.004882812 641.999023438 c 0
 624.004882812 634.666015625 623.171875 627.833007812 621.504882812 621.5 c 0
 619.837890625 615.166992188 617.337890625 609.333984375 614.004882812 604.000976562 c 0
 610.004882812 597.333984375 603.671875 592.333984375 595.004882812 589.000976562 c 0
 589.004882812 586.333984375 582.671875 585.000976562 576.004882812 585.000976562 c 0
 573.337890625 585.000976562 570.670898438 585.333984375 568.00390625 586.000976562 c 0
 529.673828125 588.778320312 489.724609375 590.166992188 448.155273438 590.166992188 c 0
 439.8359375 590.166992188 431.452148438 590.111328125 423.00390625 590 c 2
 369.00390625 590 l 2
 305.670898438 588.666992188 250.670898438 585.333984375 204.00390625 580.000976562 c 1
 201.336914062 522.000976562 200.00390625 465.333984375 200.00390625 410.000976562 c 1xac
 251.336914062 410.66796875 320.669921875 413.334960938 408.002929688 418.001953125 c 0
 494.002929688 422.668945312 542.334960938 425.001953125 553.001953125 425.001953125 c 0
 572.334960938 425.001953125 586.168945312 420.334960938 594.501953125 411.001953125 c 0
 602.834960938 401.668945312 607.001953125 390.001953125 607.001953125 376.001953125 c 0
 607.001953125 360.001953125 603.668945312 347.334960938 597.001953125 338.001953125 c 0
 587.668945312 326.001953125 573.001953125 319.668945312 553.001953125 319.001953125 c 0x1c
 541.001953125 319.001953125 489.334960938 316.334960938 398.001953125 311.001953125 c 0
 304.668945312 305.001953125 239.001953125 301.668945312 201.001953125 301.001953125 c 1
 201.668945312 284.334960938 202.001953125 268.16796875 202.001953125 252.500976562 c 2
 202.001953125 203.000976562 l 2
 202.668945312 158.333984375 204.001953125 127.333984375 206.001953125 110.000976562 c 0
 206.668945312 104.000976562 207.3359375 99.0009765625 208.002929688 95.0009765625 c 0
 221.3359375 93.0009765625 241.168945312 92.0009765625 267.501953125 92.0009765625 c 0xac
 293.834960938 92.0009765625 327.001953125 92.66796875 367.001953125 94.0009765625 c 0
 460.334960938 97.333984375 519.001953125 101.666992188 543.001953125 107 c 0
 553.001953125 108.333007812 562.168945312 109 570.501953125 109 c 0
 578.834960938 109 586.16796875 107.333007812 592.500976562 104 c 0
 598.833984375 100.666992188 604.000976562 97.1669921875 608.000976562 93.5 c 0
 612.000976562 89.8330078125 615.16796875 85.3330078125 617.500976562 80 c 0
 619.833984375 74.6669921875 621.500976562 70 622.500976562 66 c 0
 623.500976562 62 624.004882812 57.6669921875 624.004882812 53 c 0
 624.004882812 37 618.66796875 23 608.000976562 11 c 0
 598.000976562 -0.3330078125 584.000976562 -6.3330078125 566.000976562 -7 c 1
 560.66796875 1.6669921875 555.334960938 2 550.001953125 -6 c 1
 547.001953125 -6 l 2x4c
 531.668945312 -6 502.668945312 -7.3330078125 460.001953125 -10 c 0
 416.001953125 -12.6669921875 371.168945312 -15 325.501953125 -17 c 0
 279.834960938 -19 245.334960938 -20 222.001953125 -20 c 0
 199.334960938 -20 180.66796875 -19.3330078125 166.000976562 -18 c 0
 147.333984375 -16.6669921875 129.333984375 -8 112.000976562 8 c 0
 94.66796875 24 84.66796875 43 82.0009765625 65 c 0
 80.0009765625 81 78.66796875 109 78.0009765625 149 c 0
 78.0009765625 185.666992188 78.333984375 222.5 79.0009765625 259.5 c 0
 79.66796875 296.5 80.0009765625 327.833007812 80.0009765625 353.5 c 0
 80.0009765625 379.166992188 79.333984375 415 78.0009765625 461 c 0
 77.333984375 499.666992188 76.833984375 525.5 76.5009765625 538.5 c 0
 76.4345703125 541.098632812 76.4013671875 543.916992188 76.4013671875 546.955078125 c 0
 76.4013671875 559.115234375 76.9345703125 574.796875 78.0009765625 594 c 0
 79.333984375 618 80.0009765625 633 80.0009765625 639 c 2
 80.0009765625 640 l 2
 80.66796875 660.666992188 86.66796875 676.5 98.0009765625 687.5 c 0
 109.333984375 698.5 123.666992188 704 141 704 c 2
 145 704 l 2x8c
EndSplineSet
Validated: 524289
EndChar

StartChar: F
Encoding: 70 70 38
Width: 700
GlyphClass: 2
Flags: W
HStem: -22.002 21G<140.333 148.666> 313.498 106.502<200.999 557.152> 597 109.099<207.966 609.043> 695 20G<145.667 154.667>
VStem: 78 121.749<39.4946 142.728 166.745 310.581 416 589> 82 127.999<-3.56057 304.932>
LayerCount: 2
Fore
SplineSet
146 715 m 0xd8
 163.333007812 715 177.333007812 709.33203125 188 697.999023438 c 1
 265.397460938 703.3984375 340.905273438 706.098632812 414.522460938 706.098632812 c 0
 422.705078125 706.098632812 430.864257812 706.065429688 439 705.999023438 c 0
 492.333007812 705.999023438 536 704.666015625 570 701.999023438 c 0
 588.666992188 700.666015625 602.166992188 695.666015625 610.5 686.999023438 c 0
 618.833007812 678.33203125 623.333007812 666.999023438 624 652.999023438 c 2
 624 651.999023438 l 2
 624 636.666015625 619.166992188 623.333007812 609.5 612 c 0
 599.833007812 600.666992188 585.333007812 595 566 595 c 2
 564 595 l 2
 536.500976562 596.5 507.688476562 597.25 477.565429688 597.25 c 0
 467.522460938 597.25 457.333984375 597.166992188 447 597 c 0
 369.666992188 597 288.666992188 594.333007812 204 589 c 1
 203.333007812 579 202.666015625 563.666992188 201.999023438 543 c 0
 200.499023438 513.500976562 199.749023438 485.501953125 199.749023438 459.002929688 c 0xe8
 199.749023438 450.16796875 199.83203125 441.500976562 199.999023438 433 c 2
 199.999023438 416 l 1
 227.33203125 418.666992188 256.999023438 420 288.999023438 420 c 0
 297.666015625 420 306.333007812 419.666992188 315 419 c 0
 363 418.333007812 406.333007812 416.666015625 445 413.999023438 c 0
 484.333007812 411.33203125 513.833007812 408.165039062 533.5 404.498046875 c 0
 553.166992188 400.831054688 566.833984375 395.1640625 574.500976562 387.497070312 c 0
 582.16796875 379.830078125 586.66796875 369.330078125 588.000976562 355.997070312 c 0
 588.000976562 341.997070312 584.66796875 329.6640625 578.000976562 318.997070312 c 0
 573.333984375 312.330078125 566.666992188 307.330078125 558 303.997070312 c 0
 552 301.997070312 545.333007812 300.997070312 538 300.997070312 c 2
 531 300.997070312 l 2
 510.333007812 304.330078125 480.333007812 307.330078125 441 309.997070312 c 0
 403.662109375 312.368164062 365.270507812 313.553710938 325.825195312 313.553710938 c 0
 320.899414062 313.553710938 315.958007812 313.53515625 311 313.498046875 c 0
 266.333007812 313.165039062 229.666015625 311.665039062 200.999023438 308.998046875 c 1
 204.33203125 222.331054688 207.33203125 130.998046875 209.999023438 34.998046875 c 0
 207.999023438 16.998046875 199.33203125 2.998046875 183.999023438 -7.001953125 c 0
 170.666015625 -16.3349609375 156.33203125 -21.3349609375 140.999023438 -22.001953125 c 0
 139.666015625 -22.001953125 138.666992188 -21.6689453125 138 -21.001953125 c 0
 121.333007812 -21.001953125 107.333007812 -15.3349609375 96 -4.001953125 c 0
 86.625 5.373046875 81.9375 17.3837890625 81.9375 32.0322265625 c 0
 81.9375 33.0087890625 81.9580078125 33.998046875 82 34.998046875 c 2
 82 40.998046875 l 2xe4
 83.3330078125 61.6650390625 84 96.33203125 84 144.999023438 c 0
 84 236.999023438 82 338.999023438 78 450.999023438 c 0
 76.6669921875 494.33203125 76 523.499023438 76 538.499023438 c 0
 76 553.499023438 76.5 573.499023438 77.5 598.499023438 c 0
 78.5 623.499023438 79.3330078125 640.666015625 80 649.999023438 c 0
 80.6669921875 670.666015625 86.6669921875 686.333007812 98 697 c 0
 109.333007812 708.333007812 123.666015625 714 140.999023438 714 c 0
 143.666015625 714.666992188 145.333007812 715 146 715 c 0xd8
EndSplineSet
Validated: 524289
EndChar

StartChar: G
Encoding: 71 71 39
Width: 700
GlyphClass: 2
Flags: W
HStem: -30.9951 113.997<260.076 384.133> 619.005 104.999<377.596 515.145>
VStem: 66.0049 123.998<160.189 376.151>
LayerCount: 2
Fore
SplineSet
394 -16 m 0
 367.333007812 -26 340.671875 -30.9951171875 314.004882812 -30.9951171875 c 0
 281.337890625 -30.9951171875 251.004882812 -26.328125 223.004882812 -16.9951171875 c 0
 195.671875 -7.662109375 172.838867188 5.1708984375 154.505859375 21.50390625 c 0
 136.172851562 37.8369140625 120.172851562 56.3369140625 106.505859375 77.00390625 c 0
 92.8388671875 97.6708984375 82.671875 119.50390625 76.0048828125 142.50390625 c 0
 69.337890625 165.50390625 66.0048828125 188.670898438 66.0048828125 212.00390625 c 0
 66.0048828125 260.670898438 71.171875 308.00390625 81.5048828125 354.00390625 c 0
 91.837890625 400.00390625 105.670898438 441.336914062 123.00390625 478.00390625 c 0
 140.336914062 514.670898438 160.669921875 548.670898438 184.002929688 580.00390625 c 0
 209.3359375 610.670898438 236.168945312 636.50390625 264.501953125 657.50390625 c 0
 292.834960938 678.50390625 322.001953125 694.670898438 352.001953125 706.00390625 c 0
 382.668945312 718.00390625 413.001953125 724.00390625 443.001953125 724.00390625 c 0
 473.001953125 724.00390625 506.668945312 717.336914062 544.001953125 704.00390625 c 0
 580.001953125 690.670898438 603.668945312 678.337890625 615.001953125 667.004882812 c 0
 627.001953125 655.004882812 633.334960938 640.671875 634.001953125 624.004882812 c 0
 634.001953125 616.004882812 632.334960938 607.337890625 629.001953125 598.004882812 c 0
 625.001953125 586.004882812 616.334960938 577.337890625 603.001953125 572.004882812 c 0
 596.334960938 569.337890625 589.66796875 568.004882812 583.000976562 568.004882812 c 0
 575.66796875 568.004882812 569.334960938 569.004882812 564.001953125 571.004882812 c 0
 558.668945312 573.004882812 548.668945312 578.337890625 534.001953125 587.004882812 c 0
 519.334960938 595.671875 504.334960938 603.171875 489.001953125 609.504882812 c 0
 473.668945312 615.837890625 460.3359375 619.004882812 449.002929688 619.004882812 c 0
 429.002929688 619.004882812 407.002929688 612.837890625 383.002929688 600.504882812 c 0
 359.002929688 588.171875 335.8359375 570.171875 313.502929688 546.504882812 c 0
 291.169921875 522.837890625 270.669921875 495.670898438 252.002929688 465.00390625 c 0
 233.3359375 434.336914062 218.3359375 399.669921875 207.002929688 361.002929688 c 0
 195.669921875 322.3359375 190.002929688 283.668945312 190.002929688 245.001953125 c 0
 190.002929688 218.334960938 196.002929688 192.501953125 208.002929688 167.501953125 c 0
 220.002929688 142.501953125 236.502929688 122.168945312 257.502929688 106.501953125 c 0
 278.502929688 90.8349609375 300.669921875 83.001953125 324.002929688 83.001953125 c 0
 339.3359375 83.001953125 355.002929688 87.501953125 371.002929688 96.501953125 c 0
 387.002929688 105.501953125 402.002929688 117.334960938 416.002929688 132.001953125 c 0
 430.002929688 146.668945312 443.3359375 163.3359375 456.002929688 182.002929688 c 0
 475.3359375 210.669921875 490.668945312 240.002929688 502.001953125 270.002929688 c 1
 463.334960938 268.002929688 424.334960938 264.502929688 385.001953125 259.502929688 c 0
 345.668945312 254.502929688 318.3359375 248.3359375 303.002929688 241.002929688 c 0
 295.002929688 237.002929688 287.002929688 235.002929688 279.002929688 235.002929688 c 0
 271.002929688 235.002929688 263.002929688 237.3359375 255.002929688 242.002929688 c 0
 240.3359375 250.002929688 231.668945312 261.3359375 229.001953125 276.002929688 c 0
 228.334960938 279.3359375 228.001953125 282.668945312 228.001953125 286.001953125 c 0
 228.001953125 300.001953125 233.668945312 312.668945312 245.001953125 324.001953125 c 0
 253.001953125 332.001953125 264.001953125 339.001953125 278.001953125 345.001953125 c 0
 300.001953125 355.001953125 345.334960938 362.334960938 414.001953125 367.001953125 c 0
 463.334960938 370.334960938 504.66796875 372.001953125 538.000976562 372.001953125 c 2
 571.000976562 372.001953125 l 2
 590.333984375 370.668945312 604.333984375 366.668945312 613.000976562 360.001953125 c 0
 624.333984375 351.334960938 630.000976562 337.66796875 630.000976562 319.000976562 c 0
 630.000976562 299.000976562 622.66796875 284.66796875 608.000976562 276.000976562 c 0
 608.000976562 274.000976562 607.333984375 270.000976562 606.000976562 264.000976562 c 0
 605.333984375 260.66796875 604.666992188 255.000976562 604 247.000976562 c 0
 600.666992188 218.333984375 587.333984375 181.666992188 564.000976562 137 c 0
 552.66796875 116.333007812 538.66796875 96 522.000976562 76 c 0
 504.66796875 56 485.66796875 38.1669921875 465.000976562 22.5 c 0
 444.333984375 6.8330078125 420.666992188 -6 394 -16 c 0
EndSplineSet
Validated: 524289
EndChar

StartChar: H
Encoding: 72 72 40
Width: 700
GlyphClass: 2
Flags: W
HStem: -21.999 21G<145.333 153.667 537.333 546> 312.001 86.0049<217.997 424.943> 694.003 20G<148.331 167.997 540.666 560.333>
VStem: 93.498 122.499<-3.04591 184.934 189.06 312.001 398.006 696.499> 477.999 128.001<-5.04489 337.626> 487.999 124<32.915 341.001 420.784 696.468>
LayerCount: 2
Fore
SplineSet
86.998046875 33 m 2xf4
 86.998046875 41.0048828125 l 2
 88.3310546875 59.0048828125 88.998046875 103.671875 88.998046875 175.004882812 c 0
 88.998046875 215.671875 89.8310546875 265.171875 91.498046875 323.504882812 c 0
 93.1650390625 381.837890625 93.998046875 416.837890625 93.998046875 428.504882812 c 2
 93.998046875 463.504882812 l 2
 93.998046875 475.171875 93.8310546875 494.671875 93.498046875 522.004882812 c 0
 93.1650390625 549.337890625 92.998046875 567.504882812 92.998046875 576.504882812 c 0
 92.998046875 585.504882812 93.1650390625 594.671875 93.498046875 604.004882812 c 0
 93.8310546875 613.337890625 93.998046875 619.004882812 93.998046875 621.004882812 c 0
 93.998046875 623.004882812 94.1650390625 625.671875 94.498046875 629.004882812 c 0
 94.8310546875 632.337890625 94.998046875 635.504882812 94.998046875 638.504882812 c 2
 94.998046875 646.504882812 l 1
 94.998046875 650.004882812 l 2
 95.6650390625 670.671875 101.998046875 686.3359375 113.998046875 697.002929688 c 0
 125.331054688 708.3359375 139.6640625 714.002929688 156.997070312 714.002929688 c 2
 159.997070312 714.002929688 l 2
 175.997070312 714.002929688 189.6640625 709.3359375 200.997070312 700.002929688 c 0
 214.330078125 689.3359375 221.330078125 673.005859375 221.997070312 651.005859375 c 0
 221.997070312 643.672851562 220.997070312 629.005859375 218.997070312 607.005859375 c 0
 216.997070312 585.005859375 215.997070312 565.172851562 215.997070312 547.505859375 c 0
 215.997070312 529.838867188 216.330078125 505.005859375 216.997070312 473.005859375 c 0
 217.6640625 441.005859375 217.997070312 416.005859375 217.997070312 398.005859375 c 1
 275.997070312 399.338867188 346.6640625 405.338867188 429.997070312 416.005859375 c 0
 454.6640625 419.338867188 473.331054688 421.671875 485.998046875 423.004882812 c 0
 485.998046875 425.671875 485.831054688 430.171875 485.498046875 436.504882812 c 0
 485.165039062 442.837890625 484.83203125 457.670898438 484.499023438 481.00390625 c 0
 484.166015625 504.336914062 483.999023438 522.50390625 483.999023438 535.50390625 c 0
 483.999023438 548.50390625 484.498046875 569.00390625 485.498046875 597.00390625 c 0
 486.498046875 625.00390625 487.33203125 642.00390625 487.999023438 648.00390625 c 0
 488.666015625 669.336914062 494.666015625 685.669921875 505.999023438 697.002929688 c 0
 517.999023438 708.3359375 532.33203125 714.002929688 548.999023438 714.002929688 c 2
 551.999023438 714.002929688 l 2
 568.666015625 714.002929688 582.666015625 709.3359375 593.999023438 700.002929688 c 0
 606.666015625 689.3359375 612.999023438 673.668945312 612.999023438 653.001953125 c 0
 612.999023438 640.334960938 612.666015625 615.001953125 611.999023438 577.001953125 c 0
 611.33203125 530.334960938 610.83203125 488.501953125 610.499023438 451.501953125 c 0
 610.387695312 439.180664062 610.333007812 427.709960938 610.333007812 417.088867188 c 0
 610.333007812 395.815429688 610.5546875 377.954101562 611 363.501953125 c 0
 611.666992188 341.834960938 611.999023438 321.66796875 611.999023438 303.000976562 c 0xf4
 611.999023438 266.333984375 611 219.500976562 609 162.500976562 c 0
 607 105.500976562 606 65.66796875 606 43.0009765625 c 2
 606 35.0009765625 l 2
 604 17.0009765625 596 3.0009765625 582 -6.9990234375 c 0
 568.666992188 -16.33203125 554 -21.33203125 538 -21.9990234375 c 0
 536.666992188 -21.9990234375 535.666992188 -21.666015625 535 -20.9990234375 c 0
 518.333007812 -20.9990234375 504.666015625 -15.33203125 493.999023438 -3.9990234375 c 0
 483.33203125 6.0009765625 477.999023438 19.333984375 477.999023438 36.0009765625 c 2
 477.999023438 43.0009765625 l 1xf8
 484.666015625 127.000976562 487.999023438 220.333984375 487.999023438 323.000976562 c 2
 487.999023438 341.000976562 l 1
 465.999023438 339.000976562 423.499023438 333.833984375 360.499023438 325.500976562 c 0
 297.499023438 317.16796875 248.999023438 312.66796875 214.999023438 312.000976562 c 1
 214.999023438 303.000976562 l 2
 212.999023438 269.66796875 211.999023438 231.000976562 211.999023438 187.000976562 c 0
 211.999023438 143.000976562 212.999023438 92.66796875 214.999023438 36.0009765625 c 0
 212.999023438 17.333984375 204.33203125 3.0009765625 188.999023438 -6.9990234375 c 0
 175.666015625 -16.33203125 161.333007812 -21.33203125 146 -21.9990234375 c 0
 144.666992188 -21.9990234375 143.666992188 -21.666015625 143 -20.9990234375 c 0
 126.333007812 -20.9990234375 112.333007812 -15.33203125 101 -3.9990234375 c 0
 91.6669921875 5.333984375 86.998046875 17.6669921875 86.998046875 33 c 2xf4
EndSplineSet
Validated: 524289
EndChar

StartChar: I
Encoding: 73 73 41
Width: 700
GlyphClass: 2
Flags: W
HStem: -11.001 102.999<92.5044 271.312 415 475.94 479.959 566 569 611.104> -7.00098 98.999<415 566 569 611.104> 599.998 110.001<100.019 285.002>
VStem: 279.002 135.998<92.998 192.728> 286.002 134.999<94.249 597.999>
LayerCount: 2
Fore
SplineSet
229 -12 m 1x70
 185 -13.3330078125 154.66796875 -14.001953125 138.000976562 -14.001953125 c 0
 118.000976562 -14.001953125 102.66796875 -9.6689453125 92.0009765625 -1.001953125 c 0
 80.66796875 7.6650390625 75.0009765625 18.998046875 75.0009765625 32.998046875 c 2
 75.0009765625 35.998046875 l 2
 75.0009765625 49.3310546875 79.833984375 60.998046875 89.5009765625 70.998046875 c 0
 99.16796875 80.998046875 114.334960938 86.3310546875 135.001953125 86.998046875 c 0
 161.668945312 88.3310546875 209.668945312 89.6640625 279.001953125 90.9970703125 c 1x70
 283.668945312 160.330078125 286.001953125 232.330078125 286.001953125 306.997070312 c 0
 286.001953125 346.330078125 285.334960938 386.330078125 284.001953125 426.997070312 c 0
 282.668945312 455.6640625 282.001953125 486.6640625 282.001953125 519.997070312 c 2
 282.001953125 540.997070312 l 2
 282.001953125 547.6640625 282.501953125 557.831054688 283.501953125 571.498046875 c 0
 284.501953125 585.165039062 285.001953125 594.665039062 285.001953125 599.998046875 c 1
 246.334960938 600.665039062 217.66796875 600.998046875 199.000976562 600.998046875 c 0
 181.66796875 600.998046875 164.000976562 600.665039062 146.000976562 599.998046875 c 2
 144.000976562 599.998046875 l 2
 125.333984375 599.998046875 110.500976562 604.665039062 99.5009765625 613.998046875 c 0
 88.5009765625 623.331054688 82.66796875 635.998046875 82.0009765625 651.998046875 c 2
 82.0009765625 653.998046875 l 2
 82.0009765625 667.998046875 87.16796875 680.331054688 97.5009765625 690.998046875 c 0
 107.833984375 701.665039062 123.333984375 707.33203125 144.000976562 707.999023438 c 0
 201.333984375 709.33203125 256.333984375 709.999023438 309.000976562 709.999023438 c 0
 413.66796875 709.999023438 499.333007812 706.999023438 566 700.999023438 c 0
 581.333007812 699.666015625 593.66796875 695.333007812 603.000976562 688 c 0
 615.66796875 678.666992188 622.334960938 665.666992188 623.001953125 649 c 2
 623.001953125 648 l 2
 623.001953125 633.333007812 618.668945312 619.666015625 610.001953125 606.999023438 c 0
 605.334960938 599.666015625 598.66796875 593.999023438 590.000976562 589.999023438 c 0
 584.66796875 587.33203125 578.66796875 585.999023438 572.000976562 585.999023438 c 0
 568.66796875 585.999023438 564.66796875 586.666015625 560.000976562 587.999023438 c 0
 541.333984375 590.666015625 495.333984375 593.999023438 422.000976562 597.999023438 c 1
 422.000976562 590.666015625 421.333984375 577.333007812 420.000976562 558 c 0
 419.333984375 539.333007812 419.000976562 524.833007812 419.000976562 514.5 c 2
 419.000976562 484 l 2
 419.000976562 444.666992188 419.333984375 412.166992188 420.000976562 386.5 c 0
 420.66796875 360.833007812 421.000976562 334.666015625 421.000976562 307.999023438 c 0x68
 421.000976562 281.33203125 420.16796875 243.665039062 418.500976562 194.998046875 c 0
 416.833984375 146.331054688 415.666992188 112.331054688 415 92.998046875 c 1
 443 92.998046875 466 92.6650390625 484 91.998046875 c 2
 566 91.998046875 l 1xb0
 566 97.3310546875 566.333007812 97.3310546875 567 91.998046875 c 1
 567 97.3310546875 567.33203125 97.3310546875 567.999023438 91.998046875 c 1
 567.999023438 97.3310546875 568.333007812 97.3310546875 569 91.998046875 c 1x70
 569 97.3310546875 569.333007812 97.3310546875 570 91.998046875 c 1
 589.333007812 91.998046875 603.166015625 87.498046875 611.499023438 78.498046875 c 0
 619.83203125 69.498046875 624.33203125 58.3310546875 624.999023438 44.998046875 c 2
 624.999023438 43.9990234375 l 2
 624.999023438 37.33203125 624.334960938 30.9990234375 623.001953125 24.9990234375 c 0
 621.668945312 18.9990234375 619.333007812 12.9990234375 616 6.9990234375 c 0
 611.333007812 -0.333984375 604.666015625 -5.333984375 595.999023438 -8.0009765625 c 0
 590.666015625 -10.0009765625 585.666015625 -11.0009765625 580.999023438 -11.0009765625 c 2
 567.999023438 -11.0009765625 l 2xb0
 549.999023438 -8.333984375 519.999023438 -7.0009765625 477.999023438 -7.0009765625 c 0
 433.999023438 -7.0009765625 394.33203125 -7.333984375 358.999023438 -8.0009765625 c 1
 340.942382812 -5.22265625 322.88671875 -3.833984375 304.830078125 -3.833984375 c 0
 229 -12 l 1x70
EndSplineSet
Validated: 524289
EndChar

StartChar: J
Encoding: 74 74 42
Width: 700
GlyphClass: 2
Flags: W
HStem: -35 125.998<244.069 346.459> 599.998 110.002<104.504 347.002 468 575.844>
VStem: 72.5029 114.499<150.857 256.964> 346.752 121.248<425.658 596.001> 350.002 125.998<103.937 595.189>
LayerCount: 2
Fore
SplineSet
473 217 m 0xe8
 461.666992188 101 438.002929688 26.3330078125 402.002929688 -7 c 0
 382.669921875 -25.6669921875 359.669921875 -35 333.002929688 -35 c 0
 306.3359375 -35 280.502929688 -30.6669921875 255.502929688 -22 c 0
 230.502929688 -13.3330078125 209.002929688 -2.3330078125 191.002929688 11 c 0
 173.669921875 25 157.836914062 40.1669921875 143.50390625 56.5 c 0
 129.170898438 72.8330078125 117.170898438 89 107.50390625 105 c 0
 97.8369140625 121 90.169921875 135.666992188 84.5029296875 149 c 0
 78.8359375 162.333007812 75.3359375 173 74.0029296875 181 c 0
 72.0029296875 188.333007812 71.5029296875 196.5 72.5029296875 205.5 c 0
 73.5029296875 214.5 75.0029296875 223 77.0029296875 231 c 0
 79.669921875 240.333007812 85.0029296875 248.666015625 93.0029296875 255.999023438 c 0
 101.002929688 263.33203125 111.3359375 267.999023438 124.002929688 269.999023438 c 0
 128.002929688 270.666015625 132.002929688 270.999023438 136.002929688 270.999023438 c 0
 149.3359375 270.999023438 160.668945312 266.999023438 170.001953125 258.999023438 c 0
 181.334960938 248.33203125 187.001953125 234.665039062 187.001953125 217.998046875 c 0
 187.001953125 201.998046875 192.334960938 182.998046875 203.001953125 160.998046875 c 0
 209.668945312 148.331054688 217.668945312 136.998046875 227.001953125 126.998046875 c 0
 236.334960938 116.998046875 249.001953125 108.498046875 265.001953125 101.498046875 c 0
 281.001953125 94.498046875 299.001953125 90.998046875 319.001953125 90.998046875 c 0
 319.668945312 90.998046875 320.3359375 91.3310546875 321.002929688 91.998046875 c 0
 325.669921875 95.3310546875 330.002929688 102.998046875 334.002929688 114.998046875 c 0
 343.3359375 143.665039062 348.668945312 186.998046875 350.001953125 244.998046875 c 2
 350.001953125 246.998046875 l 1
 350.001953125 267.498046875 l 2xe8
 350.001953125 279.831054688 349.668945312 312.998046875 349.001953125 366.998046875 c 0
 347.501953125 426.99609375 346.751953125 485.682617188 346.751953125 543.055664062 c 0
 346.751953125 562.182617188 346.834960938 581.163085938 347.001953125 599.998046875 c 1
 309.3359375 600.998046875 274.0859375 601.498046875 241.251953125 601.498046875 c 0
 208.418945312 601.498046875 178.001953125 600.998046875 150.001953125 599.998046875 c 2
 148.001953125 599.998046875 l 2
 129.334960938 599.998046875 114.66796875 604.665039062 104.000976562 613.998046875 c 0
 93.333984375 623.331054688 87.6669921875 635.998046875 87 651.998046875 c 0
 87 652.665039062 86.6669921875 653.33203125 86 653.999023438 c 0
 86 667.999023438 91.3330078125 680.33203125 102 690.999023438 c 0
 112.666992188 701.666015625 128.333984375 707.333007812 149.000976562 708 c 0
 207.000976562 709.333007812 262.000976562 710 314.000976562 710 c 0
 418.000976562 710 503.333984375 707 570.000976562 701 c 0
 585.333984375 699.666992188 597.666992188 695.333984375 607 688.000976562 c 0
 619.666992188 678.66796875 626.666992188 665.334960938 628 648.001953125 c 0
 628 633.334960938 623.666992188 619.66796875 615 607.000976562 c 0
 610.333007812 599.66796875 603.333007812 594.000976562 594 590.000976562 c 0
 588.666992188 587.333984375 582.666992188 586.000976562 576 586.000976562 c 0
 572.666992188 586.000976562 569 586.66796875 565 588.000976562 c 0
 544.333007812 591.333984375 512 594.000976562 468 596.000976562 c 1xf0
 468 579.333984375 470.333007812 521.000976562 475 421.000976562 c 0
 476.06640625 399.131835938 476.599609375 380.036132812 476.599609375 363.713867188 c 0
 476.599609375 359.63671875 476.56640625 355.732421875 476.5 352.000976562 c 0
 476.166992188 333.333984375 476 321.666992188 476 317 c 0
 476 275 475 241.666992188 473 217 c 0xe8
EndSplineSet
Validated: 524289
EndChar

StartChar: K
Encoding: 75 75 43
Width: 700
GlyphClass: 2
Flags: W
HStem: -22 21G<142.333 151 566.155 569.004> 694.065 20G<131.67 140.136 530.667 535.333>
VStem: 86.001 116.999<107.028 271.001 452.999 540.271 541.723 700.529>
LayerCount: 2
Fore
SplineSet
143 -22 m 0
 141.666992188 -22 140.334960938 -21.666015625 139.001953125 -20.9990234375 c 0
 122.334960938 -20.9990234375 108.66796875 -16.666015625 98.0009765625 -7.9990234375 c 0
 88.0009765625 0.0009765625 83.0009765625 10.66796875 83.0009765625 24.0009765625 c 0
 83.0009765625 26.66796875 83.333984375 29.3349609375 84.0009765625 32.001953125 c 0
 85.333984375 53.3349609375 86.0009765625 88.66796875 86.0009765625 138.000976562 c 0
 86.0009765625 233.333984375 84.0009765625 338.666992188 80.0009765625 454 c 0
 78.66796875 496.666992188 78.0009765625 525.666992188 78.0009765625 541 c 0
 78.0009765625 556.333007812 78.66796875 578 80.0009765625 606 c 0
 81.333984375 634.666992188 82.0009765625 652.666992188 82.0009765625 660 c 1
 82.66796875 677.333007812 88.66796875 691 100.000976562 701 c 0
 110.578125 709.7109375 123.768554688 714.065429688 139.571289062 714.065429688 c 0
 140.701171875 714.065429688 141.84375 714.043945312 143 713.999023438 c 2
 146 713.999023438 l 2
 162 713.999023438 176 710.33203125 188 702.999023438 c 0
 200.698242188 694.745117188 207.046875 682.258789062 207.046875 665.540039062 c 0
 207.046875 651.19921875 206.41015625 618.120117188 204.999023438 567.999023438 c 0
 203.666015625 521.33203125 202.666015625 482.999023438 201.999023438 452.999023438 c 1
 226.666015625 472.999023438 261.999023438 501.666015625 307.999023438 538.999023438 c 0
 406.666015625 627.666015625 464.999023438 679.333007812 482.999023438 694 c 0
 494.33203125 702.666992188 505.33203125 708.666992188 515.999023438 712 c 0
 522.666015625 714 528.333007812 715 533 715 c 0
 537.666992188 715 542 714.666992188 546 714 c 0
 554.666992188 712 562.333984375 708 569.000976562 702 c 0
 578.333984375 694 583.000976562 685.333007812 583.000976562 676 c 0
 583.000976562 658 575.66796875 638.666992188 561.000976562 618 c 0
 551.000976562 605.333007812 515.000976562 569 453.000976562 509 c 1
 389.000976562 453 332.66796875 404.333007812 284.000976562 363 c 1
 309.333984375 339 349.666992188 303.333007812 405 256 c 0
 460.333007812 211.333007812 508.333007812 171 549 135 c 0
 571.666992188 113 588.333984375 95.6669921875 599.000976562 83 c 0
 610.333984375 67.6669921875 617.000976562 57 619.000976562 51 c 0
 621.66796875 42.3330078125 622.66796875 34 622.000976562 26 c 0
 622.000976562 20.6669921875 621.000976562 15.333984375 619.000976562 10.0009765625 c 0
 614.333984375 0.66796875 606.666992188 -6.6650390625 596 -11.998046875 c 0
 581.455078125 -18.05859375 571.59375 -21.0888671875 566.4140625 -21.0888671875 c 0
 565.895507812 -21.0888671875 565.424804688 -21.05859375 565 -20.998046875 c 2
 564 -20.998046875 l 2
 546 -20.998046875 529 -12.6650390625 513 4.001953125 c 0
 506.333007812 12.001953125 481 35.001953125 437 73.001953125 c 0
 393 110.334960938 345 151.66796875 293 197.000976562 c 0
 255.666992188 226.333984375 225.666992188 251.000976562 203 271.000976562 c 1
 212 25.0009765625 l 2
 210 10.333984375 201.333007812 -1.3330078125 186 -10 c 0
 173.333007812 -18 159 -22 143 -22 c 0
EndSplineSet
Validated: 524289
EndChar

StartChar: L
Encoding: 76 76 44
Width: 700
GlyphClass: 2
Flags: W
HStem: -14.999 116.996<206.011 206.996 207.996 490.635>
VStem: 77.999 127.996<95.9971 265.875> 104.998 127.048<172.937 688.982>
LayerCount: 2
Fore
SplineSet
213 209 m 0xa0
 209 161 206.662109375 123.330078125 205.995117188 95.9970703125 c 1
 206.328125 99.9970703125 206.662109375 101.997070312 206.99609375 101.997070312 c 0
 207.99609375 95.9970703125 l 1
 265.329101562 95.9970703125 332.329101562 99.330078125 408.99609375 105.997070312 c 0
 484.329101562 112.6640625 533.99609375 119.331054688 557.99609375 125.998046875 c 0
 561.73046875 127.064453125 565.46484375 127.59765625 569.198242188 127.59765625 c 0
 571.997070312 127.498046875 l 0
 576.6640625 127.165039062 581.331054688 125.998046875 585.998046875 123.998046875 c 0
 594.665039062 120.665039062 601.998046875 115.33203125 607.998046875 107.999023438 c 0
 612.665039062 101.33203125 615.998046875 94.33203125 617.998046875 86.9990234375 c 0
 620.665039062 78.9990234375 621.998046875 71.9990234375 621.998046875 65.9990234375 c 0
 621.998046875 50.666015625 617.998046875 38.3330078125 609.998046875 29 c 0
 601.998046875 19.6669921875 588.331054688 13.333984375 568.998046875 10.0009765625 c 0
 522.998046875 1.333984375 449.831054688 -4.9990234375 349.498046875 -8.9990234375 c 0
 249.165039062 -12.9990234375 177.33203125 -14.9990234375 133.999023438 -14.9990234375 c 0
 117.33203125 -14.9990234375 103.33203125 -9.33203125 91.9990234375 2.0009765625 c 0
 82.6240234375 11.3759765625 77.9365234375 23.38671875 77.9365234375 38.03515625 c 0
 77.9365234375 39.01171875 77.95703125 40.0009765625 77.9990234375 41.0009765625 c 2
 77.9990234375 50.0009765625 l 2xc0
 77.9990234375 54.0009765625 81.83203125 90.333984375 89.4990234375 159.000976562 c 0
 97.166015625 227.66796875 102.666015625 293.66796875 105.999023438 357.000976562 c 0
 106.887695312 369.88671875 107.33203125 384.697265625 107.33203125 401.432617188 c 0
 107.33203125 409.806640625 107.220703125 418.663085938 106.998046875 428.000976562 c 0
 106.998046875 452.66796875 106.331054688 523.66796875 104.998046875 641.000976562 c 2
 104.998046875 642.000976562 l 2
 105.665039062 662.66796875 111.83203125 678.500976562 123.499023438 689.500976562 c 0
 135.166015625 700.500976562 149.333007812 706.000976562 166 706.000976562 c 2
 169 706.000976562 l 2
 185 706.000976562 199.333007812 701.333984375 212 692.000976562 c 0
 225.36328125 681.819335938 232.045898438 667.081054688 232.045898438 647.788085938 c 0
 232.045898438 647 232.036132812 618.723632812 231 569 c 0
 229.666992188 525.666992188 228 485 226 447 c 0
 224 405 222.333007812 363 221 321 c 0
 219.666992188 294.333007812 217 257 213 209 c 0xa0
EndSplineSet
Validated: 524289
EndChar

StartChar: M
Encoding: 77 77 45
Width: 700
GlyphClass: 2
Flags: W
HStem: -10.001 21G<104.33 117.33 333 364>
VStem: 59.9961 108<16.5645 315.532>
LayerCount: 2
Fore
SplineSet
167.99609375 63.9990234375 m 2
 167.99609375 52.9990234375 l 2
 167.99609375 34.9990234375 162.663085938 19.9990234375 151.99609375 7.9990234375 c 0
 139.99609375 -4.0009765625 125.663085938 -10.0009765625 108.99609375 -10.0009765625 c 2
 107.99609375 -10.0009765625 l 2
 100.663085938 -10.0009765625 93.99609375 -8.66796875 87.99609375 -6.0009765625 c 0
 79.3291015625 -2.0009765625 72.3291015625 5.33203125 66.99609375 15.9990234375 c 0
 62.3291015625 27.9990234375 59.99609375 43.9990234375 59.99609375 63.9990234375 c 0
 59.99609375 72.666015625 60.99609375 86.9990234375 62.99609375 106.999023438 c 0
 64.99609375 126.33203125 67.3291015625 151.999023438 69.99609375 183.999023438 c 0
 73.3291015625 217.999023438 76.99609375 258.33203125 80.99609375 304.999023438 c 0
 84.99609375 352.33203125 87.99609375 389.665039062 89.99609375 416.998046875 c 0
 98.6630859375 512.998046875 106.330078125 579.331054688 112.997070312 615.998046875 c 0
 117.6640625 639.331054688 122.6640625 655.6640625 127.997070312 664.997070312 c 0
 135.997070312 678.997070312 148.330078125 689.330078125 164.997070312 695.997070312 c 0
 178.997070312 701.330078125 192.997070312 703.998046875 206.997070312 703.998046875 c 2
 212.997070312 703.998046875 l 2
 229.6640625 703.998046875 243.331054688 701.6640625 253.998046875 696.997070312 c 0
 268.665039062 690.997070312 278.665039062 680.997070312 283.998046875 666.997070312 c 0
 292.665039062 637.6640625 301.998046875 589.331054688 311.998046875 521.998046875 c 0
 321.998046875 454.665039062 332.665039062 377.665039062 343.998046875 290.998046875 c 0
 346.665039062 271.665039062 348.665039062 254.33203125 349.998046875 238.999023438 c 1
 354.665039062 286.999023438 359.33203125 331.666015625 363.999023438 372.999023438 c 0
 370.666015625 428.33203125 379.666015625 483.665039062 390.999023438 538.998046875 c 0
 402.33203125 594.331054688 411.999023438 636.997070312 419.999023438 666.997070312 c 0
 423.33203125 676.997070312 430.999023438 685.331054688 442.999023438 691.998046875 c 0
 453.666015625 697.998046875 464.999023438 701.665039062 476.999023438 702.998046875 c 0
 484.33203125 704.331054688 490.499023438 704.831054688 495.499023438 704.498046875 c 0
 500.499023438 704.165039062 504.666015625 703.998046875 507.999023438 703.998046875 c 2
 510.999023438 703.998046875 l 1
 526.499023438 703.998046875 l 2
 530.83203125 703.998046875 536.665039062 702.998046875 543.998046875 700.998046875 c 0
 551.331054688 699.665039062 557.498046875 697.665039062 562.498046875 694.998046875 c 0
 567.498046875 692.331054688 572.331054688 688.331054688 576.998046875 682.998046875 c 0
 581.665039062 676.998046875 584.665039062 669.998046875 585.998046875 661.998046875 c 0
 588.665039062 641.998046875 596.33203125 544.998046875 608.999023438 370.998046875 c 0
 621.666015625 197.665039062 630.666015625 99.6650390625 635.999023438 76.998046875 c 0
 638.666015625 63.6650390625 639.999023438 51.33203125 639.999023438 39.9990234375 c 0
 639.999023438 30.666015625 637.999023438 22.666015625 633.999023438 15.9990234375 c 0
 628.666015625 6.666015625 619.666015625 -0.0009765625 606.999023438 -4.0009765625 c 0
 599.666015625 -6.0009765625 591.999023438 -7.16796875 583.999023438 -7.5009765625 c 0
 575.999023438 -7.833984375 567.666015625 -6.0009765625 558.999023438 -2.0009765625 c 0
 543.666015625 4.666015625 532.333007812 18.3330078125 525 39 c 0
 511.666992188 79 499.666992188 234 489 504 c 1
 480.333007812 452.666992188 474.333007812 404 471 358 c 0
 464.333007812 282 455.333007812 210 444 142 c 0
 432.666992188 74 423.666992188 32.3330078125 417 17 c 0
 407 1 383 -7 345 -7 c 2
 340 -7 l 2
 326 -7 313.666992188 -5 303 -1 c 0
 290.333007812 3.6669921875 282.333007812 10.333984375 279 19.0009765625 c 0
 270.333007812 51.0009765625 256 124.000976562 236 238.000976562 c 0
 222.666992188 316.000976562 210 391.66796875 198 465.000976562 c 1
 196.666992188 451.66796875 195 427.66796875 193 393.000976562 c 2
 189 340.000976562 l 1
 183 253.000976562 l 2
 181 225.66796875 178.666992188 197.000976562 176 167.000976562 c 0
 174 144.333984375 171.666992188 120.666992188 169 96 c 0
 168.333007812 82 167.99609375 71.33203125 167.99609375 63.9990234375 c 2
EndSplineSet
Validated: 524289
EndChar

StartChar: N
Encoding: 78 78 46
Width: 700
GlyphClass: 2
Flags: W
HStem: -11.998 21G<119.667 138 523.667 551.667>
VStem: 79 108<6.53685 180.455> 87 107<79.7041 486> 513.333 106.665<187.325 656.813>
LayerCount: 2
Fore
SplineSet
192 486 m 1xb0
 193.333007812 456 194 431.002929688 194 411.002929688 c 0xb0
 194 389.669921875 193.666992188 359.669921875 193 321.002929688 c 0
 192.333007812 283.669921875 191.333007812 237.669921875 190 183.002929688 c 0
 188 128.3359375 187 93.6689453125 187 79.001953125 c 2
 187 52.001953125 l 1
 187 44.001953125 l 2
 187 26.001953125 181.666992188 12.001953125 171 2.001953125 c 0
 159.666992188 -7.3310546875 146 -11.998046875 130 -11.998046875 c 0
 109.333007812 -11.998046875 95.3330078125 -5.998046875 88 6.001953125 c 0
 82 17.3349609375 79 33.66796875 79 55.0009765625 c 0xd0
 79 68.333984375 80 120.000976562 82 210.000976562 c 0
 85.3330078125 348.66796875 87 444.000976562 87 496.000976562 c 0
 87 547.333984375 86.3330078125 594.666992188 85 638 c 2
 85 647 l 2
 85 657 86.6669921875 666 90 674 c 0
 95.3330078125 683.333007812 102.666015625 690 111.999023438 694 c 0
 125.33203125 701.333007812 140.33203125 705 156.999023438 705 c 0
 160.33203125 705 163.999023438 704.666992188 167.999023438 704 c 0
 182.666015625 704 195.333007812 701.666992188 206 697 c 0
 220.666992188 691 231 681 237 667 c 0
 252.333007812 624.333007812 294 545.333007812 362 430 c 0
 420 332.666992188 470 251.333984375 512 186.000976562 c 1
 512.888671875 224.213867188 513.333007812 270.274414062 513.333007812 324.18359375 c 0
 513.333007812 351.158203125 513.221679688 380.096679688 512.999023438 411.000976562 c 0
 511.666015625 529.000976562 508.666015625 607.000976562 503.999023438 645.000976562 c 0
 503.33203125 649.000976562 502.999023438 653.000976562 502.999023438 657.000976562 c 0
 502.999023438 669.000976562 507.33203125 679.66796875 515.999023438 689.000976562 c 0
 526.666015625 699.66796875 540.666015625 705.000976562 557.999023438 705.000976562 c 0
 573.999023438 705.000976562 586.999023438 702.333984375 596.999023438 697.000976562 c 0
 602.33203125 694.333984375 605.999023438 690.333984375 607.999023438 685.000976562 c 0
 609.999023438 679.66796875 611.666015625 675.000976562 612.999023438 671.000976562 c 0
 614.33203125 666.333984375 615.665039062 659.333984375 616.998046875 650.000976562 c 0
 618.998046875 638.66796875 619.998046875 585.334960938 619.998046875 490.001953125 c 2
 619.998046875 448.001953125 l 2
 619.998046875 364.668945312 618.998046875 278.668945312 616.998046875 190.001953125 c 0
 615.665039062 132.668945312 613.33203125 90.001953125 609.999023438 62.001953125 c 0
 607.33203125 35.3349609375 604.33203125 18.3349609375 600.999023438 11.001953125 c 0
 591.666015625 -4.998046875 569.333007812 -13.3310546875 534 -13.998046875 c 2
 530 -13.998046875 l 2
 517.333007812 -13.998046875 506 -11.6650390625 496 -6.998046875 c 0
 484 -1.6650390625 476 5.001953125 472 13.001953125 c 0
 465.333007812 26.3349609375 448 55.66796875 420 101.000976562 c 0
 390.666992188 148.333984375 361.666992188 193.666992188 333 237 c 0
 303 286.333007812 271.333007812 341.333007812 238 402 c 0
 220 432 204.666992188 460 192 486 c 1xb0
EndSplineSet
Validated: 524289
EndChar

StartChar: O
Encoding: 79 79 47
Width: 700
GlyphClass: 2
Flags: W
HStem: -23.9951 108<255.632 408.123> 612.006 105.995<290.528 432.954>
VStem: 81.001 120.999<154.456 486.5> 499.5 119.562<179.429 536.395>
LayerCount: 2
Fore
SplineSet
272 94.005859375 m 0
 284 87.3388671875 297.666992188 84.0048828125 313 84.0048828125 c 0
 351 84.0048828125 384.666992188 92.337890625 414 109.004882812 c 0
 429.333007812 117.004882812 443 128.171875 455 142.504882812 c 0
 467 156.837890625 476.333007812 173.337890625 483 192.004882812 c 0
 485.666992188 199.337890625 488.5 217.837890625 491.5 247.504882812 c 0
 494.5 277.171875 497 312.671875 499 354.004882812 c 0
 499.333984375 360.004882812 499.5 366.004882812 499.5 372.004882812 c 0
 499.5 378.004882812 499.333984375 384.004882812 499 390.004882812 c 0
 499 418.671875 497.666992188 447.338867188 495 476.005859375 c 0
 491 515.338867188 476.666992188 548.005859375 452 574.005859375 c 0
 428 599.338867188 398.5 612.005859375 363.5 612.005859375 c 0
 328.5 612.005859375 299 600.672851562 275 578.005859375 c 0
 250.333007812 554.005859375 232.333007812 520.672851562 221 478.005859375 c 0
 208.333007812 430.005859375 202 375.005859375 202 313.005859375 c 0
 202 274.338867188 204 240.338867188 208 211.005859375 c 0
 210.666992188 194.338867188 215 177.838867188 221 161.505859375 c 0
 227 145.172851562 234 131.505859375 242 120.505859375 c 0
 250 109.505859375 260 100.672851562 272 94.005859375 c 0
614 480 m 0
 617.375 438.375 619.0625 397.172851562 619.0625 356.392578125 c 0
 619.0625 324.67578125 618.041992188 293.213867188 616 262.005859375 c 0
 613.333007812 222.672851562 608.666015625 192.33984375 601.999023438 171.006835938 c 0
 593.33203125 139.673828125 582.33203125 112.673828125 568.999023438 90.0068359375 c 0
 555.666015625 67.33984375 540.833007812 48.6728515625 524.5 34.005859375 c 0
 508.166992188 19.3388671875 488.333984375 7.671875 465.000976562 -0.9951171875 c 0
 441.66796875 -9.662109375 418.16796875 -15.662109375 394.500976562 -18.9951171875 c 0
 370.833984375 -22.328125 343.666992188 -23.9951171875 313 -23.9951171875 c 0
 265.666992188 -23.328125 223.333984375 -10.6611328125 186.000976562 14.005859375 c 0
 151.333984375 39.3388671875 125.000976562 72.671875 107.000976562 114.004882812 c 0
 89.66796875 154.004882812 81.0009765625 197.337890625 81.0009765625 244.004882812 c 2
 81.0009765625 249.004882812 l 1
 81.0009765625 266.004882812 l 2
 81.0009765625 295.337890625 81.16796875 318.670898438 81.5009765625 336.00390625 c 0
 81.833984375 353.336914062 83.0009765625 376.669921875 85.0009765625 406.002929688 c 0
 89.0009765625 463.3359375 100.66796875 516.668945312 120.000976562 566.001953125 c 1
 120.000976562 567.000976562 l 1
 138.000976562 611.66796875 169.333984375 648.000976562 214.000976562 676.000976562 c 0
 262.000976562 704.000976562 316.333984375 718.000976562 377.000976562 718.000976562 c 0
 407.66796875 718.000976562 437.000976562 712.333984375 465.000976562 701.000976562 c 0
 493.000976562 690.333984375 517.333984375 675.166992188 538.000976562 655.5 c 0
 558.66796875 635.833007812 575.66796875 611 589.000976562 581 c 0
 602.333984375 551 610.666992188 517.333007812 614 480 c 0
EndSplineSet
Validated: 524289
EndChar

StartChar: P
Encoding: 80 80 48
Width: 700
GlyphClass: 2
Flags: W
HStem: -18.9971 21G<157.67 174.67> 218 105.918<220.506 423.255> 605.004 105.999<224.133 440.458>
VStem: 105.004 129.999<-2.55739 224.218> 105.004 113.996<32.1765 93.9443 96.7622 226 328.472 599.255> 494.005 115.995<391.836 558.239>
LayerCount: 2
Fore
SplineSet
228 109 m 0xec
 232.666992188 61 235.002929688 35.3369140625 235.002929688 32.00390625 c 0
 235.002929688 15.3369140625 226.669921875 2.669921875 210.002929688 -5.9970703125 c 0
 196.669921875 -14.6640625 182.336914062 -18.9970703125 167.00390625 -18.9970703125 c 0
 148.336914062 -18.9970703125 133.00390625 -13.6640625 121.00390625 -2.9970703125 c 0
 110.336914062 6.3359375 105.00390625 18.6689453125 105.00390625 34.001953125 c 0xf4
 105.00390625 36.6689453125 105.336914062 41.001953125 106.00390625 47.001953125 c 0
 106.670898438 56.3349609375 107.00390625 72.3349609375 107.00390625 95.001953125 c 0
 107.00390625 132.334960938 106.336914062 183.66796875 105.00390625 249.000976562 c 0
 102.336914062 359.66796875 100.669921875 425.334960938 100.002929688 446.001953125 c 0
 99.7802734375 463.56640625 99.6689453125 481.538085938 99.6689453125 499.91796875 c 0
 99.6689453125 536.650390625 100.11328125 575.01171875 101.001953125 615.001953125 c 1
 100.334960938 609.668945312 99.66796875 610.3359375 99.0009765625 617.002929688 c 1
 99.0009765625 611.669921875 98.66796875 611.669921875 98.0009765625 617.002929688 c 0
 92.0009765625 625.669921875 89.333984375 634.336914062 90.0009765625 643.00390625 c 2
 90.0009765625 651.00390625 l 2
 92.0009765625 661.00390625 96.66796875 670.00390625 104.000976562 678.00390625 c 0
 111.333984375 686.00390625 119.666992188 691.00390625 129 693.00390625 c 0
 153.666992188 698.336914062 190.333984375 702.669921875 239.000976562 706.002929688 c 0
 290.333984375 709.3359375 326.333984375 711.002929688 347.000976562 711.002929688 c 0
 399.000976562 711.002929688 445.333984375 703.002929688 486.000976562 687.002929688 c 0
 523.333984375 670.3359375 553.166992188 645.168945312 575.5 611.501953125 c 0
 597.833007812 577.834960938 609.333007812 538.001953125 610 492.001953125 c 1
 610 454.668945312 603.666992188 419.168945312 591 385.501953125 c 0
 578.333007812 351.834960938 561 322.66796875 539 298.000976562 c 0
 517 273.333984375 488.666992188 253.666992188 454 239 c 0
 420.204101562 224.970703125 383.967773438 217.956054688 345.291992188 217.956054688 c 0
 343.533203125 217.956054688 341.768554688 217.970703125 340 218 c 0
 291.333007812 218 251 220.666992188 219 226 c 1
 221 188 224 149 228 109 c 0xec
216.002929688 334.00390625 m 1
 239.836914062 327.28125 267.317382812 323.91796875 298.435546875 323.91796875 c 0
 301.263671875 323.91796875 304.12109375 323.9453125 307.008789062 324.000976562 c 0
 327.008789062 324.000976562 345.341796875 325.333984375 362.008789062 328.000976562 c 0
 378.67578125 330.66796875 393.008789062 334.000976562 405.008789062 338.000976562 c 0
 417.008789062 342.000976562 427.508789062 347.333984375 436.508789062 354.000976562 c 0
 445.508789062 360.66796875 453.17578125 367.334960938 459.508789062 374.001953125 c 0
 465.841796875 380.668945312 471.174804688 388.501953125 475.5078125 397.501953125 c 0
 479.840820312 406.501953125 483.173828125 414.668945312 485.506835938 422.001953125 c 0
 487.83984375 429.334960938 489.672851562 438.16796875 491.005859375 448.500976562 c 0
 492.338867188 458.833984375 493.171875 467.333984375 493.504882812 474.000976562 c 0
 493.837890625 480.66796875 494.004882812 488.334960938 494.004882812 497.001953125 c 0
 494.004882812 513.668945312 490.671875 528.3359375 484.004882812 541.002929688 c 0
 477.337890625 553.669921875 469.004882812 563.836914062 459.004882812 571.50390625 c 0
 449.004882812 579.170898438 437.171875 585.670898438 423.504882812 591.00390625 c 0
 409.837890625 596.336914062 396.670898438 600.00390625 384.00390625 602.00390625 c 0
 371.336914062 604.00390625 359.00390625 605.00390625 347.00390625 605.00390625 c 0
 323.670898438 605.00390625 282.00390625 602.670898438 222.00390625 598.00390625 c 1
 219.336914062 518.00390625 217.669921875 464.336914062 217.002929688 437.00390625 c 0
 216.3359375 400.336914062 216.002929688 366.00390625 216.002929688 334.00390625 c 1
EndSplineSet
Validated: 524289
EndChar

StartChar: Q
Encoding: 81 81 49
Width: 700
GlyphClass: 2
Flags: W
HStem: -24 21G<319.998 346.998> 612 106<286.16 429.666>
VStem: 75.9971 120.952<161.037 483.098> 287.997 106<138.764 207.502> 497.997 118.002<137.38 526.522>
LayerCount: 2
Fore
SplineSet
594 -204 m 0
 585.333007812 -209.333007812 575.998046875 -212 565.998046875 -212 c 0
 561.331054688 -212 555.998046875 -211.333007812 549.998046875 -210 c 0
 534.665039062 -206 522.33203125 -197.666992188 512.999023438 -185 c 0
 502.33203125 -172.333007812 485.165039062 -150 461.498046875 -118 c 0
 437.831054688 -86 414.998046875 -53.6669921875 392.998046875 -21 c 1
 375.665039062 -23 356.998046875 -24 336.998046875 -24 c 0
 302.998046875 -24 271.665039062 -19 242.998046875 -9 c 0
 214.331054688 0.3330078125 190.331054688 13.666015625 170.998046875 30.9990234375 c 0
 151.665039062 48.33203125 134.998046875 68.33203125 120.998046875 90.9990234375 c 0
 94.3310546875 134.999023438 79.6640625 187.666015625 76.9970703125 248.999023438 c 0
 76.330078125 266.33203125 75.9970703125 282.999023438 75.9970703125 298.999023438 c 0
 75.9970703125 403.666015625 89.6640625 491.333007812 116.997070312 562 c 1
 134.997070312 606.666992188 166.6640625 644 211.997070312 674 c 0
 259.997070312 703.333007812 313.6640625 718 372.997070312 718 c 0
 436.330078125 718 489.330078125 699 531.997070312 661 c 0
 552.6640625 642.333007812 569.831054688 617.5 583.498046875 586.5 c 0
 597.165039062 555.5 606.33203125 520 610.999023438 480 c 0
 614.427734375 449.14453125 616.141601562 413.879882812 616.141601562 374.208984375 c 0
 616.141601562 367.594726562 616.094726562 360.858398438 615.999023438 354 c 0
 615.999023438 269.333007812 611.666015625 206.333007812 602.999023438 165 c 0
 588.999023438 97 557.999023438 47 509.999023438 15 c 1
 531.33203125 -14.3330078125 557.33203125 -48 587.999023438 -86 c 0
 606.666015625 -109.333007812 615.999023438 -121.333007812 615.999023438 -122 c 0
 621.33203125 -130 623.999023438 -138.333007812 623.999023438 -147 c 0
 623.999023438 -149.666992188 623.666015625 -152 622.999023438 -154 c 0
 621.666015625 -164 618.333007812 -173.666992188 613 -183 c 0
 607 -192.333007812 600.666992188 -199.333007812 594 -204 c 0
298.998046875 114 m 0
 291.665039062 131.333007812 287.997070312 147 287.997070312 161 c 0
 287.997070312 182.333007812 296.6640625 199 313.997070312 211 c 0
 323.997070312 218.333007812 334.6640625 222.333007812 345.997070312 223 c 0
 355.330078125 223 364.330078125 220 372.997070312 214 c 0
 381.6640625 208 388.6640625 198.666992188 393.997070312 186 c 0
 405.330078125 156.666992188 421.330078125 125 441.997070312 91 c 1
 463.997070312 108.333007812 478.997070312 134 486.997070312 168 c 0
 488.997070312 177.333007812 491.1640625 197 493.497070312 227 c 0
 495.830078125 257 497.330078125 294.666992188 497.997070312 340 c 2
 497.997070312 356 l 2
 497.997070312 395.333007812 495.6640625 433 490.997070312 469 c 0
 484.997070312 513.666992188 470.330078125 549 446.997070312 575 c 0
 424.330078125 599.666992188 395.163085938 612 359.49609375 612 c 0
 323.829101562 612 293.99609375 600.333007812 269.99609375 577 c 0
 245.329101562 553 227.329101562 518.666992188 215.99609375 474 c 0
 203.297851562 425.112304688 196.94921875 374.108398438 196.94921875 320.98828125 c 0
 196.94921875 318.331054688 196.96484375 315.66796875 196.997070312 313 c 0
 196.997070312 293 197.6640625 272.333007812 198.997070312 251 c 1
 201.6640625 214.333007812 209.331054688 181.5 221.998046875 152.5 c 0
 234.665039062 123.5 250.998046875 100.666992188 270.998046875 84 c 0
 287.665039062 70.6669921875 305.998046875 63 325.998046875 61 c 1
 313.998046875 82.3330078125 304.998046875 100 298.998046875 114 c 0
EndSplineSet
Validated: 524289
EndChar

StartChar: R
Encoding: 82 82 50
Width: 700
GlyphClass: 2
Flags: W
HStem: -18.9961 21G<135.667 156.001 551.001 566.667> 694.002 20G<133.333 149.999>
VStem: 86.001 118.999<129 609.003> 86.001 107.999<34.426 251 369.005 497.376> 90.667 123.334<-2.55641 249.432> 92.5 113.501<371.653 607.007> 491.001 116.998<408.488 493.809>
LayerCount: 2
Fore
SplineSet
203.000976562 449.00390625 m 0xc6
 201.66796875 431.670898438 199.33203125 405.3359375 195.999023438 370.002929688 c 1
 201.33203125 369.3359375 208.33203125 369.002929688 216.999023438 369.002929688 c 0
 225.666015625 369.002929688 236.333007812 369.669921875 249 371.002929688 c 0
 278.333007812 372.3359375 303 373.668945312 323 375.001953125 c 0
 373.666992188 379.001953125 410.333984375 384.334960938 433.000976562 391.001953125 c 0
 445.000976562 395.001953125 455.66796875 399.668945312 465.000976562 405.001953125 c 0
 474.333984375 410.334960938 481.000976562 416.16796875 485.000976562 422.500976562 c 0
 489.000976562 428.833984375 491.000976562 436.333984375 491.000976562 445.000976562 c 0
 491.000976562 461.000976562 484.16796875 476.833984375 470.500976562 492.500976562 c 0
 456.833984375 508.16796875 439.000976562 522.334960938 417.000976562 535.001953125 c 0
 395.000976562 547.668945312 369.833984375 559.3359375 341.500976562 570.002929688 c 0
 313.16796875 580.669921875 287.334960938 589.002929688 264.001953125 595.002929688 c 0
 240.668945312 601.002929688 220.001953125 605.669921875 202.001953125 609.002929688 c 1
 203.334960938 566.3359375 204.66796875 529.3359375 206.000976562 498.002929688 c 0
 206.000976562 484.669921875 205.000976562 468.336914062 203.000976562 449.00390625 c 0xc6
205 129 m 0xe2
 211 74.3330078125 214.000976562 42.669921875 214.000976562 34.0029296875 c 0xca
 214.000976562 16.669921875 206.333984375 3.3369140625 191.000976562 -5.99609375 c 0
 178.333984375 -14.6630859375 164.000976562 -18.99609375 148.000976562 -18.99609375 c 2
 144.000976562 -18.99609375 l 2
 127.333984375 -18.3291015625 113.333984375 -12.99609375 102.000976562 -2.99609375 c 0
 91.333984375 6.3369140625 86.0009765625 18.669921875 86.0009765625 34.0029296875 c 2
 86.0009765625 42.0029296875 l 2xd2
 88.66796875 75.3359375 90 103.3359375 90 126.002929688 c 0
 90 132.002929688 90.16796875 145.169921875 90.5009765625 165.502929688 c 0
 90.6123046875 172.274414062 90.6669921875 179.895507812 90.6669921875 188.3671875 c 0xca
 90.6669921875 205.334960938 90.4453125 225.712890625 90 249.502929688 c 0
 89.3330078125 285.169921875 89 307.502929688 89 316.502929688 c 0
 89 325.502929688 89.6669921875 343.3359375 91 370.002929688 c 0
 92 393.002929688 92.5 414.752929688 92.5 435.252929688 c 0xc6
 92.5 455.752929688 92 475.002929688 91 493.002929688 c 0
 90.3330078125 515.002929688 88.66796875 544.66796875 86.0009765625 582.000976562 c 0xe2
 83.333984375 619.333984375 81.9990234375 642.002929688 81.9990234375 650.002929688 c 2
 81.9990234375 655.002929688 l 2
 81.9990234375 656.3359375 81.666015625 657.668945312 80.9990234375 659.001953125 c 0
 80.9990234375 671.001953125 86.4990234375 683.168945312 97.4990234375 695.501953125 c 0
 108.499023438 707.834960938 123.666015625 714.001953125 142.999023438 714.001953125 c 0
 156.999023438 714.001953125 168.666015625 711.334960938 177.999023438 706.001953125 c 1
 235.999023438 703.334960938 289.999023438 696.16796875 339.999023438 684.500976562 c 0
 389.999023438 672.833984375 431.999023438 658.333984375 465.999023438 641.000976562 c 0
 498.666015625 623.66796875 525.666015625 604.000976562 546.999023438 582.000976562 c 0
 568.33203125 560.000976562 583.83203125 537.66796875 593.499023438 515.000976562 c 0
 603.166015625 492.333984375 607.999023438 469.333984375 607.999023438 446.000976562 c 0
 607.999023438 394.000976562 587.33203125 355.000976562 545.999023438 329.000976562 c 0
 532.666015625 321.000976562 518.333007812 314.000976562 503 308.000976562 c 0
 487 302.66796875 468.166992188 297.834960938 446.5 293.501953125 c 0
 424.833007812 289.168945312 406.333007812 286.168945312 391 284.501953125 c 0
 375.666992188 282.834960938 363 281.66796875 353 281.000976562 c 1
 411.666992188 251.000976562 464 217.333984375 510 180.000976562 c 0
 562.666992188 134.66796875 597.333984375 95.0009765625 614.000976562 61.0009765625 c 0
 616.66796875 53.66796875 618.000976562 46.66796875 618.000976562 40.0009765625 c 0
 618.000976562 33.333984375 617.000976562 27.0009765625 615.000976562 21.0009765625 c 0
 610.333984375 9.0009765625 602.666992188 -0.666015625 592 -7.9990234375 c 0
 582.666992188 -14.666015625 572.333984375 -17.9990234375 561.000976562 -17.9990234375 c 0
 541.000976562 -17.9990234375 523.66796875 -7.9990234375 509.000976562 12.0009765625 c 0
 498.333984375 25.333984375 482.500976562 42.1669921875 461.500976562 62.5 c 0
 440.500976562 82.8330078125 415.000976562 105.333007812 385.000976562 130 c 0
 355.000976562 154.666992188 321.000976562 179 283.000976562 203 c 0
 252.333984375 222.333007812 222.666992188 238.333007812 194 251 c 1xd2
 196 217.666992188 199.666992188 177 205 129 c 0xe2
EndSplineSet
Validated: 524289
EndChar

StartChar: S
Encoding: 83 83 51
Width: 700
GlyphClass: 2
Flags: W
HStem: -29 108.995<224.616 405.45> 620.998 102.998<300.813 565.845>
VStem: 74.9199 10.0801<80.1222 81> 105.004 127.998<475.646 569.182> 501.005 123.995<155.55 280.464>
LayerCount: 2
Fore
SplineSet
85 73 m 1
 78.2783203125 87.0537109375 74.919921875 99.705078125 74.919921875 110.958984375 c 0
 74.919921875 115.76953125 75.177734375 120.87109375 76.0029296875 124.99609375 c 0
 80.0029296875 140.329101562 89.3359375 151.662109375 104.002929688 158.995117188 c 0
 112.669921875 162.995117188 119.336914062 165.495117188 124.00390625 166.495117188 c 0
 128.670898438 167.495117188 132.837890625 167.995117188 136.504882812 167.995117188 c 2
 145.004882812 167.995117188 l 2
 153.004882812 167.328125 160.504882812 163.995117188 167.504882812 157.995117188 c 0
 174.504882812 151.995117188 181.337890625 144.328125 188.004882812 134.995117188 c 0
 199.337890625 118.328125 215.504882812 104.995117188 236.504882812 94.9951171875 c 0
 257.504882812 84.9951171875 281.337890625 79.9951171875 308.004882812 79.9951171875 c 0
 324.004882812 79.9951171875 341.004882812 81.9951171875 359.004882812 85.9951171875 c 0
 377.004882812 89.9951171875 394.504882812 96.162109375 411.504882812 104.495117188 c 0
 428.504882812 112.828125 443.671875 122.328125 457.004882812 132.995117188 c 0
 470.337890625 143.662109375 481.004882812 155.995117188 489.004882812 169.995117188 c 0
 497.004882812 183.995117188 501.004882812 198.995117188 501.004882812 214.995117188 c 0
 501.004882812 223.662109375 500.337890625 231.495117188 499.004882812 238.495117188 c 0
 497.671875 245.495117188 495.171875 252.995117188 491.504882812 260.995117188 c 0
 487.837890625 268.995117188 483.004882812 276.328125 477.004882812 282.995117188 c 0
 471.004882812 289.662109375 462.337890625 296.495117188 451.004882812 303.495117188 c 0
 439.671875 310.495117188 426.171875 316.662109375 410.504882812 321.995117188 c 0
 394.837890625 327.328125 375.170898438 332.328125 351.50390625 336.995117188 c 0
 327.836914062 341.662109375 301.836914062 345.329101562 273.50390625 347.99609375 c 0
 245.170898438 350.663085938 219.670898438 356.99609375 197.00390625 366.99609375 c 0
 175.670898438 376.99609375 158.50390625 389.49609375 145.50390625 404.49609375 c 0
 132.50390625 419.49609375 122.50390625 435.329101562 115.50390625 451.99609375 c 0
 108.50390625 468.663085938 105.00390625 485.330078125 105.00390625 501.997070312 c 0
 105.00390625 525.330078125 109.170898438 547.663085938 117.50390625 568.99609375 c 0
 125.836914062 590.329101562 138.50390625 610.49609375 155.50390625 629.49609375 c 0
 172.50390625 648.49609375 193.336914062 664.99609375 218.00390625 678.99609375 c 0
 243.336914062 692.99609375 273.669921875 703.99609375 309.002929688 711.99609375 c 0
 344.3359375 719.99609375 382.3359375 723.99609375 423.002929688 723.99609375 c 0
 443.002929688 723.99609375 470.3359375 722.329101562 505.002929688 718.99609375 c 0
 537.002929688 715.663085938 559.3359375 711.663085938 572.002929688 706.99609375 c 0
 587.3359375 701.663085938 598.668945312 692.663085938 606.001953125 679.99609375 c 0
 611.334960938 670.663085938 614.001953125 660.330078125 614.001953125 648.997070312 c 0
 614.001953125 634.330078125 610.001953125 622.997070312 602.001953125 614.997070312 c 0
 595.334960938 608.330078125 587.334960938 604.330078125 578.001953125 602.997070312 c 0
 573.334960938 602.330078125 569.334960938 601.997070312 566.001953125 601.997070312 c 0
 562.668945312 601.997070312 559.001953125 602.330078125 555.001953125 602.997070312 c 0
 547.668945312 603.6640625 540.001953125 605.331054688 532.001953125 607.998046875 c 0
 520.668945312 610.665039062 511.668945312 612.665039062 505.001953125 613.998046875 c 0
 497.668945312 615.331054688 486.001953125 616.831054688 470.001953125 618.498046875 c 0
 454.001953125 620.165039062 435.334960938 620.998046875 414.001953125 620.998046875 c 0
 382.001953125 620.998046875 352.334960938 616.831054688 325.001953125 608.498046875 c 0
 297.668945312 600.165039062 275.501953125 588.33203125 258.501953125 572.999023438 c 0
 241.501953125 557.666015625 233.001953125 540.666015625 233.001953125 521.999023438 c 0
 233.001953125 500.666015625 243.334960938 482.666015625 264.001953125 467.999023438 c 0
 286.668945312 452.666015625 319.001953125 443.999023438 361.001953125 441.999023438 c 0
 402.334960938 439.999023438 439.334960938 434.33203125 472.001953125 424.999023438 c 0
 504.001953125 415.666015625 529.168945312 403.999023438 547.501953125 389.999023438 c 0
 565.834960938 375.999023438 581.16796875 359.499023438 593.500976562 340.499023438 c 0
 605.833984375 321.499023438 614.166992188 302.999023438 618.5 284.999023438 c 0
 622.833007812 266.999023438 625 247.666015625 625 226.999023438 c 0
 625 196.33203125 619.5 167.33203125 608.5 139.999023438 c 0
 597.5 112.666015625 582.333007812 88.8330078125 563 68.5 c 0
 543.666992188 48.1669921875 521 30.6669921875 495 16 c 0
 467 1.3330078125 437 -9.6669921875 405 -17 c 0
 372.333007812 -24.3330078125 338.666015625 -28.3330078125 303.999023438 -29 c 0
 250.666015625 -29 204.333007812 -19 165 1 c 0
 127 20.3330078125 100.666992188 44.3330078125 86 73 c 0
 85.3330078125 81 85 81 85 73 c 1
EndSplineSet
Validated: 524289
EndChar

StartChar: T
Encoding: 84 84 52
Width: 700
GlyphClass: 2
Flags: W
HStem: -13.002 21G<346.002 367.668> 591 110<428.266 610.528> 622 92<89.4407 279.029>
VStem: 283.002 135.998<346.537 596> 296.002 136.998<4.95311 342.594>
LayerCount: 2
Fore
SplineSet
406 1 m 0xc8
 392 -8.3330078125 376.334960938 -13.001953125 359.001953125 -13.001953125 c 2
 355.001953125 -13.001953125 l 2
 337.001953125 -13.001953125 322.001953125 -7.3349609375 310.001953125 3.998046875 c 0
 299.334960938 13.3310546875 294.001953125 25.998046875 294.001953125 41.998046875 c 0
 294.001953125 44.6650390625 294.334960938 48.83203125 295.001953125 54.4990234375 c 0
 295.668945312 60.166015625 296.001953125 73.3330078125 296.001953125 94 c 0xc8
 296.001953125 140 293.834960938 222.333007812 289.501953125 341 c 0
 285.168945312 459.666992188 283.001953125 544 283.001953125 594 c 2
 283.001953125 600 l 1
 197.668945312 604 148.668945312 607 136.001953125 609 c 0
 119.334960938 611.666992188 105.66796875 616 95.0009765625 622 c 0
 81.0009765625 630.666992188 74.0009765625 642.666992188 74.0009765625 658 c 2
 74.0009765625 661 l 2
 74.0009765625 675 79.0009765625 687.666992188 89.0009765625 699 c 0
 98.333984375 709 110.666992188 714 126 714 c 0xb0
 130 714 134.333007812 713.666992188 139 713 c 0
 175 707 317.666992188 703 567 701 c 0
 586.333007812 701 601 696 611 686 c 0
 621 676 626 664 626 650 c 0
 626 634.666992188 621 621 611 609 c 0
 601 597 587 591 569 591 c 0
 568.333007812 591 518.333007812 592.666992188 419 596 c 1xd0
 420.333007812 465.333007812 425 281.333007812 433 44 c 0
 431 25.3330078125 422 11 406 1 c 0xc8
EndSplineSet
Validated: 524289
EndChar

StartChar: U
Encoding: 85 85 53
Width: 700
GlyphClass: 2
Flags: W
HStem: -28.9971 114.999<261.683 428.941> 689.002 20G<125.666 143.999 565 577.333>
VStem: 69.4551 118.544<176.994 688.531> 512.499 117.501<180.084 691.435>
LayerCount: 2
Fore
SplineSet
500 17 m 0
 482 7 462.99609375 -1.6640625 442.99609375 -8.9970703125 c 0
 423.663085938 -16.330078125 404.830078125 -21.4970703125 386.497070312 -24.4970703125 c 0
 368.1640625 -27.4970703125 348.831054688 -28.9970703125 328.498046875 -28.9970703125 c 0
 308.165039062 -28.9970703125 286.665039062 -26.1640625 263.998046875 -20.4970703125 c 0
 241.331054688 -14.830078125 218.331054688 -5.330078125 194.998046875 8.0029296875 c 0
 172.998046875 21.3359375 153.331054688 38.1689453125 135.998046875 58.501953125 c 0
 118.665039062 78.8349609375 104.33203125 104.834960938 92.9990234375 136.501953125 c 0
 81.666015625 168.168945312 75.3330078125 203.668945312 74 243.001953125 c 0
 70.9697265625 352.708007812 69.455078125 437.065429688 69.455078125 496.07421875 c 0
 69.455078125 501.969726562 69.4697265625 507.612304688 69.5 513.001953125 c 0
 69.8330078125 572.334960938 70.666015625 615.66796875 71.9990234375 643.000976562 c 0
 72.666015625 663.66796875 78.9990234375 679.834960938 90.9990234375 691.501953125 c 0
 102.999023438 703.168945312 117.33203125 709.001953125 133.999023438 709.001953125 c 0
 153.999023438 709.001953125 168.666015625 702.334960938 177.999023438 689.001953125 c 0
 184.666015625 679.001953125 187.999023438 665.334960938 187.999023438 648.001953125 c 0
 187.999023438 430.668945312 189.666015625 299.668945312 192.999023438 255.001953125 c 0
 194.33203125 236.334960938 196.83203125 219.66796875 200.499023438 205.000976562 c 0
 204.166015625 190.333984375 209.666015625 175.333984375 216.999023438 160.000976562 c 0
 224.33203125 144.66796875 233.33203125 131.834960938 243.999023438 121.501953125 c 0
 254.666015625 111.168945312 268.166015625 102.668945312 284.499023438 96.001953125 c 0
 300.83203125 89.3349609375 319.33203125 86.001953125 339.999023438 86.001953125 c 0
 387.999023438 86.001953125 426.83203125 100.168945312 456.499023438 128.501953125 c 0
 486.166015625 156.168945312 502.999023438 200.001953125 506.999023438 260.001953125 c 0
 508.999023438 287.334960938 510.666015625 318.334960938 511.999023438 353.001953125 c 0
 512.33203125 376.3359375 512.499023438 397.8359375 512.499023438 417.501953125 c 0
 512.499023438 437.168945312 512.33203125 455.001953125 511.999023438 471.001953125 c 0
 511.33203125 538.334960938 510.999023438 577.16796875 510.999023438 587.500976562 c 2
 510.999023438 634.000976562 l 2
 510.999023438 649.333984375 512.33203125 662.500976562 514.999023438 673.500976562 c 0
 517.666015625 684.500976562 522.333007812 692.66796875 529 698.000976562 c 0
 535.666992188 703.333984375 542 706.666992188 548 708 c 0
 554 709.333007812 561 710 569 710 c 0
 585.666992188 710 599.166992188 704 609.5 692 c 0
 619.833007812 680 625.333007812 664.333007812 626 645 c 0
 628.666992188 594.333007812 630 537.166015625 630 473.499023438 c 0
 630 409.83203125 628.666992188 339.33203125 626 261.999023438 c 0
 624.666992188 231.999023438 620.5 203.83203125 613.5 177.499023438 c 0
 606.5 151.166015625 597.5 128.333007812 586.5 109 c 0
 575.5 89.6669921875 562.666992188 72 548 56 c 0
 533.333007812 40 517.333007812 27 500 17 c 0
EndSplineSet
Validated: 524289
EndChar

StartChar: V
Encoding: 86 86 54
Width: 700
GlyphClass: 2
Flags: W
HStem: -12 21G<348.004 365> 691.001 20G<111.002 119.002>
LayerCount: 2
Fore
SplineSet
356 -12 m 2
 348.00390625 -11.9990234375 l 2
 332.00390625 -11.9990234375 318.336914062 -9.666015625 307.00390625 -4.9990234375 c 0
 291.670898438 1.0009765625 280.670898438 11.0009765625 274.00390625 25.0009765625 c 0
 244.00390625 95.66796875 202.670898438 205.000976562 150.00390625 353.000976562 c 0
 99.3369140625 502.333984375 70.669921875 593.333984375 64.0029296875 626.000976562 c 0
 61.3359375 639.333984375 59.6689453125 651.666992188 59.001953125 663 c 0
 59.001953125 671.666992188 61.3349609375 679.666992188 66.001953125 687 c 0
 71.3349609375 695.666992188 80.001953125 702.333984375 92.001953125 707.000976562 c 0
 99.3349609375 709.66796875 107.001953125 711.000976562 115.001953125 711.000976562 c 0
 123.001953125 711.000976562 131.334960938 709.333984375 140.001953125 706.000976562 c 0
 155.334960938 699.333984375 166.66796875 685.333984375 174.000976562 664.000976562 c 0
 178.000976562 649.333984375 211.66796875 549.000976562 275.000976562 363.000976562 c 0
 304.333984375 278.333984375 327.000976562 214.000976562 343.000976562 170.000976562 c 1
 369.000976562 240.66796875 403.000976562 335.66796875 445.000976562 455.000976562 c 2
 519.000976562 664.000976562 l 2
 527.000976562 684.66796875 539.000976562 698.334960938 555.000976562 705.001953125 c 0
 563.66796875 708.334960938 572.16796875 710.16796875 580.500976562 710.500976562 c 0
 588.833984375 710.833984375 596.666992188 709.666992188 604 707 c 0
 613.333007812 703.666992188 621.333007812 698.666992188 628 692 c 0
 634 684.666992188 638 676 640 666 c 2
 640 660 l 2
 640 648 637.333007812 635 632 621 c 0
 617.333007812 587 583 494 529 342 c 0
 471.666992188 188 435 83 419 27 c 0
 415 15.6669921875 408.666992188 6.6669921875 400 0 c 0
 388.666992188 -8 374 -12 356 -12 c 2
EndSplineSet
Validated: 524289
EndChar

